<?xml version="1.0" encoding="utf-8"?>
<!-- Generator: Adobe Illustrator 16.0.4, SVG Export Plug-In . SVG Version: 6.00 Build 0)  -->
<!DOCTYPE svg PUBLIC "-//W3C//DTD SVG 1.1//EN" "http://www.w3.org/Graphics/SVG/1.1/DTD/svg11.dtd">
<svg version="1.1" id="Layer_1" xmlns="http://www.w3.org/2000/svg" xmlns:xlink="http://www.w3.org/1999/xlink" x="0px" y="0px"
	 width="683px" height="475px" viewBox="0 0 683 475" enable-background="new 0 0 683 475" xml:space="preserve">
<path d="M404.781,374.201C405.127,373.957,403.24,371.149,404.781,374.201L404.781,374.201z"/>
<path d="M187.778,381.575C199.441,381.389,182,381.242,187.778,381.575L187.778,381.575z"/>
<path d="M525.35,221.657C521.635,221.443,525.153,223.46,525.35,221.657L525.35,221.657z"/>
<path d="M318.898,54.884C317.754,55.064,320.32,58.192,318.898,54.884L318.898,54.884z"/>
<path d="M204.044,225.449c8.561-6.917,16.438-17.313,24.955-25.047c8.069-7.327,13.617-10.214,21.124-15.877
	c-0.365,6.319,2.609,30.582-1.649,38.475c0,3.711,7.014,3.918,12.737,0.896c-3.184-0.308-1.054-2.272-1.042-3.651
	c0.101-11.393-4.457-21.86-3.428-32.901c11.571,2.029,20.462,20.441,32.841,14.745c4.942,2.213,17.907,5.32,17.57,13.394
	c3.076-0.503,6.015-3.548,2.933-6.623c-9.861-9.854-17.049-16.332-29.813-22.473c-6.802-3.272-13.846-5.997-20.733-9.078
	c0.406-4.834,0.488-9.674,0.245-14.521c-0.354-23.491-0.077-16.145,19.151-22.585c11.009-3.687,22.104-11.257,29.967-19.757
	c17.615-19.043,19.863-45.832,9.996-68.777c1.422,3.308-1.144,0.18,0,0c-8.246,1.294,2.501,21.101,0.479,30.203
	c-3.141,14.141-5.536,24.291-15.535,35.363c-8.259,9.144-27.062,20.292-39.863,18.216c-8.991-1.459-29.884-4.07-32.988-14.785
	c-1.992-6.875-6.334-3.914-6.296-12.473c0.026-6.732-0.071-14.263,1.306-20.893c3.015-14.521,12.994-27.94,22.943-38.478
	c9.899-10.488,22.246-9.557,35.22-6.046c5.559,1.504,21.753,19.097,24.042,18.414c10.107-3.017-9.153-16.911-10.75-17.916
	c-8.608-5.421-20.06-7.472-30.096-7.11c-22.904,0.825-39.087,25.588-45.294,45.686c-5.773,18.695-4.697,41.766,14.164,51.976
	c6.622,3.585,18.159,5.218,17.56,13.415c-0.635,8.702,0.634,17.487,0.955,26.18c0.05,1.361-24.938,18.376-27.692,20.58
	c-4.674,3.742-17.713,20.509-24.147,19.544c-4.568-0.686-4.355,6.145-5.207,10.751C199.096,226.225,204.284,225.924,204.044,225.449
	z"/>
<path d="M196.374,230.923c-4.617,4.775-25.763,1.346-31.966,1.548c-10.801,0.352-22.081,1.195-32.765-0.871
	c-13.404-2.592-36.008-10.653-35.04,10.333c2.127,45.957,0.258,92.835-1.453,138.508c-0.435,11.612-1.684,22.845-3.2,34.646
	c-1.803,14.038-0.232,8.256,8.042,14.258c14.732,10.697,41.15,2.143,57.442,0.325c7.236-0.808,15.083-2.054,22.006,0.628
	c-0.653,2.212,0.112,3.188,2.294,2.925c2.062,0.157,14.117-6.227,16.659-6.578c22.601-3.13,45.72-2.483,68.49-3.36
	c26.873-1.035,53.685-2.056,80.479-4.384c11.024-0.959,50.005-8.819,53.568,4.459c5.995-3.418,4.972-6.627,13.097-6.826
	c10.699-0.261,21.516-0.436,32.22-0.422c6.471,0.006,57.305,1.473,57.561,3.736c8.813-8.761,28.795-2.045,39.931-2.507
	c15.666-0.648,31.354,0.077,46.994,0.979c2.183-8.508-10.146-6.158-7.455-18.989c1.88-8.968,1.058-18.453,1.239-27.556
	c0.452-22.507-2.332-45.432-3.972-67.865c-0.584-7.986,1.593-34.038-3.999-39.762c-5.06-5.18-4.577-13.133-4.832-22.424
	c-0.572-20.887,2.928-41.409,2.146-62.476c-0.189-5.136-49.554-4.03-56.474-2.579c-18.498,3.877-37.044,1.774-56.195,1.528
	c-20.701-0.266-40.243,5.353-60.845,5.216c-12.483-0.083,2.427,32.85-13.993,36.6l-34.494,0.917
	c-14.382,2.555-23.731,3.265-32.762-1.804c-3.809,0.13-8.867-0.93-11.943-0.427c-0.005,0.12-0.003,0.237-0.014,0.358
	c-0.317,3.455-19.867,5.964-22.998,6.253c-2.679,0.248-12.302,1.136-18.511,0.536c-5.724,3.022-11.346,2.925-17.156,0.864
	c-0.845,1.565-2.605-0.206-4.04,0.02c-6.013,0.945-32.794,7.652-39.276,3.146 M502.605,209.427
	c1.513-7.027-0.855-17.871,2.476-24.094c7.211-13.478,43.15-0.539,54.271-3.15c16.217-3.814,5.104,23.833,7.285,34.998
	c-1.278,0.496-2.066,0.716-2.514,0.769c-9.072,2.08-15.932-4.056-25.195-4.036c-7.691,0.018-14.965,1.735-22.713,1.066
	C509.54,214.403,500.128,220.934,502.605,209.427z M568.318,255.611c-17.354-1.002-31.886,3.73-32.616-16.596
	c-0.938-26.009,9.173-19.09,30.95-13.644C567.208,235.453,567.763,245.532,568.318,255.611z M530.759,237.992
	c0.229,2.826,2.655,11.598,0.819,14.109c-5.407,7.398-35.815,2.519-43.422,2.422c-18.352-0.229-36.653-0.541-54.949-2.082
	c-8.187-0.684-7.352-26.871-5.146-31.781c5.604,6.922,43.771,2.962,52.934,2.806c15.047-0.257,29.15-2.685,44.355-1.808
	c-0.147,1.371-0.298,2.743-0.445,4.114C534.218,220.587,530.204,231.072,530.759,237.992z M403.834,188.967
	c7.902-4.116,22.208-3.816,31.022-5.098c20.004-2.909,40.573-0.75,60.671,0.409c-3.378,8.98,5.552,22.804,1.278,29.809
	c-4.184,6.858-28.918,3.604-35.708,3.359c-22.501-0.813-40.771-2.685-62.858,0.09C398.61,211.101,396.833,192.614,403.834,188.967z
	 M330.666,229.278c12.432,1.092,25.66-0.579,38.375,0.332c12.095,0.866,51.949-17.305,52.977-0.618
	c0.896,14.465,6.278,24.318-11.211,24.492c-13.203,0.13-26.389,0.135-39.58,0.724c-13.886,0.619-27.738,0.815-41.449,3.039
	c-8.901,1.44-6.017-9.49-7.815-9.628C323.055,239.432,320.891,228.418,330.666,229.278z M361.036,260.244
	c7.924-0.416,70.959-0.521,70.185,1.861c4.562-14.041,68.652,7.444,72.193-1.713c14.903-0.224,30.238-1.554,45.079-0.343
	c5.447,0.444,15.01-1.018,19.778,2.071c6.434,4.17-0.829,3.997,2.445,10.718c4.383,8.989,14.564,75.107,2.803,77.497
	c-30.218,6.127-60.988,8.454-91.722,10.292c-4.276,0.256-27.831,4.69-27.256-3.603c0.784-11.357,7.561-37.51-1.377-45.873
	c-0.192,15.03,6.549,49.751-13.744,49.362c-23.919-0.458-48.063,3.605-71.854,5.908c-42.364,4.102-92.427,20.129-134.891,13.709
	c0.717-12.437-0.404-24.748-2.009-37.104c-1.879-14.467-4.235-17.405,10.466-18.885c33.109-3.325,64.647-10.692,98.075-12.184
	c33.368-1.486,67.175-3.568,100.429-6.711c19.519-1.84,46.771-8.986,63.669,1.086c1.274-10.068,41.274-4.335,51.93-4.087
	c24.838,0.58-8.221-6.313-15.319-6.524c-6.318-0.188-37.664,3.891-37.244-5.188c0.182-3.933,2.299-26.775-3.318-25.433
	c-0.337,15.899,5.725,30.058-12.599,31.201c-16.884,1.055-33.769,2.098-50.648,3.195c-5.674,0.369-37.335,6.443-37.49-1.46
	c-0.179-9.211,3.374-28.159-3.116-35.226c-12.146,6.789,12.771,38.16-8.075,39.754c-17.321,1.324-34.713,3.41-52.089,3.656
	c-11.594,0.164-39.875,7.938-49.89,3.123c-4.167-2.003-2.225-32.201-3.818-37.91c-4.984,8.256-2.185,23.265-1.289,32.348
	c1.219,12.363-18.108,11.315-28.831,13.1c-25.098,4.173-50.466,5.627-75.631,9.876c-1.224-16.952-2.447-33.903-3.67-50.856
	C234.874,271.335,297.642,263.566,361.036,260.244z M171.275,322.409c1.735,8.336-6.424,6.386-12.317,6.729
	c-19.312,1.122-38.654-6.277-57.939-4.411c-0.859-10.729,1.59-21.766,1.759-32.547c0.179-11.354,0.216-11.83,11.762-12.017
	c10.272-0.166,54.932-10.718,54.767,2.586C169.148,295.562,168.654,309.803,171.275,322.409z M133.25,332.936
	c13.694,3.574,28.19,2.745,42.042,0.644c14.581-2.213,28.898-6.485,43.52-8.328c8.142-1.028,7.34,18.567,8.026,23.714
	c0.796,5.975,5.964,25.436,0.695,30.65c-5.804,5.747-31.799,1.833-39.753,1.961c-14.442-0.833-27.591,0.667-41.967,1.849
	c-13.076,1.076-12.499-1.053-13.929-13.771C131.317,364.621,123.914,330.498,133.25,332.936z M223.275,235.35
	c10.055-1.215,16.515-4.165,24.47,1.839c0.178,0.131,0.415,0.315,0.729,0.571c8.936-4.442,15.587-6.628,26.577-6.578
	c10.222,0.047,32.073-9.459,40.712-5.264c7.025,3.411-1.842,23.203,2.474,29.198c2.819,3.925-22,5.471-23.686,5.538
	c-8.087,0.328-72.822,4.252-72.943,2.83C221.163,258.266,217.036,236.102,223.275,235.35z M125.763,245.629
	c-0.414-7.976,13.172-8.012,13.172-6.699c0-0.078,3.948-0.074,5.309-0.052c22.268-0.375,45.189-2.786,66.766-2.341
	c7.91,0.162,4.881,20.46,5.166,25.607c0.444,8.02-15.101,5.896-19.806,6.276c-22.465,1.812-45.337,3.874-67.823,4.524
	C123.271,273.098,125.982,249.833,125.763,245.629z M121.97,233.21c-2.481,4.156-7.575,4.186-11.872,0.428
	C114.328,233.486,117.833,233.36,121.97,233.21z M102.223,239.611c0.407-1.029,15.339,2.517,17.789,3.031
	c4.324,0.907,2.167,24.061,2.283,27.586c0.19,5.815-16.669,3.156-20.331,3.183C102.136,264.417,98.936,247.927,102.223,239.611z
	 M260.373,417.229c-23.049,0.608-45.999,1.469-68.934,3.956c-17.807,1.931,1.098-30.088-9.13-33.379
	c-4.683,7.536,2.495,33.557-7.578,35.166c-17.941,2.869-42.19,6.018-59.899,3.309c-5.845-0.892-18.342,0.372-17.302-8.688
	c1.145-9.961,3.448-19.376,5.22-29.2c3.218-17.843-5.021-35.177-0.403-52.959c9.245-1.659,17.723-6.812,23.107,1.873
	c-1.961,9.988,0.065,20.103,1.206,30.146c2.659,23.388-4.434,9.792-21.148,14.942c-0.055,17.035,120.292-6.021,121.417,8.045
	c6.206-3.326,50.294-13.831,52.75-6.061c2.506,7.932,1.443,18.856,2.16,27.171C282.607,420.403,265.308,417.098,260.373,417.229z
	 M575.528,403.535c-3.613,12.198-24.865,7.417-34.949,7.679c-12.412,0.323-35.106,6.351-35.257-10.019
	c-0.058-6.167,3.883-29.901-2.894-32.02c-3.432,11.685-1.33,28.68-2.075,41.6c-11.447,4.009-30.625,2.272-42.744,0.85
	c-17.312-2.032-34.837-0.036-52.232-1.04c-1.352-4.276-0.388-38.121-2.504-36.876c-7.839,4.608,4.598,33.152-5.086,37.069
	c-12.53,5.065-33.836,1.301-47.359,1.97c-15.838,0.785-31.651,2.716-47.508,3.04c-13.644,0.279-16.415,2.962-17.499-11.819
	c-0.527-7.177-6.107-20.444,2.868-22.198c12.618-2.464,25.647-3.912,38.449-5.316c13.249-1.453,71.537-15.133,78.043-2.252
	c-1.542-3.052,0.346-0.244,0,0c4.29-3.03,0.213-5.398,7.441-6.816c8.795-1.721,17.779-2.065,26.716-1.899
	c18.81,0.348,37.37,1.205,56.194,0.359c14.727-0.664,29.43-2.947,44.339-4.508c6.312-0.66,32.78-9.702,37.526-4.802
	C583.66,363.411,577.972,395.28,575.528,403.535z"/>
<path d="M232.677,380.134C233.66,380.282,232.867,376.833,232.677,380.134L232.677,380.134z"/>
<path d="M101.019,324.728C102.31,324.603,100.911,323.383,101.019,324.728L101.019,324.728z"/>
<path d="M564.124,217.949c0.819-0.188,1.655-0.436,2.514-0.769C566.315,215.531,562.293,218.167,564.124,217.949z"/>
<path d="M321.961,247.618C322.037,247.624,322.471,243.805,321.961,247.618L321.961,247.618z"/>
<path d="M289.582,205.305C288.19,205.946,290.76,205.833,289.582,205.305L289.582,205.305z"/>
<path d="M144.244,238.878c-1.773,0.03-3.544,0.052-5.309,0.052C144.75,238.925,145.348,238.896,144.244,238.878z"/>
<path d="M566.652,225.373C559.835,223.668,567.182,234.982,566.652,225.373L566.652,225.373z"/>
<path d="M138.936,238.93c1.764,0,3.535-0.021,5.309-0.052C142.884,238.855,138.936,238.852,138.936,238.93z"/>
<path d="M102.347,335.434C100.19,343.738,108.846,334.267,102.347,335.434L102.347,335.434z"/>
<path d="M248.474,237.76c-0.245-0.199-0.487-0.388-0.729-0.571C246.544,236.306,248.126,237.933,248.474,237.76z"/>
<path d="M101.963,273.41C108.315,273.365,102.118,265.352,101.963,273.41L101.963,273.41z"/>
<path d="M398.239,217.536C404.774,216.715,398.619,210.962,398.239,217.536L398.239,217.536z"/>
<path fill="#FFFFFF" d="M232.677,380.134c0.582-10.096-8.603-54.848,1.951-55.469c32.701-1.923,63.956-13.146,97.007-12.583
	c33.029,0.565,66.7-4.426,99.691-6.246c21.788-1.2,53.054-10.779,71.979,0.5c1.261-9.957,33.435-4.52,43.364-4.287
	c19.832,0.463,23.595-4.345,1.407-5.925c-8.704-0.62-38.392,4.194-44.545-1.92c-3.625-3.603,3.04-30.825-4.181-29.101
	c-0.105,5.01,2.992,30.226-4.155,30.674c-16.886,1.061-33.77,2.098-50.651,3.179c-7.871,0.505-39.173,7.367-44.854,2.124
	c-8.21-7.574,4.103-29.235-4.191-38.264c-4.226,2.361-0.716,33.469-0.646,39.185c-17.146,1.315-34.32,3.142-51.494,3.996
	c-18.062,0.898-35.847,1.386-53.844,3.494c-9.234,1.081-5.752-30.394-7.889-38.052c-4.113,6.812-2.361,18.01-1.878,25.552
	c0.394,4.649,0.807,9.301,1.24,13.948c-6.948,1.497-13.857,3.18-20.854,4.444c-27.928,5.048-56.226,6.645-84.258,11.377
	c-1.224-16.952-2.447-33.903-3.67-50.856c59.692-4.353,119.355-10.538,179.655-15.07c16.695-1.256,33.422-1.219,50.152-1.359
	c6.46-0.054,12.771-0.584,19.198-0.949c4.729-0.268,3.215,4.998,7.242,5.414c3.509,0.36,4.761-5.397,9.603-5.246
	c7.312,0.228,14.612,0.65,21.92,0.943c8.365,0.338,16.722,0.321,25.091,0.299c1.189-0.002,15.176,3.481,16.415,3.217
	c10.813-2.309,25.663-3.941,38.646-3.603c8.379,0.22,16.689,1.581,25.085,1.394c7.567-0.172,4.264,4.255,4.146,7.43
	c-0.47,12.695,5.939,29.879,7.06,43.29c0.565,6.763,6.189,32.293,0.156,37.101c-8.398,6.692-30.08,6.459-40.427,7.489
	c-15.57,1.55-31.147,2.978-46.769,3.922c-4.935,0.3-32.136,5.004-34.396-0.858c-5.143-13.346,10.076-37.03-1.817-48.161
	c-0.192,15.03,6.549,49.751-13.744,49.362c-23.919-0.458-48.063,3.605-71.854,5.908
	C325.202,370.525,275.139,386.554,232.677,380.134C232.867,376.833,233.66,380.282,232.677,380.134z M338.109,314.694
	c-3.718,1.086-0.179,49.185,2.158,53.739C346.986,355.839,344.023,327.47,338.109,314.694
	C337.648,314.829,338.842,316.277,338.109,314.694z M540.91,304.654c-9.529,0.51-6.114,44.073-2.45,49.729
	C544.384,345.65,540.254,316.026,540.91,304.654C537.082,304.857,540.242,316.236,540.91,304.654z"/>
<path fill="#FFFFFF" d="M404.779,374.204c2.806-1.992-0.485-4.849,3.821-6.092c6.782-1.957,14.421-2.388,21.425-2.596
	c19.148-0.569,38.253,1.34,57.434,0.643c14.77-0.536,28.378-2.507,43.192-3.941c6.956-0.675,41.44-10.748,46.348-5.683
	c5.445,5.621,1.413,31.665,0.256,38.986c-2.935,18.56-11.32,14.896-28.327,15.444c-5.91,0.191-43.715,4.396-43.595-4.201
	c0.095-6.8,3.951-35.445-2.903-37.589c-3.001,10.221-1.162,25.446-1.799,36.708c-0.626,11.069-33.47,6.862-43.021,5.74
	c-15.99-1.878-32.492-0.812-48.587-0.839C400.667,410.776,405.328,380.69,404.779,374.204z"/>
<path fill="#FFFFFF" d="M102.347,335.434c9.245-1.659,17.723-6.812,23.107,1.873c-1.961,9.988,0.065,20.103,1.206,30.146
	c2.659,23.388-4.434,9.792-21.148,14.942c-0.055,17.035,120.292-6.021,121.417,8.046c12.918-6.927,35.391-10.041,50.932-7.6
	c4.18,0.656,3.049,18.261,3.307,21.174c1.088,12.252,0.377,12.638-12.132,12.981c-23.042,0.636-46.082,1.054-69.039,3.304
	c-6.082,0.595-15.582,4.329-15.833-4.622c-0.13-4.682,2.641-26.425-1.855-27.872c-5.166,8.312,2.557,29.009-4.403,34.085
	c-10.164,7.41-51.091,6.223-63.074,4.39c-20.577-3.138-19.469-10.362-13.738-30.722C106.87,375.036,97.1,355.642,102.347,335.434
	C108.846,334.267,100.19,343.738,102.347,335.434z"/>
<path fill="#FFFFFF" d="M187.778,381.575c-10.678-0.615-53.642,8.017-54.97-3.722c-1.55-13.671-3.069-27.347-4.548-41.025
	c-0.622-5.747,33.221-1.627,39.043-2.225c13.406-1.375,26.51-4.623,39.734-7.089c16.488-3.069,16.431-1.794,18.857,14.774
	c1.607,10.976,3.402,22.15,3.092,33.277C228.705,385.799,194.961,381.461,187.778,381.575
	C182,381.242,199.441,381.389,187.778,381.575z"/>
<path fill="#FFFFFF" d="M404.856,374.136c-4.191-2.598-3.751,30.37-5.01,34.345c-2.176,6.879-34.659,3.661-40.911,3.897
	c-16.562,0.629-33.058,2.146-49.596,3.172c-14.781,0.921-22.706,4.97-23.919-11.581c-0.527-7.177-6.107-20.444,2.868-22.197
	c12.618-2.465,25.647-3.913,38.449-5.317C340.683,374.924,397.479,361.24,404.856,374.136z"/>
<path fill="#FFFFFF" d="M101.019,324.728c-0.535-6.676-1.004-44.278,6.113-44.432c7.954-0.168,58.151-8.181,61.006-2.911
	c3.488,6.438,7.076,51.333-1.829,51.431C144.8,329.045,122.309,322.666,101.019,324.728
	C100.911,323.383,102.31,324.603,101.019,324.728z"/>
<path fill="#FFFFFF" d="M525.35,221.657c-0.147,1.371-0.298,2.743-0.445,4.114c9.313-5.184,5.301,5.301,5.854,12.221
	c0.229,2.826,2.655,11.598,0.819,14.109c-5.407,7.398-35.815,2.519-43.422,2.422c-18.352-0.229-36.653-0.541-54.949-2.082
	c-8.187-0.684-7.352-26.871-5.146-31.781c6.289,7.77,34.484,0.83,43.963,2.088C489.32,225.043,507.632,220.635,525.35,221.657
	C525.153,223.46,521.635,221.443,525.35,221.657z"/>
<path fill="#FFFFFF" d="M398.239,217.536c1.458-25.264,2.362-28.113,27.5-32.237c23.368-3.834,46.253-2.379,69.788-1.021
	c-3.378,8.98,5.552,22.804,1.278,29.809c-4.184,6.858-28.918,3.604-35.708,3.359C438.598,216.633,420.326,214.761,398.239,217.536"
	/>
<path fill="#FFFFFF" d="M248.474,237.76c7.084-3.522,10.176-3.944,18.142-5.734c14.089-3.168,30.724-4.296,45.337-6.442
	c8.337-1.224,6.585,13.284,5.639,18.305c-2.759,14.715,2.857,14.51-15.958,16.277c-12.503,1.175-25.108,0.631-37.644,1.051
	c-8.748,0.293-34.307,8.348-41.348,4.458c-2.865-1.581-3.347-27.493-1.826-29.301C226.493,229.625,243.072,233.36,248.474,237.76
	C248.074,237.958,246.044,235.781,248.474,237.76z"/>
<path fill="#FFFFFF" d="M138.936,238.93c21.747-0.019,44.178-2.455,65.332-2.784c14.185-0.221,11.107,7.73,11.582,19.281
	c0.6,14.62-6.405,11.941-19.479,12.995c-20.624,1.661-41.619,3.587-62.224,4.372c-12.889,0.49-7.822-8.297-8.075-19.167
	c-1.054-4.544-0.64-8.896,1.244-13.059C128.18,239.516,138.935,235.334,138.936,238.93
	C151.912,238.919,138.936,238.787,138.936,238.93z"/>
<path fill="#FFFFFF" d="M321.961,247.618c0.396-2.968,0.89-18.494,4.283-18.641c11.562-0.5,22.931-0.917,34.539-0.004
	c5.873,0.462,61.017-9.363,61.281-4.728c0.304,5.327,4.071,24.007,0.461,27.923c-5.522,5.986-34.715,1.298-42.838,1.661
	c-14.104,0.635-28.211,1.235-42.312,1.993c-3.197,0.171-11.641,4.062-14.255-0.651C323.205,255.32,321.247,247.562,321.961,247.618
	C322.471,243.805,322.037,247.624,321.961,247.618z"/>
<path fill="#FFFFFF" d="M566.638,217.181c-10.369,4.015-17.607-3.29-27.709-3.267c-7.691,0.018-14.965,1.735-22.713,1.066
	c-6.676-0.576-16.088,5.955-13.609-5.553c1.513-7.027-0.855-17.871,2.476-24.094c7.211-13.478,43.15-0.539,54.271-3.15
	C575.568,178.369,564.455,206.016,566.638,217.181C560.105,219.71,566.237,215.129,566.638,217.181z"/>
<path fill="#FFFFFF" d="M566.652,225.373c0.556,10.08,1.109,20.159,1.666,30.238c-17.354-1.002-31.886,3.73-32.616-16.596
	C534.765,213.007,544.875,219.927,566.652,225.373C567.182,234.982,559.835,223.668,566.652,225.373z"/>
<path fill="#FFFFFF" d="M289.582,205.305c7.878,3.529,9.224,3.469,15.907,11.071c5.888,6.695-11.066,6.605-14.373,7.523
	c-3.422,0.95-27.963,4.129-30.274,2.205c-2.668-2.223-4.498-31.292-4.102-35.543C268.312,192.589,277.203,211.001,289.582,205.305
	C290.76,205.833,288.19,205.946,289.582,205.305z"/>
<path fill="#FFFFFF" d="M101.963,273.41c0.205-10.68-0.035-21.241-0.181-31.899c-0.077-5.842,10.181,0.148,13.575,0.484
	c10.405,1.032,6.574,11.528,6.735,19.993C122.386,277.538,115.735,273.312,101.963,273.41
	C102.118,265.352,108.315,273.365,101.963,273.41z"/>
<path fill="#FFFFFF" d="M121.97,233.21c-2.481,4.156-7.575,4.186-11.872,0.428C114.328,233.486,117.833,233.36,121.97,233.21z"/>
<path d="M338.109,314.694c5.915,12.774,8.877,41.145,2.158,53.739C337.931,363.879,334.392,315.78,338.109,314.694
	C338.842,316.277,337.648,314.829,338.109,314.694z"/>
<path d="M540.91,304.654c-0.656,11.372,3.474,40.996-2.45,49.729C534.796,348.729,531.381,305.164,540.91,304.654
	C540.242,316.236,537.082,304.857,540.91,304.654z"/>
</svg>
