<?xml version="1.0" encoding="utf-8"?>
<!-- Generator: Adobe Illustrator 16.0.4, SVG Export Plug-In . SVG Version: 6.00 Build 0)  -->
<!DOCTYPE svg PUBLIC "-//W3C//DTD SVG 1.1//EN" "http://www.w3.org/Graphics/SVG/1.1/DTD/svg11.dtd">
<svg version="1.1" id="Layer_1" xmlns="http://www.w3.org/2000/svg" xmlns:xlink="http://www.w3.org/1999/xlink" x="0px" y="0px"
	 width="831.045px" height="456.059px" viewBox="28.045 0 831.045 456.059" enable-background="new 28.045 0 831.045 456.059"
	 xml:space="preserve">
<path d="M514.317,88.257c-2.164,1.235-4.326,2.47-6.49,3.706c8.83,0.509-1.141,12.851-2.889,15.957
	c-4.988,8.859-6.865,11.614-15.23,16.107c-2.836-10.174-18.375-13.056-27.154-13.987c-15.645-1.66-26.604,6.253-40.413,11.817
	c0.055-6.417,7.188-6.796,10.102-11.299c-15.454,2.858-17.053,17.045-26.005,25.501c-0.808-1.903-1.614-3.806-2.42-5.708
	c-3.558,10.156-7.454,20.24-9.726,30.788c-1.029,4.782-2.755,10.013-1.277,14.908c1.411,4.673,3.542,6.168,2.315,11.354
	c2.688,1.221,4.947-3.994,7.045-2.119c-1.384,2.029-2.769,4.058-4.153,6.086c8.459,5.452,30.12-12.249,35.102-1.282
	c3.914,8.615,4.24,22.682,2.164,31.865c-1.861-2.132-3.465-4.443-4.811-6.934c-1.708,6.865-14.909,7.114-20.253,8.608
	c-11.376,3.18-4.574,11.27,4.434,11.148c9.329-0.125,20.66-5.735,21.835,7.067c0.691,7.547,2.707,16.275-6.65,17.371
	c-6.982,0.815-15.864-0.778-22.034,3.332c-8.999,5.994,0.458,25.441,3.695,32.453c6.842,14.818,19.34,25.762,36.262,25.883
	c3.912,0.027,46.361-6.559,46.213-3.502c-0.334,6.861-39.818,1.281-39.338,8.01c14.816,0,29.484-2.309,44.076-2.453
	c9.547-0.096,6.059,19.777,6.627,26.996c0.85,10.775-1.617,19.547-13.963,20.191c-19,0.992-40.855-0.781-58.744-7.473
	c-16.029-5.996-31-15.516-42.789-27.945c-5.804-6.119-11.679-12.992-15.332-20.66c-1.247-2.617-1.27-5.682-2.405-8.355
	c-1.79-4.219-6.205-6.539-7.989-11.184c-3.685-9.59-0.37-24.907-5.627-33.102c-5.261-8.199-23.878,15.133-25.813-1.229
	c-0.865-7.31-3.958-26.344,5.953-27.707c5.269-0.723,12.424,0.824,17.051-2.457c9.036-6.408-10.187-10.944-13.654-10.782
	c-18.385,0.858-12.667-17.706-12.847-29.659c-0.1-6.613,8.134-6.418,12.98-7.451c7.486-1.596,5.334-21.72,6.023-29.155
	c3.527-38.057,20.033-63.515,54.65-80.404c31.444-15.341,72.272-14.627,101.028,6.977C507.495,82.265,510.956,85.209,514.317,88.257
	c-1.109,0.684-1.896,0.512-2.357-0.516C512.588,86.761,513.374,86.933,514.317,88.257C512.153,89.492,510.958,85.211,514.317,88.257
	z M424.413,213.332c1.188-14.259-0.101-17.402-15.712-16.318c-10.47,0.728-19.059,6.979-23.983-4.998
	c-5.454-13.263-2.251-32.681,1.628-46.041c4.207-14.483,14.78-25.3,26.679-33.914c13.542-9.804,27.028-10.197,43.211-8.703
	c10.461,0.966,29.98,12.161,37.205,2.751c8.918-11.618,12.17-16.603-0.494-26.704c-12.633-10.076-27.643-10.234-43.074-11.184
	c-26.368-1.622-56.006,9.504-73.067,30.373c-10.505,12.85-18.105,29.675-20.117,46.172c-0.932,7.642-0.621,15.414,0.981,22.947
	c1.414,6.646,8.606,16.446,7.824,22.897c-0.802,6.612-16.904,1.622-20.685,1.243c-12.597-1.262-11.318,19.586,0.607,17.407
	c17.332-3.168,19.163,0.375,21.447,16.879c2.621,18.936-13.202,13.996-27.342,13.996c1.708,11.503,5.65,11.447,16.281,10.857
	c3.52-0.195,8.521-2.218,11.796-0.105c2.545,1.641,3.021,16.369,4.251,19.958c4.361,12.729,5.585,26.317,10.257,38.942
	c5.676,15.336,17.514,25.537,31.679,33.047c13.492,7.152,28.327,11.598,43.284,14.445c8.654,1.648,24.953,7.057,33.568,3.498
	c5.846-2.416,8.268-25.393,2.537-28.023c-3.762-1.729-9.443,0.289-13.182,1.176c-6.871,1.633-14.152,1.762-21.188,1.488
	c-25.404-0.986-53.165-15.723-63.473-40.104c-3.98-9.415-5.133-20.508-5.415-30.631c-0.351-12.618,2.189-18.05,15.424-17.886
	c5.18,0.062,10.327,0.658,15.5,0.834c3.512,0.121,9.685-5.391,4.065-7.549c-10.015-3.847-31.297,5.955-35.087-8.742
	c-1.712-6.637-3.202-21.553,5.762-23.398C405.184,205.965,415.194,211.514,424.413,213.332c0.258-3.092-4.743-1.583-4.728-1.562
	C421.114,212.67,422.689,213.191,424.413,213.332C424.671,210.233,413.485,211.177,424.413,213.332z M402.364,290.977
	c-2.613,1.77,9.09,16.4,11.224,19.551C416.024,308.868,403.729,293.07,402.364,290.977c-0.372,0.251,1.377,2.537,1.636,2.802
	C403.72,292.725,403.174,291.792,402.364,290.977C399.75,292.747,406.458,297.254,402.364,290.977z M452.375,364.368
	c0.271-0.77,0.543-1.535,0.816-2.305c-3.713-1.064-7.428-2.127-11.141-3.191c-1.102,3.43,11.096,5.406,9.648,4.848
	C450.303,363.405,450.53,363.622,452.375,364.368C452.647,363.598,448.79,362.985,452.375,364.368z"/>
<path d="M673.381,199.499c14.594,12.677,32.727,20.369,47.279,33.115c13.768,12.057,23.699,27.422,30.646,44.258
	c10.258,24.858,8.885,57.404-14.336,74.635c-13.539,10.047-31.059,11.275-47.178,13.773c-20.123,3.119-39.676,1.83-58.688-5.77
	c-16.02-6.402-26.803-17.66-31.029-34.619c-1.826-7.324,1.127-9.879,7.438-13.32c2.098-1.146,14.49-8.719,16.068-6.404
	c3.557,5.215,3.363,10.25,8.742,15.17c6.299,5.762,13.555,9.83,22.02,11.172c16.803,2.664,36.936,1.512,51.818-7.482
	c35.785-21.619,3.07-58.986-17.527-76.496c-24.318-20.676-60.215-41.91-66.893-75.875c-6.479-32.946,28.098-68.968,56.947-79.541
	c19.43-7.121,41.498-4.134,60.553,2.715c12.207,4.388,44.74,17.546,45.412,33.46c-6.469-3.475-10.068-10.35-15.898-14.629
	c-7.787-5.717-16.795-9.522-25.809-12.839c-18.152-6.68-38.713-11.567-58.023-7.503c-29.768,6.266-65.092,45.853-61.664,77.309
	c3.814,34.988,47.91,59.209,72.5,78.942c24.41,19.59,46.254,59.65,9.699,79.65c-12.43,6.803-28.961,7.988-42.865,7.303
	c-6.855-0.34-14.27-1.363-20.215-5.057c-7.291-4.529-15.146-16.578-23.031-18.607c-5.848-1.508-12.887,1.688-16.123,6.652
	c-2.291,3.518,2.785,11.641,4.316,14.639c8.74,17.098,23.965,21.053,41.547,25.711c27.6,7.311,64.865,3.402,88.393-14.277
	c26.609-19.996,19.695-57.722,4.193-82.597c-15.184-24.366-37.602-36.735-61.016-51.61c-23.902-15.184-39.195-36.522-24.277-64.308
	c14.809-27.58,43.633-35.123,72.521-27.55c6.896,1.808,13.561,3.514,18.551,8.935c3.916,4.253,6.641,11.154,11.627,14.241
	c7.723,4.783,15.744-11.115,21.623-13.888c0.477,8.223-11.672,13.676-16.777,18.225c-5.576,4.971-12.078-7.573-14.145-11.017
	c-9.371-15.62-28.074-19.096-45.277-17.629c-20.406,1.741-35.855,14.514-45.537,31.957c-12.32,22.199-1.348,35.757,16.139,50.65
	C674.534,200.503,673.911,200.034,673.381,199.499C687.008,211.335,673.124,199.235,673.381,199.499z"/>
<path d="M94.225,336.893c9.304,1.521,17.748,6.152,27.043,7.719c9.547,1.607,19.314,1.717,28.927,0.66
	c22.811-2.506,46.003-2.082,68.65-6.041c12.332-2.156,8.696-14.615,6.782-24.4c-1.257-6.422-35.928,4.033-43.046,4.236
	c-13.347,0.383-27.834-1.176-40.606-5.4c-14.691-4.859-0.867-15.871,4.668-23.629c10.186-14.275,17.559-33.873,20.449-51.072
	c0.845-5.028-0.617-16.217,4.334-19.677c6.034-4.217,23.237-1.786,30.738-2.55c-0.845-16.84-2.911-17.301-19.763-18.236
	c-13.375-0.742-21.764-15.142-23.513-27.163c-3.705-25.469,15.123-56.236,40.94-61.654c17.785-3.732,22.878,4.924,32.523,17.596
	c7.709,10.127,16.545,5.105,17.002-6.032c0.381-9.264-1.345-21.159-8.49-27.778c-10.605-9.825-32.453-8.914-45.938-8.463
	c-26.633,0.891-54.303,12.803-66.305,37.618c-12.241,25.309-9.11,53.833,1.38,78.766c-6.933,2.667-26.274-1.003-28.506,8.826
	c-0.909,4.002-0.901,17.26,5.117,17.379c9.388,0.187,19.432,1.118,28.268-2.681c2.762,22.922-8.724,44.967-20.591,63.711
	c-4.854,7.666-10.026,18.479-16.968,24.414c-9.781,8.365-7.455,13.191-6.53,25.545c-5.56,1.082-5.148-16.303-4.192-19.365
	c2.298-7.361,10.45-12.24,14.771-18.617c9.824-14.498,18.849-30.027,25.797-46.113c2.277-5.273,5.88-12.48,4.815-18.441
	c-1.451-8.122-20.755-5.107-26.056-4.426c-10.446,1.342-8.109-10.891-8.189-18.077c-0.163-14.715,13.329-13.268,24.524-15.894
	c-9.749-25.717-8.289-58.825,5.639-82.77c17.624-30.298,56.123-36.379,88.073-34.117c13.092,0.927,27.926,3.873,33.672,17.291
	c4.055,9.467,6.789,23.464,2.461,33.246c-5.331,12.05-18.784,5.929-23.112-3.025c-7.712-15.955-14.316-17.513-31.387-13.681
	c-24.573,5.517-38.782,36.523-34.806,60.3c1.865,11.149,18.159,21.176,29.021,19.906c3.385-0.396,11.731-3.533,13.828,0.828
	c2.163,4.499,1.946,13.8,1.894,18.684c-0.154,14.299-22.57,7.085-31.389,8.497c-7.154,1.146-9.236,24.552-10.278,29.849
	c-2.818,14.315-8.62,28.183-16.826,40.303c-2.087,3.084-8.711,9.81-4.974,13.791c5.772,6.15,21.839,6.371,29.628,6.93
	c12.331,0.883,26.176,0.412,37.593-4.814c3.414-1.562,17.334-9.957,19.079-3.273c2.299,8.809,5.912,36.215-5.151,38.244
	c-14.28,2.623-28.463,2.621-42.899,3.154c-15.515,0.574-30.86,3.59-46.411,3.518C130.54,350.483,90.182,346.157,94.225,336.893
	C103.429,338.397,93.97,337.477,94.225,336.893z"/>
<path d="M680.299,375.411c0.51,1.488,1.021,2.977,1.531,4.467c0.453-1.98,0.906-3.965,1.359-5.945
	c3.723,0.268,1.76,17.328,1.623,19.82c-0.523,9.576,2.199,10.707,10.531,13.574c-5.014,1.949-10.256,2.852-15.57,3.484
	C679.774,405.827,677.387,375.997,680.299,375.411C680.809,376.899,680.125,375.446,680.299,375.411z"/>
<path d="M694.606,203.818c-3.801-7.945-1.104-66.943,2.418-72.575C696.209,155.692,695.409,179.755,694.606,203.818z"/>
<path d="M695.559,82.632c-0.646-6.312-0.936-12.659-0.838-19.005c0.051-3.241,2.334-13.138,0.48-15.712
	c-3.604-5.003-15.221,1.15-20.182-1.754c3.887-3.253,12.012-3.82,16.797-4.072c7.979-0.42,8.516,3.545,7.111,10.773
	c-1.258,6.474-1.807,11.516-1.406,18.073c0.158,2.624,0.316,5.304,0.035,7.927c-0.143,1.316-2.641,6.467-2.113,1.824
	C695.446,80.691,696.088,82.614,695.559,82.632C694.391,71.253,696.161,82.611,695.559,82.632z"/>
<path d="M675.659,257.059c0.637,6.846,7.656,64.805,0.811,65.096C676.368,319.639,671.5,257.345,675.659,257.059
	c-0.031-0.326,0.916,9.611,0.76,9.623C676.211,266.696,675.243,257.086,675.659,257.059
	C676.362,264.62,675.045,257.101,675.659,257.059z"/>
<path d="M689.674,259.795c0.791,7.377,8.178,63.914-0.344,64.723C687.952,321.036,690.59,259.946,689.674,259.795
	c-0.029-0.274,0.764,9.527,0.947,9.559C689.711,269.206,690.239,259.888,689.674,259.795
	C690.452,267.032,689.313,259.736,689.674,259.795z"/>
<path d="M673.381,199.499c-3.594-3.648,2.035-60.562,4.197-60.469c0,11.574-1.254,23.101-1.406,34.67
	C676.055,182.539,677.549,193.158,673.381,199.499C669.973,196.038,674.137,198.35,673.381,199.499z"/>
<path d="M693.792,366.833c4.697,8.52,12.24,32.662,4.871,41.139C697.667,400.334,689.979,371.967,693.792,366.833
	C697.559,373.667,693.651,367.022,693.792,366.833z"/>
<path d="M675.25,84.94c0-9.501,0.707-19.287-0.375-28.731c-0.6-5.229,3.402-9.638,3.971-2.812
	C679.098,56.436,674.471,84.708,675.25,84.94c-0.119-1.238-0.094-2.467,0.074-3.686C675.356,81.646,675.268,84.945,675.25,84.94
	C675.25,76.357,675.51,85.018,675.25,84.94z"/>
<path fill="none" d="M424.413,213.332c-8.654-1.707-17.02-4.555-25.872-5.27c-11.054-0.892-9.873,6.5-9.895,15.774
	c-0.027,11.145,4.261,16.234,15.309,15.422c3.863-0.283,23.684-3.031,22.593,4.763c-1.092,7.801-19.354,4.224-24.174,3.938
	c-11.238-0.666-12.124,5.215-11.921,15.662c0.208,10.744,0.968,22.217,4.814,32.315c5.585,14.665,21.151,25.599,34.383,33.161
	c14.84,8.484,33.319,7.496,49.688,5.271c9.252-1.258,14.979-2.91,15.658,8.355c0.908,15.043,0.555,20.457-16.531,17.699
	c-17.281-2.789-34.076-5.062-50.536-11.447c-14.979-5.811-30.729-13.947-40.111-27.467c-8.087-11.654-11.115-25.807-13.886-39.471
	c-1.446-7.133-2.609-32.283-11.019-31.531c-11.854,1.062-21.246,4.089-23.394-10.375c7.316,0,23.104,4.57,26.699-4.803
	c5.129-13.375-0.145-30.533-16.371-27.718c-4.606,0.799-10.031,3.594-12.56-1.821c-1.373-2.938-3.12-10.523,0.271-12.893
	c5.69-3.976,18.875,1.669,25.783-0.106c5.62-1.445-6.706-26.723-7.305-32.608c-1.865-18.319,5.143-36.3,14.213-51.812
	c15.595-26.671,49.747-40.354,79.59-40.765c13.898-0.191,30.018,1.351,41.258,10.333c4.146,3.313,13.627,10.292,10.164,16.496
	c-2.504,4.489-6.668,12.498-11.014,15.414c-4.787,3.212-14.586-2.834-19.588-3.971c-8.662-1.969-17.842-3.167-26.719-3.588
	c-17.344-0.823-33.147,8.132-44.649,20.839c-11.578,12.792-13.289,25.561-15.027,41.673c-1.107,10.264-3.674,19.756,1.416,29.716
	c4.913,9.614,15.079,1.771,23.378,2.283c3.41,0.211,13.708-0.62,15.69,2.869C427.021,203.668,424.762,209.139,424.413,213.332
	c-1.723-0.141-3.299-0.661-4.728-1.562C419.67,211.748,424.67,210.239,424.413,213.332
	C419.907,212.443,424.708,209.786,424.413,213.332z"/>
<path fill="none" d="M402.364,290.977c1.831,2.807,13.247,18.174,11.224,19.551c-2.629-3.881-5.603-7.513-8.157-11.451
	c-1.504-2.322-6.711-10.695-1.431-5.298C403.741,293.514,401.992,291.228,402.364,290.977
	C404.194,293.784,401.902,291.29,402.364,290.977z"/>
<path fill="none" d="M452.375,364.368c-1.707-0.658-11.312-2.42-10.324-5.496c2.477,0.709,4.951,1.42,7.426,2.127
	c7.877,2.258,1.533,2.105,1.363,2.584C451.514,363.522,452.024,363.784,452.375,364.368
	C449.956,363.434,452.647,363.6,452.375,364.368z"/>
</svg>
