<?xml version="1.0" encoding="utf-8"?>
<!-- Generator: Adobe Illustrator 16.0.4, SVG Export Plug-In . SVG Version: 6.00 Build 0)  -->
<!DOCTYPE svg PUBLIC "-//W3C//DTD SVG 1.1//EN" "http://www.w3.org/Graphics/SVG/1.1/DTD/svg11.dtd">
<svg version="1.1" id="Layer_1" xmlns="http://www.w3.org/2000/svg" xmlns:xlink="http://www.w3.org/1999/xlink" x="0px" y="0px"
	 width="533.945px" height="337.615px" viewBox="0 0 533.945 337.615" enable-background="new 0 0 533.945 337.615"
	 xml:space="preserve">
<path d="M123.887,165.065c2.177-0.846,4.375-1.649,6.539-2.528c2.451-0.996,4.69,0.095,7.142-0.611
	c3.791-1.092,4.985-5.415,6.885-8.382c1.816-2.836,5.398-11.049,8.468-12.351c3.102-1.315,7.222,9.771,8.228,11.906
	c2.39-2.982,4.12-5.724,8.381-4.44c3.909,1.178,8.553,4.178,9.363,8.418c0.735,3.848,0.329,8.594-0.698,12.326
	c-1.221,4.437-6.309,10.266-5.263,14.893c1.025,4.536,3.162,8.932,4.344,13.464c0.278,1.065,0.551,2.44,1.675,2.956
	c2.316,1.062,3.586-0.32,1.473,2.879c-2.947,4.463-5.147-0.824-5.841-3.55c-0.93-3.653-0.382-11.366-4.834-12.508
	c0.797,3.063,1.594,6.128,2.391,9.192c-0.972-0.412-1.944-0.823-2.916-1.234c0,2.538,2.007,5.25,2.195,8.031
	c0.256,3.807-0.467,7.578-0.554,11.375c-0.19,8.344,2.759,15.918,4.777,23.875c0.852,3.356,1.626,6.732,2.451,10.098
	c0.835,3.408,1.931,5.191,3.456,8.221c1.309,2.602,1.356,6.396,1.729,9.231c0.527,4.005,0.701,5.489-1.797,8.469
	c-3.175-5.598-2.964-12.721-4.583-18.905c-0.889-3.397-2.977-6.602-3.388-10.078c-0.412-3.481-0.621-6.724-1.862-10.057
	c-1.799-4.833-4.098,3.076-4.511,4.307c-1.413,4.201-2.805,8.407-4.135,12.635c-1.859,5.908-1.175,13.941-9.153,14.548
	c4.148-11.812,8.882-23.634,11.683-35.856c1.56-6.81,1.808-13.455,1.864-20.404c0.051-6.25,0.62-12.536-0.083-18.752
	c-5.382,6.435-3.462,21.502-11.66,24.65c-0.263-6.708,3.928-14.38,6.188-20.682c0.767-2.139,3.155-4.998,3.123-7.278
	c-0.033-2.304-3.646-4.578-4.598-6.739c-2.727-6.195-1.098-14.206-0.723-20.733c0.357-6.224-1.738-13.196-6.289-17.752
	c-3.4,6.291-6.8,12.581-10.201,18.872c-2.303,4.259,3.479,12.187,3.305,17.502c-0.198,6.025-3.988,8.675-8.132,12.281
	c-5.183,4.513-5.421,10.765-6.8,17.094c-0.777,3.57-1.404,5.373,1.122,8.199c2.244,2.513,4.537,4.707,7.35,6.574
	c4.337,2.881,12.211,5.424,15.32,9.65c1.589,2.161-1.022,3.76-2.955,3.641c-2.894-0.179-5.945-3.102-8.271-4.617
	c-5.406-3.522-10.526-7.308-15.655-11.217c-1.428,12.082-2.587,22.354,1.587,34.127c4.333,12.223,10.109,23.854,14.475,36.1
	c0.488,1.369,5.989,12.845,1.815,11.709c-3.623-0.984-5.214-10.014-6.503-13.26c-4.496-11.318-8.544-23.188-14.332-33.916
	c-6.004,11.49-8.951,25.342-13.029,37.653c-1.085,3.277-2.161,6.558-3.271,9.826c-0.766,2.256-1.484,6.85-3.365,8.413
	c-3.442,2.861-2.426-0.658-1.736-3.161c1.038-3.767,2.058-7.54,3.285-11.25c4.459-13.485,10.271-26.953,13.515-40.789
	c1.576-6.723,1.491-13.448,1.863-20.287c0.372-6.836,2.642-13.434,1.265-20.186c-3.91,1.778-6.792,4.415-10.066,7.216
	c-3.216,2.75-9.992,6.479-11.67,10.411c-1.003,2.351,2.569,7.329,3.568,9.491c1.407,3.053,4.565,4.074,3.909,8.099
	c-0.77,4.728-4.093,3.26-5.512-0.283c-1.111-2.772-3.097-12.157-5.831-12.997c-2.276,4.285-4.586,8.525-6.623,12.934
	c-2.014,4.358-2.954,8.818-7.471,10.678c-0.68-5.93,3.722-11.982,6.282-17.297c1.317-2.733,2.622-4.508,2.222-7.469
	c-0.262-1.933,0.581-3.506,2.041-4.709c3.907-3.224,7.852-6.401,11.75-9.672c2.162-1.812,4.285-3.682,6.479-5.455
	c2.456-1.987,0.8-3.291-0.239-5.533c-1.175-2.535-1.913-5.256-3.102-7.808c-1.106-2.374-1.624-6.19-3.307-8.12
	c-2.611-2.994-4.343,13.153-4.526,14.719c-0.403,3.436-0.802,6.871-1.243,10.302c-0.242,1.013-0.59,1.985-1.046,2.922
	c-2.353-0.394-1.234-2.372-1.127-4.388c0.374-7.049,0.749-14.098,1.123-21.146c-2.037,0.588-4.914,2.051-3.013-1.242
	c1.241-2.148,2.481-4.299,3.722-6.447c-12.802-3.846-7.293-27.126,4.326-29.048c6.536-1.082,8.686,9.11,9.454,13.691
	c1.201,7.167-3.66,11.268-9.571,14.15c2.732,3.248,5.615,6.115,7.408,10.033c1.298,2.838,1.796,9.752,4.351,11.506
	c2.754,1.892,6.407-0.7,8.733-2.285c1.795-1.225,3.014-2.635,3.323-4.838c0.129-0.918,0.803-4.935-0.086-5.33
	c-2.951-1.313-5.144-0.17-7.286-3.363c-2.204-3.285-5.234-5.182-5.837-9.383C113.963,177.823,119.777,171.128,123.887,165.065z
	 M104.813,184.803c5.944-2.129,8.05-9.047,4.747-14.306c-0.501,1.182-1.002,2.363-1.503,3.546c-1.249-2.315-1.303-8.918-5.347-7.922
	c-5.111,1.259-5.646,6.228-5.144,10.505c0.291,2.473-0.617,7.148,0.9,9.32C99.635,187.618,103.796,185.201,104.813,184.803z
	 M175.982,161.397c1.546-4.66-5.321-5.947-5.606-10.164c-0.095-1.446-5.352,1.211-5.83,1.867c-0.819,1.123-1.124,2.534-1.057,3.903
	c0.107,2.195-1.826,4.083-1.686,6.226c0.21,3.227-0.373,23.668,5.854,19.366c2.506-1.732,4.186-6.515,5.564-9.175
	C175.145,169.707,175.772,165.529,175.982,161.397C177.553,156.663,175.718,166.61,175.982,161.397z M132.044,184.658
	c3.185-0.851,5.416-1.552,7.148-4.624c1.187-2.105,2.308-6.188-0.79-7.342c-1.871-0.698-5.78-0.756-7.371,0.512
	C127.836,175.748,131.147,181.778,132.044,184.658C133.712,184.213,131.303,182.276,132.044,184.658z"/>
<path d="M479.958,305.767C477.896,306.847,479.958,305.19,479.958,305.767c-4.371,2.289-6.201-7.199-7.912-9.906
	c-2.844-4.506-6.838-8.428-8.383-13.62c-1.504-5.048-4.178-8.341-6.646-12.882c-2.449-4.512-4.5-9.252-8.15-12.972
	c-2.967,11.464-4.115,23.249-7.43,34.638c-1.678,5.765-3.471,11.481-4.898,17.315c-0.836,3.413-1.115,9.924-6.135,8.959
	c1.602-9.701,6.066-18.894,8.498-28.438c2.684-10.525,4.725-22.207,5.684-33.022c0.494-5.58,0.494-11.188,0.367-16.785
	c-0.092-4.058,1.27-11.022-0.504-14.694c-1.562-3.229-2.363,0.713-3.072,2.365c-1.039,2.416-2.074,4.83-3.145,7.23
	c-1.934,4.331-3.291,8.111-7.418,10.523c-1.104-5.49,2.967-9.849,5.059-14.783c0.975-2.299,3.033-3.598,3.996-5.594
	c0.822-1.701,0.924-4.611,0.637-6.502c-5.725-1.628-10.609-1.928-15.227-6.119c-3.029-2.75-9.223-6.44-7.006-11.121
	c7.076,5.433,12.047,11.992,21.32,13.277c3.879,0.537,5.078,0.262,5.012-3.859c-0.146-8.98-7.984-7.918-11.193-14.812
	c-1.371-2.95-4.51-4.629-6.074-7.498c-7.449-13.651,9.668-42.091,26.234-33.159c4.277,2.307,9.773,10.558,9.201,15.634
	c-0.695,6.166-3.721,11.507-6.426,16.943c-2.262,4.549-3.381,12.124-8.326,14.617c-2.824,1.422-2.094,13.93-1.43,16.545
	c1.904,7.508,1.795,15.284,2.037,22.969c0.098,3.146,0.025,6.553,0.707,9.639c0.41,1.857,3.857,3.828,5.043,5.459
	c3.379,4.641,4.801,10.31,7.43,15.348c3.152,6.038,6.963,11.781,10.705,17.464C475.902,294.067,479.958,299.334,479.958,305.767z
	 M443.605,176.461C443.207,173.319,447.105,174.61,443.605,176.461c-0.379-2.981-0.439-15.458-6.414-13.42
	c-2.896,0.988-3.215,3.571-4.08,6.07c-1.131,3.267-3.117,5.458-3.439,9.121c-0.543,6.146,5.006,16.963,11.484,18.136
	c7.383,1.332,10.281-8.226,13.359-13.017c3.748-5.836,6.871-17.394,0.633-22.666c-2.598-2.194-15.822-5.409-12.564,0.533
	C444.384,164.5,448.646,173.797,443.605,176.461z"/>
<path d="M432.697,120.933C433.146,121.173,433.988,113,432.697,120.933L432.697,120.933z"/>
<path d="M447.695,135.312c0.729,0.119,1.098,0.162-0.848-0.196C445.816,134.973,446.867,135.168,447.695,135.312z"/>
<path d="M447.695,135.312c-0.828-0.144-1.879-0.339-0.848-0.196C445.443,134.921,446.824,135.17,447.695,135.312z"/>
<path fill="#FFF200" d="M448.701,100.838c-0.117,0.034-0.215,0.076-0.338,0.107c0-9.084,2.078-47.906-14.959-43.925
	c-6.76,1.58-5.541,10.642-3.471,15.368c1.584,3.61,4.352,6.572,6.342,9.948c2.668,4.527,2.863,9.444,4.219,14.386
	c5.186-14.203-10.328-20.13-8.799-32.59c0.617-5.021,6.646-4.938,9.359-1.312c2.486,3.327,2.16,11.376,2.98,15.355
	c1.492,7.218,1.568,14.166,1.494,21.494c-0.014,1.114-0.578,1.764-1.434,2.162C445.904,102.499,447.335,101.963,448.701,100.838z"/>
<path fill="#FFF200" d="M429.126,39.347c-9.965,4.861-22.398,15.89-21.68,28.012c0.678,11.449,12.854,16.354,19.441,24.095
	c1.918,2.254,1.584,4.404,2.494,6.968c0.988,2.786,3.062,0.139,2.484-1.827c-1.432-4.884-4.102-9.321-7.947-12.655
	c-7.193-6.237-16.217-12.414-11.811-23.369c2.979-7.403,15.525-18.357,23.623-19.009c7.742-0.623,16.453,2.795,22.311,7.743
	c8.611,7.274,5.361,15.29,0.982,24.092c-2.643,5.308-6.48,9.925-7.168,16.044c-0.398,3.538,1.311,7.428-0.529,9.779
	c1.932,0.345,3.863-0.375,5.797-0.838c-0.066-0.115-0.141-0.23-0.211-0.346c-0.113,0-0.227,0-0.338,0c0.111,0,0.225,0,0.338,0
	c-0.064-0.101-0.119-0.203-0.188-0.304c-5.559-8.269,5.119-22.676,8.852-30.418C474.937,47.898,445.335,31.439,429.126,39.347z"/>
<path d="M451.328,99.221c-0.535,0.683-1.354,1.242-2.627,1.617c-1.365,1.125-2.797,1.661-4.604,0.993
	c-2.244,1.043-6.531,0.288-8.439,1.189c-6.141,2.9-2.129,12.801-2.961,17.913c1.291-7.933,0.449,0.24,0,0
	c1.732,0.923,2.404-1.876,4.215-3.605c2.6-2.483,11.102-1.08,14.596-1.537c5.4-0.707,7.172,4.337,1.424,5.453
	c-4.512,0.876-9.047,2.153-13.609,1.038c-9.26-2.263-7.67,13.559,0.322,15.738c8.938,2.437,24.123-0.927,22.066-12.826
	c-0.477-2.76-0.465-5.769-1.232-8.465c-0.619-2.169-2.717-3.684-2.574-6.054c0.256-4.293,1.443-8.385-0.777-12.293
	C455.193,98.846,453.259,99.565,451.328,99.221z M446.849,135.116c1.943,0.358,1.574,0.314,0.846,0.196
	c0.338,0.058,0.639,0.108,0.742,0.123c-3.586-0.498-10.93-0.227-12.086-4.752c-1.752-6.849,6.035-3.785,9.482-4.24
	c3.461-0.457,7.629-1.967,11.07-0.71C462.388,127.736,450.552,135.798,446.849,135.116z M454.82,102.999
	c-0.016,0.166-0.041,0.316-0.074,0.456c-0.74,4.473-0.873,8.646-6.391,9.402c-3.83,0.525-8.428,1.365-12.137-0.167
	c-4.465-1.844-3.459-6.396,0.881-7.196c5.527-1.02,10.85-0.921,16.393-2.184C453.791,103.125,454.226,103.018,454.82,102.999z"/>
<path d="M453.765,104.574c0.502-0.113,0.83-0.486,0.98-1.119c0.023-0.152,0.049-0.304,0.074-0.456
	C454.675,103.828,454.236,104.32,453.765,104.574z"/>
<path d="M453.113,104.592c-0.127-0.435-0.086-0.775,0.104-1.032c-1.842,0.877-0.555,1.606,0.549,1.014
	C453.572,104.617,453.355,104.625,453.113,104.592z"/>
<path d="M453.113,104.592c0.244,0.033,0.459,0.025,0.65-0.018c0.473-0.253,0.91-0.746,1.057-1.575
	c-0.693,0.187-1.217,0.377-1.604,0.562C453.027,103.817,452.986,104.157,453.113,104.592z"/>
<path d="M453.216,103.56c0.387-0.185,0.91-0.375,1.605-0.562c-0.445,0.12-0.887,0.21-1.328,0.312
	C453.378,103.381,453.287,103.465,453.216,103.56z"/>
<path d="M68.9,178.58c-7.656-2.026-9.049-10.63-8.625-17.49c0.417-6.741,0.461-17.642,10.666-14.521
	c7.109,2.172,13.258,7.358,12.143,15.414c-0.986,7.121-5.814,13.469-12.434,16.2c4.914,2.534,8.426,6.695,11.72,11.017
	c3.641,4.774,8.076,8.397,12.076,12.795c2.263,2.487-1.248,3.387-3.078,2.815c-2.412-0.752-4.645-3.926-6.249-5.75
	c-3.89-4.43-7.353-9.213-10.833-13.966c-3.166,11.484-2.639,24.101-2.833,36.005c-0.205,12.559,4.098,25.065,8.012,36.945
	c1.705,5.176,6.236,11.882,6.333,17.312c0.032,1.783-2.365,2.517-3.759,2.824c-1.329,0.295-2.403-5.42-2.546-5.935
	c-3.386-12.177-6.145-24.728-10.357-36.646c-3.763,9.287-7.324,18.66-11.342,27.842c-3.995,9.129-5.715,19.236-11.641,27.459
	c-2.507-3.348-0.721-6.161,0.575-9.498c1.734-4.467,3.448-8.941,5.207-13.397c3.774-9.562,7.95-18.843,11.021-28.674
	c2.706-8.663,4.615-16.226,5.052-25.298c0.474-9.865,0.838-19.74,1.563-29.592c1.224,0.869,2.447,1.74,3.67,2.608
	c-0.285-1.167-0.569-2.335-0.854-3.502c-1.514,0.483-4.084,0.339-5.135,1.769c-2.818,3.834-5.432,7.816-7.848,11.914
	c-2.419,4.103-4.641,8.317-6.684,12.619c-1.384,2.914-2.71,5.896-6.306,3.449C53.269,201.322,59.698,188.983,68.9,178.58
	C64.041,177.294,59.428,189.288,68.9,178.58z M75.958,157.16c-0.309,0.151-0.618,0.302-0.927,0.454
	c-1.176-3.329-2.788-6.215-5.46-8.626c-1.108-0.999-4.749,4.183-5.084,4.888c-2.44,5.121-2.65,12.467,0.164,17.49
	c4.028,7.189,10.409,0.945,12.958-3.811c1.481-2.765,2.636-6.11,2.236-9.291c-0.193-1.532-0.928-2.823-1.74-4.107
	C75.815,150.536,76.098,155.309,75.958,157.16C75.649,157.311,76.062,155.777,75.958,157.16z"/>
<path d="M238.203,199.013c-1.118,6.281-1.672,12.36-2.004,18.744c-0.186,3.581-0.359,7.162-0.541,10.744
	c-0.183,3.604,1.612,6.357,2.589,9.85c3.722,13.289,12.33,24.645,16.394,37.932c1.862,6.087,5.185,11.308,7.271,17.197
	c0.776,2.192-1.909,2.934-3.254,1.496c-2.166-2.312-3.354-5.271-4.335-8.231c-4.765-14.379-10.093-27.886-17.421-41.132
	c-2.957,4.041-5.156,8.58-6.229,13.484c-1.047,4.786-3.611,8.793-5.372,13.35c-1.834,4.744-3.446,9.604-4.305,14.628
	c-0.434,2.534-0.672,5.104-0.667,7.677c0.006,2.831-2.624,4.208-4.337,6.018c0-5.388,0.323-9.131,1.92-14.352
	c1.812-5.922,3.62-11.846,5.584-17.719c3.564-10.657,8.284-20.635,8.932-32.021c0.656-11.533,1.065-22.973,1.954-34.519
	c0.167-2.156-0.098-6.042-1.963-1.876c-1.125,2.514-2.271,5.019-3.332,7.561c-1.965,4.711-2.452,9.271-6.1,12.932
	c-1.398-6.141,2.998-13.067,5.369-18.83c1.706-4.145,4.869-14.35,10.865-8.235c3.192,3.254,8.145,8.478,9.082,13.095
	c0.64,3.149-3.651-0.441-4.034-0.894C242.286,203.577,240.229,201.31,238.203,199.013
	C237.617,202.306,240.687,201.828,238.203,199.013z"/>
<path d="M123.943,165.024c-4.357,0.272-0.149-10.484,0.37-12.794c0.777-3.459,1.647-6.893,2.582-10.313
	c0.44-1.613,1.161-7.785,2.509-8.691c3.965-2.673,3.731-7.359,4.482-11.551c1.166-6.508,2.358-12.989,3.433-19.524
	c-4.504,3.669-6.098,9.751-10.608,13.393c-1.327,1.071-1.959,1.892-3.351,0.707c1.063-1.649,2.091-3.321,3.133-4.983
	c2.499-3.985,5.169-7.742,8.318-11.245c1.32-1.468,5.184-7.711,7.633-5.961c3.174,2.269,5.647,7.198,7.844,10.378
	c1.855,2.686-3.095,1.42-4.176-0.131c-1.849-2.653-3.398-5.446-5.415-7.977c-1.158,5.997-2.288,11.969-3.211,18.009
	c-0.869,5.68-0.64,13.728-3.118,18.918c-0.746,1.562-2.878,1.646-3.792,3.267c-1.389,2.462-0.317,3.384,1.365,5.27
	c3.407,3.82,6.806,9.213,5.803,14.225c-3.159-2.79-4.382-6.213-6.18-9.988C129.031,152.312,126.198,158.863,123.943,165.024z"/>
<path d="M213.044,143.413c-0.869-2.787-0.178-3.844,3.089-3.183c2.956,0.598,3.675,3.879,3.994,6.414
	c0.998,7.914-2.178,14.816-7.127,20.757c-2.981,3.579-3.75,4.389-1.951,8.805c1.255,3.08,2.295,7.12,5.195,9.023
	c2.812,1.847-1.428,3.699-3.407,1.576c-2.35-2.521-4.147-5.5-6.174-8.271c-3,4.527-5.356,11.82-9.959,14.564
	c-0.689-3.812,1.725-6.574,3.598-9.889c2.29-4.053,4.464-8.059,6.39-12.294c-10.082-1.502-7.593-20.318-3.905-26.395
	c2.529-4.167,6.565-2.388,10.306-1.161c0.185,2.055,1.5,6.214-0.989,7.292c-0.854-2.127-1.38-4.1-3.525-5.352
	c-2.896-1.689-5.154,3.964-5.611,5.833c-0.785,3.213-1.048,16.296,3.655,16.843c5.107,0.593,9.184-8.841,10.085-12.688
	C217.342,152.586,218.831,140.599,213.044,143.413C212.77,142.531,215.301,142.315,213.044,143.413z"/>
<path d="M203.693,217.437c-1.001,3.515-1.934,7.051-3.064,10.524c-0.801,2.464-2.112,4.659-1.802,7.11
	c0.326,2.576-1.407,4.785-2.229,7.087c-1,2.8,0.459,3.774-2.394,5.414c-4.669,2.683-2.752-1.91-2.101-5.296
	c0.777-4.039,2.33-7.922,3.686-11.793c2.723-7.773,4.735-16.801,10.071-23.102c1.859,2.639,3.136,3.385,3.229,6.762
	c0.103,3.739,0.872,7.422,2.045,10.967c2.162,6.537,5.977,12.382,8.117,18.898c0.389,1.234,0.79,2.465,1.201,3.691
	c-0.932,0.766-2.38,1.695-3.399,0.471c-2.279-2.738-3.304-7.727-4.644-11.018c-1.529-3.758-3.072-7.514-4.467-11.324
	C206.813,222.746,206.31,219.497,203.693,217.437C202.745,220.763,204.762,218.278,203.693,217.437z"/>
<path d="M240.921,155.475c-1.213-2.196-2.427-4.392-3.64-6.588c-2.98,2.021-5.663,2.866-7.301,6.287
	c-2.019,4.216-2.76,8.494-2.553,13.144c0.181,4.076,0.156,19.259,8.144,15.367c6.085-2.967,12.581-12.857,12.972-19.495
	c0.218-3.707,0.24-7.489-2.379-10.414c-2.163-2.415-2.858-3.838-3.014-7.12c3.19,0,2.911,0.192,4.478,2.889
	c1.165,2.005,2.788,3.447,3.571,5.71c1.632,4.715,0.371,10.257-1.166,14.837c-2.425,7.229-10.731,21.067-20.1,16.429
	c-8.155-4.039-6.278-20.579-4.491-27.599c1.219-4.79,3.554-9.542,8.59-11.2c5.836-1.92,6.75,3.232,7.839,7.573
	C241.555,155.355,241.238,155.415,240.921,155.475C239.725,153.309,241.238,155.415,240.921,155.475z"/>
<path d="M268.671,166.818c0.68,2.635,1.359,5.27,2.041,7.904c0.89,3.447-0.66,2.155-2.457,0.86
	c-0.418,2.64-2.729,12.804,1.117,13.545c2.437,0.47,1.344,1.413,1.541,3.79c0.146,1.756,0.467,3.495,0.939,5.191
	c0.927,3.319,2.428,6.447,4.158,9.418c2.154,3.701,9.439,9.937,2.847,12.168c-3.81-7.389-7.617-14.775-11.426-22.164
	c-1.215,7.246-1.24,21.421-9.097,25.164c2.595-9.32,4.957-18.758,5.457-28.454c0.288-5.589,0.401-11.175,1.577-16.667
	C265.965,174.786,265.277,166.856,268.671,166.818C269.521,170.11,268.28,166.823,268.671,166.818z"/>
<path d="M113.989,140.603c-1.93,2.741-4.221,5.466-5.883,8.372c-1.417,2.48-2.295,5.153-5.535,5.609
	c-0.665-3.571,1.533-6.201,3.185-9.093c1.506-2.638,7.331-5.461,5.292-8.832c-3.04-5.023-5.932-19.985,3.047-20.911
	c8.013-0.826,11.466,5.048,10.211,12.583c-0.693,4.157-3.924,7.062-6.627,10.024c-2.363,2.591,1.604,8.435,2.871,11.495
	c-1.646-0.75-3.292-1.499-4.938-2.248c-0.62,4.519-1.24,9.037-1.861,13.556C109.441,154.895,116.352,147.091,113.989,140.603
	C111.996,143.434,114.368,141.645,113.989,140.603z M119.427,118.289c-0.348,1.06-0.696,2.121-1.044,3.181
	c-4.12-3.635-7.105-4.748-8.137,2.139c-0.466,3.109,0.335,11.306,4.466,11.996C122.898,136.97,123.238,122.271,119.427,118.289
	C119.039,119.471,123.751,122.807,119.427,118.289z"/>
<path d="M278.751,140.914c-1.213,6.556-3.205,13.295-8.863,17.392c-6.867,4.97-10.582-1.127-11.208-7.799
	c-0.579-6.173,1.952-14.93,7.36-18.461C273.173,127.389,276.809,135.377,278.751,140.914
	C277.445,147.979,278.312,139.659,278.751,140.914z M270.423,135.916c0.25-1.427-2.242-2.345-3.45-1.386
	c-2.456,1.95-3.879,3.808-4.587,6.884c-0.963,4.188-2.725,11.25,0.741,14.811c3.063,3.146,8.57-3.455,9.767-5.655
	c2.688-4.94,2.949-9.94,1.084-15.038c-3.27,4.457-4.448,6.781-0.453,11.022C269.3,148.806,264.893,138.276,270.423,135.916
	C270.486,135.557,267.673,137.09,270.423,135.916z"/>
<path d="M188.255,134.661c-3.033,5.997-6.065,11.993-9.098,17.99c-2.639-5.594,4.402-16.169,7.157-20.561
	c1.603-2.555-1.154-7.89-1.041-11.35c0.102-3.107,0.753-7.264,3.483-9.233c-1.39,5.393-1.804,11.067,0.173,16.375
	c3.956-1.902,4.634-8.203,4.108-11.966c-0.701,1.033-3.373-1.502-3.373-4.118c8.156-0.127,6.153,6.692,4.681,12.827
	c-0.808,3.368-4.975,7.265-3.035,10.762c2.04,3.676,4.706,6.829,3.005,11.087C191.36,143.269,190.016,138.624,188.255,134.661
	C185.08,140.939,189.959,138.498,188.255,134.661z"/>
<path d="M253.207,179.526c1.963-3.559,3.918-7.12,5.889-10.675c1.571-2.833,2.586-6.31,5.896-7.535
	c8.187-3.03,12.36,5.35,15.287,11.173c0.869-0.443,1.737-0.889,2.605-1.331c0.777,2.097-2.244,4.894-4.271,3.315
	c-3.465-2.699-4.556-8.256-8.882-10.007C261.471,161.124,260.965,184.407,253.207,179.526
	C255.524,175.326,255.983,181.272,253.207,179.526z"/>
<path d="M131.007,81.892c0.4-4.791,2.621-9.796,7.386-11.65c5.697-2.216,9.513,0.062,8.581,6.261
	c-0.808,5.378-1.505,12.261-6.669,15.189C133.636,95.475,132.387,86.348,131.007,81.892
	C131.403,77.148,131.841,84.585,131.007,81.892z M141.154,72.045c-6.545,0.957-9.853,10.542-5.598,15.74
	c5.255,6.42,10.426-10.903,7.892-15.011c-0.577,0.829-1.929,3.698-2.958,3.333C140.711,74.753,140.934,73.399,141.154,72.045
	C140.362,72.161,140.885,73.694,141.154,72.045z"/>
<path d="M160.189,124.37c-1.691,5.24-2.257,13.813-8.397,15.561c-5.171,1.472-7.32-8.868-7.169-12.322
	c0.203-4.658,0.333-12.958,6.191-13.519c2.668-0.255,5.386,0.157,6.909,2.622C158.751,118.375,158.712,123.653,160.189,124.37
	C158.779,128.739,160.021,124.288,160.189,124.37z M155.796,117.915c-1.122,0-3.563,0.802-4.547-0.112
	c-1.308-1.216-3.012-1.563-3.687,0.404c-1.453,4.234-0.794,10.459-0.328,14.837c0.21,1.985,2.648,3.33,3.823,4.7
	c1.859-1.729,3.503-2.854,4.586-5.25C157.75,127.827,157.391,122.674,155.796,117.915
	C154.059,117.915,157.727,123.676,155.796,117.915z"/>
<path d="M184.298,172.533c-1.455-11.526,0.955-23.314,3.319-34.554c4.108,3.27,0.232,12.24-0.334,16.475
	c-0.52,3.884-0.688,7.816-0.911,11.725C186.261,168.107,187.094,172.993,184.298,172.533z"/>
<path d="M203.214,205.763c-2.031-3.969-1.268-8.181-0.233-12.301c1.179-4.697,0.545-7.809,4.74-10.668
	c-0.151,5.18-2.2,9.906-2.01,15.268C205.804,200.674,207.764,206.88,203.214,205.763
	C199.778,199.049,205.869,206.414,203.214,205.763z"/>
<path d="M184.509,172.752c-0.194,1.536-0.389,3.072-0.587,4.606c4.185,0.054,8.048,2.428,8.264,6.925
	c-1.346-1.31-5.222-6.902-7.248-4.48c-2.668,3.189-4.882,6.243-6.812,9.933c-2.726-0.928,1.029-8.582,1.798-10.998
	C180.568,176.713,181.456,171.95,184.509,172.752z"/>
<path fill="#FFF200" d="M404.939,35.975c4.143-2.544,7.611,9.118,4.465,9.709c-3.135,0.588-3.824-9.913-3.719-9.588
	C405.669,37.041,405.419,37,404.939,35.975C408.488,33.795,405.656,38.145,404.939,35.975z"/>
<path fill="#FFF200" d="M476.164,24.753c0.189,3.696-5.562,12.178-8.252,12.596C470.072,32.867,471.792,28.35,476.164,24.753z"/>
<path fill="#FFF200" d="M478.292,84.492c0.559,0.215,12.07,5.444,7.531,5.913c-1.502,0.155-2.895-1.13-4.113-1.777
	c-1.264-0.408-2.309-1.117-3.139-2.127c-0.857-2.138-0.508-2.582,1.051-1.332C479.054,85.212,478.611,84.986,478.292,84.492
	C480.269,85.256,478.261,85.211,478.292,84.492z"/>
<path fill="#FFF200" d="M492.753,53.35c-2.113,4.482-7.479,7.228-11.137,3.388C485.33,55.608,489.042,54.479,492.753,53.35
	c-0.318,1.089-0.967,1.614-1.947,1.575C490.871,53.937,491.519,53.412,492.753,53.35C491.66,55.672,489.001,54.492,492.753,53.35z"
	/>
<path fill="#FFF200" d="M399.597,58.895c-1.271,1.431-8.702,3.134-8.131-0.582C391.875,55.663,398.625,57.511,399.597,58.895
	c-1.43,1.61-1.475-0.917-1.078-0.939C398.878,58.269,399.238,58.582,399.597,58.895C398.097,60.583,397.593,56.046,399.597,58.895z"
	/>
<path fill="#FFF200" d="M408.591,101.279c-2.021,2.466-4.045,4.933-6.066,7.398c-1.168-1.863-0.121-4.403,1.068-5.927
	c0.816-1.161,1.918-1.85,3.307-2.068c1.975,0.113,2.223,0.657,0.742,1.63C407.841,101.861,408.158,101.517,408.591,101.279
	C406.57,103.746,408.318,101.051,408.591,101.279z"/>
<path fill="#FFF200" d="M435.443,29.398c0.336-1.835,0.617-8.534,2.754-9.214C441.373,19.172,437.103,28.409,435.443,29.398
	c0.033-1.209,0.562-1.916,1.584-2.12C437.236,28.311,436.708,29.017,435.443,29.398C435.591,28.587,439.021,27.266,435.443,29.398z"
	/>
<path d="M86.698,214.646c1.481-2.201,3.749-7.963,6.246-6.334C91.519,210.354,89.018,216.128,86.698,214.646
	C88.321,212.233,87.12,214.915,86.698,214.646z"/>
<path fill="#FFF200" d="M400.505,85.212c0.311,2.343-2.33,5.93-4.693,4.141C396.486,88.494,398.607,83.773,400.505,85.212
	C400.966,88.712,400.427,85.152,400.505,85.212C400.814,87.556,400.205,84.984,400.505,85.212z"/>
<path fill="#FFFFFF" d="M175.982,161.397c-0.375,7.396-3.14,14.274-7.409,20.325c-1.616,2.291-4.932,2.221-5.283-0.943
	c-0.567-5.106-0.989-10.229-1.341-15.353c-0.232-3.376,1.085-6.562,1.614-9.89c0.514-3.233,3.294-4.749,6.37-4.406
	c0.314,0.035,2.416,3.688,3.154,4.345C174.86,157.053,176.857,158.76,175.982,161.397
	C175.718,166.61,177.553,156.663,175.982,161.397z"/>
<path fill="#FFFFFF" d="M104.865,184.76c-1.207,0.501-5.231,2.856-6.398,1.187c-1.517-2.172-0.609-6.848-0.9-9.319
	c-0.487-4.14-0.258-7.893,3.944-10.048c5.016-2.572,5.026,4.646,6.546,7.465c0.501-1.182,1.002-2.363,1.503-3.546
	c3.303,5.258,1.197,12.177-4.747,14.306c1.088-3.453,2.449-6.316,1.762-9.912C103.859,176.979,101.626,182.267,104.865,184.76
	C98.018,187.604,104.357,184.369,104.865,184.76z"/>
<path fill="#FFFFFF" d="M119.549,183.313c-0.803-2.576,1.79-17.479,17.778-15.311c3.212,0.437,5.454,7.915,5.75,10.533
	c0.515,4.554-9.539,14.74-13.204,15.808C122.044,196.625,119.549,189.735,119.549,183.313z"/>
<path fill="#FFFFFF" d="M119.549,185.199"/>
<path fill="#FFFFFF" d="M442.908,158.912c3.6-1.419,7.602-1.375,11.354,1.109c4.543,3.01,4.41,8.459,3.637,13.264
	c-0.51,3.166-1.199,6.385-2.789,9.208c-1.559,2.765-4.234,4.471-5.516,7.421c-3.748,8.644-9.676,7.837-15.174,0.867
	c-5.715-7.244-5.4-16.239-0.574-24.009C435.988,163.323,439.238,160.357,442.908,158.912z"/>
<path fill="#FFFFFF" d="M446.849,135.116c-3.416-0.474-14.27-1.329-10.182-7.936c1.209-1.956,8.748-0.829,11.24-1.257
	c18.924-3.245,4.496,12.398-1.619,9.131c0.564,0.301,1.518,0.293,2.148,0.381C447.939,135.223,447.41,135.117,446.849,135.116
	C442.83,134.559,451.716,136.013,446.849,135.116z"/>
<path fill="#FFFFFF" d="M454.82,102.999c-1.633,9.32-6.586,11.717-16.309,10.286c-3.082-0.453-8.193-4.643-3.533-7.086
	C440.128,103.5,448.935,104.579,454.82,102.999c-0.115,1.2-0.686,1.731-1.707,1.593C452.814,103.577,453.384,103.046,454.82,102.999
	C453.916,108.165,450.824,104.072,454.82,102.999z"/>
<path fill="#FFFFFF" d="M75.958,157.16c0.123-1.627-0.487-3.888,1.264-4.457c0.811,1.462,1.924,2.798,2.395,4.432
	c0.856,2.976-0.117,6.358-1.348,9.081c-1.986,4.393-8.246,12.61-12.973,6.156c-3.41-4.656-3.261-12.101-1.318-17.292
	c0.945-2.527,2.674-4.858,5.193-6.01c2.011-0.919,5.394,7.223,5.86,8.544C75.34,157.462,75.649,157.312,75.958,157.16
	C76.062,155.777,75.649,157.311,75.958,157.16z"/>
<path fill="#FFFFFF" d="M213.044,143.413c5.787-2.813,4.297,9.173,3.664,11.876c-0.901,3.847-4.978,13.281-10.085,12.688
	c-4.703-0.546-4.44-13.629-3.655-16.843c0.455-1.861,2.04-6.033,4.512-6.167c2.738-0.149,3.877,3.824,4.625,5.686
	C214.577,149.582,213.32,145.246,213.044,143.413z"/>
<path fill="#FFFFFF" d="M119.427,118.289c4.279,4.471,3.442,15.556-3.469,17.25c-4.456,1.092-5.889-7.167-5.86-10.07
	c0.021-2.124,0.466-5.391,2.139-6.923c2.071-1.896,4.773,1.714,6.146,2.925C118.73,120.409,119.079,119.349,119.427,118.289
	C123.751,122.807,119.039,119.471,119.427,118.289z"/>
<path fill="#FFFFFF" d="M273.978,135.532c1.719,4.7,1.641,8.872-0.396,13.619c-1.398,3.26-5.369,8.685-9.666,7.588
	c-4.368-1.117-2.426-10.701-1.933-13.376c0.582-3.153,1.278-5.574,3.721-7.767c1.183-1.062,5.187-2.339,4.719,0.32
	C267.673,137.09,270.708,139.988,273.978,135.532z"/>
<path fill="#FFFFFF" d="M141.154,72.045c-0.221,1.354-0.443,2.708-0.664,4.062c1.029,0.366,2.381-2.504,2.958-3.333
	c1.96,3.178-1.074,20.249-6.996,15.884C130.516,84.283,134.558,73.009,141.154,72.045C140.885,73.694,140.362,72.161,141.154,72.045
	z"/>
<path fill="#FFFFFF" d="M155.796,117.915c1.387,4.14,1.892,8.625,0.52,12.842c-0.789,2.424-1.945,4.271-3.927,5.867
	c-1.971,1.586-3.33-0.322-4.67-2.354c-2.24-3.396-0.72-11.228-0.369-15.063c0.117-1.276,0.916-2.951,2.505-2.343
	C152.375,117.824,152.958,117.915,155.796,117.915C157.727,123.676,154.059,117.915,155.796,117.915z"/>
</svg>
