<?xml version="1.0" encoding="utf-8"?>
<!-- Generator: Adobe Illustrator 16.0.4, SVG Export Plug-In . SVG Version: 6.00 Build 0)  -->
<!DOCTYPE svg PUBLIC "-//W3C//DTD SVG 1.1//EN" "http://www.w3.org/Graphics/SVG/1.1/DTD/svg11.dtd">
<svg version="1.1" id="Layer_1" xmlns="http://www.w3.org/2000/svg" xmlns:xlink="http://www.w3.org/1999/xlink" x="0px" y="0px"
	 width="664.22px" height="294.495px" viewBox="0 0 664.22 294.495" enable-background="new 0 0 664.22 294.495"
	 xml:space="preserve">
<path fill-rule="evenodd" clip-rule="evenodd" fill="#FFFFFF" stroke="#000000" stroke-width="2" stroke-miterlimit="10" d="
	M576.607,214.4c-1.053,1.341-16.762-22.66-20.26-25.91c16.01-3.202,33.275-8.438,37.249-26.919
	c3.854-17.931,0.154-38.839-16.562-48.942c-17.293-10.452-44.173-7.979-62.829-3.812c-11.193,2.5-22.948,3.277-34.374,2.899
	c-4.897-0.162-10.688-0.226-14.814,2.873c-2.362,1.774-5.789,5.927-0.832,7.206c-5.247,2.404-3.692,32.385-3.775,37.439
	c-0.269,16.345,1.061,32.652,0.501,49.004c-0.11,3.156-0.234,6.312-0.371,9.468c-0.312,7.374-4.06,5.28-10.541,5.157
	c-8.264-0.157-16.428,0.037-24.645,1.02c-14.29,1.709-29.948-0.593-41.909-9.732c-21.655-16.547-19.943-62.629-11.356-85.467
	c10.652-28.331,37.774-52.884,64.52-65.484c46.742-22.022,109.347-11.453,153.711,11.181c12.244,6.247,16.733,16.807,23.028,28.936
	c8.474,16.329,8.471,29.764,5.184,47.323c-2.22,11.857-6.888,30.856-15.364,40.01C595.632,198.785,585.13,206.22,576.607,214.4
	C576.372,214.7,578.208,212.863,576.607,214.4z M571.605,204.852c2.636,5.722,31.282-30.525,33.252-34.932
	c9.151-20.473,4.035-48.069-11.376-64.426c-14.085-14.949-38.693-22.118-58.947-22.796c-11.21-0.375-22.175-2.518-33.43-2.591
	c-4.776-0.031-33.366,2.484-34.32,8.133c7.261,3.867,25.23-6.534,33.75-6.765c12.665-0.344,25.039,3.141,37.672,3.749
	c10.648,0.513,20.195,5.181,30.503,7.083c10.421,1.923,13.99,9.473,23.384,13.173c-2.832,2.255-2.59,0.91-5.984,0.202
	c2.303,4.806,5.727,1.019,9.465,4.44c3.111,2.846,4.408,7.425,6.466,10.967c5.44,9.366,3.105,19.763,5.282,29.945
	C611.65,171.293,585.949,194.608,571.605,204.852C571.713,205.087,572.667,204.093,571.605,204.852z M465.867,88.867
	c-2.366-3.706-32.399,21.86-35.999,25.486c-12.176,12.265-22.941,28.103-25.198,45.605c-1.847,14.322,3.086,27.91,15.894,35.38
	c6.848,3.994,14.497,5.482,22.286,6.313c4.068,0.434,8.171,0.969,12.268,1.052c3.034,0.061,3.011-2.022,4.303-2.152
	c-11.737,1.182-24.405-3.356-35.407-6.8c-12.191-3.816-23.096-22.88-16.219-35.095c1.297-2.304-0.259-5.046,0.843-7.834
	c1.612-4.08,3.65-7.968,5.534-11.923c3.397-7.14,8.836-13.164,13.906-19.202C438.838,106.882,452.169,98.005,465.867,88.867
	C465.697,88.601,464.941,89.484,465.867,88.867z"/>
<path fill-rule="evenodd" clip-rule="evenodd" stroke="#000000" stroke-width="2" stroke-miterlimit="10" d="M243.241,196.181
	c-7.36,0.511-14.511-1.193-21.696-0.836c-9.329,0.464-7.07,5.603-6.608,13.102c1.039,16.872-3.209,30.923-21.042,33.549
	c-17.151,2.525-35.325,2.527-52.628,2.957c-12.682,0.309-29.974-0.748-32.63-15.564c-1.52-8.49,1.745-16.544,0.408-24.981
	c-0.433-2.728-17.501-0.088-20.403-0.445c-7.5-0.926-15.307,0.118-22.87-0.3c-7.333-0.406-7.738-9.516-8.896-14.972
	c-5.52-26.041-6.738-78.808,30.109-80.454c8.295-0.37,12.512,0.064,11.802-8.597c-0.647-7.898-0.634-17.876,3.078-25.108
	c6.128-11.941,22.604-14.588,34.513-15.379c15.412-1.023,33.176-4.833,48.233,0.134c16.115,5.314,16.409,19.185,17.49,33.798
	c0.321,4.341-1.912,11.807,4.216,10.754c7.082-1.216,13.356-0.595,20.474-0.523c17.916,0.181,23.826,10.153,24.911,27.058
	c1.037,16.163-0.507,32.938,1.966,48.967c0.528,3.426,2.163,11.188-0.196,13.932C252.412,194.504,243.168,196.554,243.241,196.181
	C240.468,196.373,243.027,197.28,243.241,196.181z M100.148,111.751c-5.421,1.874-9.853,0.192-15.488,0.429
	c-7.901,0.333-10.989,2.792-16.704,8.276c-8.391,8.051-10.409,20.371-10.806,31.668c-0.45,12.796-1.058,27.63,3.181,39.921
	c1.591,4.612,1.178,9.096,7.318,9.154c6.816,0.063,13.696,0.647,20.463-0.194c5.752-0.713,11.482,0.648,17.576-0.411
	c6.471-1.124,3.114-8.687,3.478-13.641c1.229-16.737,13.228-24.304,27.981-28.304c14.813-4.016,33.13,2.061,47.438-3.822
	c11.62-4.778,15.883-26.848,15.882-37.841c-0.002-18.126,4.646-49.457-17.858-55.783c-12.886-3.623-30.295-1.661-43.391,0.095
	c-12.209,1.64-29.691,2.648-35.603,15.689c-1.721,3.796-4.997,30.331-0.586,29.984c13.207-1.029,26.159-1.514,39.254-3.651
	c2.057-0.336,12.388,1.267,10.7,3.804c-1.787,2.687-17.625,0.137-21.157,0.64c-6.909,0.982-13.356,0.269-20.239,1.229
	c-7.757,1.083-6.182,1.881-11.156,6.172C99.532,114.122,99.437,112.983,100.148,111.751
	C98.716,112.246,99.88,112.835,100.148,111.751z M208.9,198.988c-3.173-4.971-23.737-0.902-28.879-0.405
	c-5.843,0.563-13.519,0.083-19.011,1.925c-0.972,0.327-4.318-1.652-3.396-2.095c8.333-3.932,23.792-2.564,33.066-3.418
	c13.44-1.231,26.69-2.771,40.063-0.669c5.188,0.815,11.03-1.015,16.217-1.456c7.199-0.613,4.439-13.3,4.236-17.951
	c-0.62-14.202-0.722-28.524-1.644-42.699c-0.692-10.654-1.834-22.76-13.86-25.323c-10.616-2.262-22.178-1.694-32.84-0.487
	c-1.46,22.054-0.735,51.753-29.925,52.914c-23.811,0.947-61.977-1.207-61.379,32.282c0.062,3.546,1.458,4.774,1.168,8.959
	c-0.376,5.447-0.996,10.763-1.472,16.248c-0.583,6.725-1.857,18.318,5.293,21.316c19.53,8.189,47.221,3.989,67.934,2.034
	c12.698-1.198,23.619-1.392,27-15.74C212.361,220.65,215.733,196.362,208.9,198.988C208.082,197.707,209.522,198.749,208.9,198.988z
	"/>
<path fill-rule="evenodd" clip-rule="evenodd" stroke="#000000" stroke-width="2" stroke-miterlimit="10" d="M429.328,228.299
	c-0.559-1.193-26.993-1.986-31.047-3.902c-10.073-4.762-20.951-9.195-26.206-20.212c-9.65-20.229-9.139-47.267-3.485-68.624
	c6.378-24.114,23.305-41.172,41.466-57.613c8.904-8.063,18.551-13.627,29.766-17.739c10.557-3.871,24.274-2.934,34.168-7.906
	c8.619-4.332,23.698-3.179,33.228-3.455c11.094-0.322,21.859,5.208,32.633,6.808c22.844,3.391,56.598,12.471,68.856,33.647
	c4.94,8.534,12.353,19.038,12.37,29.271c0.008,5.336,2.807,10.256,2.521,15.941c-0.373,7.463-2.771,14.681-4.162,21.986
	c-4.746,24.9-21.808,47.16-42.973,60.488c-0.542-0.877-1.084-1.754-1.627-2.631c2.881-2.766,6.937-4.856,10.086-7.347
	c5.308-4.198,10.536-8.271,15.192-13.188c7.936-8.378,17.516-27.21,17.125-38.816c-0.216-6.469,4.18-13.245,4.357-19.824
	c0.175-6.439-2.603-12.517-2.515-18.849c0.142-10.268-12.778-26.467-18.178-34.966c-5.347-8.419-22.969-12.599-32.277-15.945
	c-14.369-5.166-30.654-9.69-45.75-11.953c-25.508-3.823-49.882,0.038-75.174,6.35c-28.128,7.02-55.224,30.959-69.415,56
	c-8.885,15.678-9.675,31.025-11.399,48.56c-1.468,14.934,2.994,35.593,13.452,46.807c7.681,8.236,23.837,15.231,35.416,14.265
	c7.692-0.642,15.241-1.852,23.01-2.214c5.171-0.24,10.343-0.472,15.515-0.693c5.517-0.239,5.963,1.999,6.238-4.797
	c1.311-32.378,1.385-65.005,1.385-97.361c1.854-1.028,4.199,20.54,3.596,22.903c-3.095,12.212-2.085,24.866-1.9,37.318
	c0.316,21.413,0.935,44.202-3.312,65.287c5.108,0,38.772,1.498,38.945-4.945c0.18-6.839-2.278-38.642,3.903-40.419
	c0.552,5.222,11.569,2.751,16.199,2.751c0.396-5.347-15.939-3.395-18.849-1.778c-2.725-11.201,21.876-2.96,25.225,4.396
	c2.957,6.492,3.267,14.45,4.998,21.327c0.508,2.019,10.266,20.023,7.955,20.873c-3.967,1.46-10.829-21.117-12.152-23.628
	c-5.807,2.123-26.513-0.448-25.143,8.568c1.162,7.642,3.711,13.575-4.671,14.202c-13.049,0.982-26.203,2.836-39.309,2.225
	c0.833-7.484,2.43-13.69,2.43-21.395c-8.032,1.488-16.21,0.505-24.311,0.696 M522.645,206.606
	c-4.133-3.993-14.462,3.27-19.323-1.821c-0.597,1.806-0.149,21.172-1.871,21.775c7.598-2.659,15.348-1.477,22.996-3.771
	C528.214,221.658,524.752,208.628,522.645,206.606C522.5,206.467,524.763,208.639,522.645,206.606z"/>
<path fill-rule="evenodd" clip-rule="evenodd" stroke="#000000" stroke-width="2" stroke-miterlimit="10" d="M463.608,119.371
	c-3.841,0.99,6.318-6.64,9.827-7.43c10.786-2.428,22.066,0.114,32.944-1.774c10.432-1.811,19.794-3.396,30.453-3.216
	c11.408,0.192,23.133-2.589,34.109,1.809c19.524,7.823,24.167,27.968,23.522,47.116c-0.745,22.153-19.792,28.949-38.117,32.614
	c7.121,6.615,17.326,20.162,20.402,29.367c3.652,10.926,11.03,20.202,14.86,30.737c-1.359-3.746-37.854,0.615-40.85,0.687
	c-2.685,0.065-6.946,1.16-9.608,0.521c-2.986-0.716-1.778-4.138,0.337-4.859c8.067-2.754,22.046,0.19,30.646-0.177
	c5.816-0.248,16.485,1.419,10.55-6.652c-5.054-6.873-6.755-15.043-10.655-22.567c-3.627-6.996-8.397-13.799-12.953-20.237
	c-1.086-1.534-16.231-9.775-6.968-9.692c17.837,0.16,33.731-7.957,38.757-25.231c4.057-13.941-0.408-37.747-13.834-45.613
	c-17.252-10.108-37.254-4.334-55.866-3.857c-4.703,4.431-20.482,3.7-26.499,3.38C483.482,113.701,474.229,116.639,463.608,119.371
	C463.11,119.5,467.98,118.247,463.608,119.371z"/>
<path fill-rule="evenodd" clip-rule="evenodd" stroke="#000000" stroke-width="2" stroke-miterlimit="10" d="M505.929,144.767
	c-7.4-5.201,13.937-3.318,14.697-3.272c8.084,0.486,23.598-3.474,27.87,6.064c11.443,25.548-34.315,27.058-47.428,21.94
	c2.373-5.417-1.781-22.69,4.842-24.7c-0.146,6.055-1.08,12.056-1.25,18.109c-0.193,6.896,6.299,5.87,12.227,5.108
	c8.231-1.057,16.479,2.689,24.167-2.332c7.513-4.908,8.345-19.027-2.031-20.318C530.925,144.359,512.589,149.441,505.929,144.767
	C504.791,143.966,506.198,144.955,505.929,144.767z"/>
<path fill-rule="evenodd" clip-rule="evenodd" stroke="#000000" stroke-width="2" stroke-miterlimit="10" d="M569.05,206.174
	c14.05-12.019,31.842-23.929,37.285-42.963c4.792-16.76-0.146-42.245-12.565-54.905c-13.305-13.563-30.96-19.466-50.601-22.419
	c-12.754-1.918-26.43-3.41-39.319-4.03c-12.885-0.62-24.929,7.946-37.287,6.306c24.828-8.626,47.089-9.14,72.864-4.758
	c18.416,3.131,39.593,6.331,53.35,20.244c13.916,14.075,19.19,37.656,15.671,56.756c-2.095,11.368-9.499,21.006-17.121,29.322
	c-4.089,4.461-8.315,8.852-13.087,12.594c-2.567,2.012-5.257,3.847-8.066,5.505C569.848,207.241,569.474,206.691,569.05,206.174"/>
<path fill-rule="evenodd" clip-rule="evenodd" stroke="#000000" stroke-width="2" stroke-miterlimit="10" d="M467.371,88.7
	c-12.859,8.58-25.752,15.539-36.301,27.514c-5.253,5.962-12.454,12.921-15.791,20.186c-1.601,3.485-3.309,6.918-4.912,10.403
	c-1.676,3.642-1.008,9.074-2.573,11.854c-6.877,12.215,4.027,31.278,16.219,35.095c6.027,1.887,12.584,4.282,18.844,5.22
	c1.933,0.29,18.41,3.129,18.222,3.309c-7.374,7.036-39.03-4.632-45.849-9.852c-16.611-12.717-11.574-36.718-3.533-52.576
	c8.005-15.788,20.574-29.049,34.64-39.61C449.453,97.902,464.847,84.748,467.371,88.7C466.445,89.318,467.201,88.434,467.371,88.7z"
	/>
<path fill-rule="evenodd" clip-rule="evenodd" fill="#FFFFFF" stroke="#000000" stroke-width="2" stroke-miterlimit="10" d="
	M100.148,111.751c1.142-4.618,27.662-3.415,31.679-3.986c3.533-0.502,19.37,2.047,21.157-0.64c1.688-2.537-8.643-4.14-10.7-3.804
	c-11.716,1.912-23.161,2.176-34.929,3.272c-7.997,0.745-6.097-3.891-6.645-10.93c-0.437-5.613,0.551-13.48,2.906-18.676
	c4.968-10.958,19.348-13.958,30.138-15.082c14.405-1.5,31.352-4.074,45.653-1.414c25.69,4.777,21.059,36.768,21.061,56.494
	c0.001,12.54-4.693,26.208-12.74,35.543c-4.344,5.04-15.372,3.764-21.196,4.149c-8.396,0.555-16.851,0.656-25.231,1.3
	c-14.586,1.122-27.788,9.529-31.384,24.111c-0.795,3.224,1.265,16.505-1.659,17.846c-6.776,3.106-13.502,0.245-20.144,1.068
	c-6.839,0.851-25.632,3.939-26.907-5.699c-1.796-13.552-5.143-26.025-4.24-39.979c0.626-9.681,0.72-23.934,7.639-31.458
	c3.862-4.2,9.021-10.692,15.097-11.33C86.645,111.81,93.596,114.017,100.148,111.751C99.88,112.835,98.716,112.246,100.148,111.751z
	 M128.012,80.072c-2.652-10.93-16.718-10.98-14.914,2.116C114.738,94.113,128.093,90.471,128.012,80.072
	C127.619,78.45,128.054,85.417,128.012,80.072z"/>
<path fill-rule="evenodd" clip-rule="evenodd" fill="#FFFFFF" stroke="#000000" stroke-width="2" stroke-miterlimit="10" d="
	M522.9,206.333c1.367,5.484,7.058,15.829-1.392,17.486c-5.64,1.105-14.441,2.702-19.946,2.431
	c-0.244-7.409,1.07-14.745,1.648-22.106C509.187,207.538,516.346,206.333,522.9,206.333
	C523.887,210.295,520.973,206.333,522.9,206.333z"/>
<path fill-rule="evenodd" clip-rule="evenodd" stroke="#000000" stroke-width="2" stroke-miterlimit="10" d="M128.012,80.072
	c0.081,10.399-13.274,14.042-14.914,2.116C111.294,69.091,125.36,69.142,128.012,80.072
	C128.054,85.417,127.619,78.45,128.012,80.072z M121.1,79.314c-0.358-1.381-0.788-2.74-1.289-4.077
	c-4.464,2.018-7.344,13.698-0.251,12.102c4.995-1.125,8.184-8.219,3.398-11.375C122.339,77.081,121.72,78.197,121.1,79.314
	C120.759,78.124,121.95,77.782,121.1,79.314z"/>
<path fill-rule="evenodd" clip-rule="evenodd" stroke="#000000" stroke-width="2" stroke-miterlimit="10" d="M192.581,227.159
	c1.558-3.285,2.825-9.932,7.281-10.309c4.112-0.347,8.402,3.703,8.043,7.908c-0.4,4.681-6.192,6.995-10.153,7.423
	C192.438,232.754,195.344,228.435,192.581,227.159C194.083,223.992,192.784,227.253,192.581,227.159z M196.129,225.442
	c-1.341,8.963,10.526,2.057,8.15-4.9c-4.106,7.823-0.661,0.002-5.194-1.633C197.788,220.682,193.323,224.014,196.129,225.442
	C195.956,226.601,195.999,225.376,196.129,225.442z"/>
<path fill-rule="evenodd" clip-rule="evenodd" fill="#FFFFFF" stroke="#000000" stroke-width="2" stroke-miterlimit="10" d="
	M122.958,75.964c5.882,3.879-1.342,14.521-6.052,10.868c-2.021-1.568-2.375-6.341-1.342-8.472
	C117.567,74.225,122.217,77.3,122.958,75.964C125.561,77.681,122.459,76.863,122.958,75.964z"/>
<path fill-rule="evenodd" clip-rule="evenodd" fill="#FFFFFF" stroke="#000000" stroke-width="2" stroke-miterlimit="10" d="
	M196.129,225.442c-6.991-3.562,9.194-6.889,8.15-4.9C206.655,227.499,194.788,234.405,196.129,225.442
	C195.999,225.376,195.956,226.601,196.129,225.442z"/>
</svg>
