<?xml version="1.0" encoding="utf-8"?>
<!-- Generator: Adobe Illustrator 16.0.4, SVG Export Plug-In . SVG Version: 6.00 Build 0)  -->
<!DOCTYPE svg PUBLIC "-//W3C//DTD SVG 1.1//EN" "http://www.w3.org/Graphics/SVG/1.1/DTD/svg11.dtd">
<svg version="1.1" id="Layer_1" xmlns="http://www.w3.org/2000/svg" xmlns:xlink="http://www.w3.org/1999/xlink" x="0px" y="0px"
	 width="664.219px" height="294.496px" viewBox="0 0 664.219 294.496" enable-background="new 0 0 664.219 294.496"
	 xml:space="preserve">
<path fill="#FFFFFF" stroke="#000000" stroke-width="2" stroke-miterlimit="10" d="M576.608,214.4
	c-1.055,1.342-16.764-22.66-20.262-25.91c16.012-3.201,33.275-8.438,37.25-26.919c3.854-17.931,0.154-38.839-16.562-48.942
	c-17.293-10.452-44.172-7.979-62.828-3.812c-11.193,2.5-22.949,3.277-34.375,2.899c-4.896-0.162-10.688-0.226-14.814,2.873
	c-2.361,1.774-5.787,5.927-0.83,7.206c-5.248,2.404-3.693,32.385-3.775,37.439c-0.27,16.346,1.061,32.652,0.5,49.004
	c-0.109,3.156-0.234,6.312-0.371,9.469c-0.311,7.373-4.059,5.279-10.541,5.156c-8.264-0.156-16.428,0.037-24.645,1.02
	c-14.289,1.709-29.947-0.592-41.909-9.731c-21.655-16.547-19.942-62.629-11.356-85.467C382.741,100.353,409.864,75.8,436.61,63.2
	c46.742-22.022,109.346-11.453,153.711,11.181c12.244,6.247,16.732,16.807,23.027,28.936c8.475,16.329,8.471,29.764,5.184,47.323
	c-2.219,11.857-6.887,30.855-15.363,40.01C595.631,198.785,585.129,206.22,576.608,214.4
	C576.372,214.701,578.208,212.863,576.608,214.4z M571.606,204.852c2.635,5.722,31.281-30.524,33.252-34.933
	c9.15-20.473,4.033-48.068-11.377-64.425c-14.084-14.949-38.693-22.118-58.947-22.796c-11.209-0.375-22.174-2.518-33.43-2.591
	c-4.775-0.031-33.365,2.484-34.32,8.133c7.262,3.867,25.23-6.534,33.75-6.765c12.666-0.344,25.039,3.141,37.672,3.749
	c10.648,0.513,20.195,5.181,30.504,7.083c10.42,1.923,13.99,9.473,23.383,13.173c-2.832,2.255-2.59,0.91-5.982,0.202
	c2.303,4.806,5.727,1.019,9.465,4.44c3.109,2.846,4.408,7.425,6.465,10.967c5.441,9.366,3.105,19.763,5.283,29.946
	C611.651,171.292,585.95,194.608,571.606,204.852C571.713,205.087,572.667,204.093,571.606,204.852z M465.868,88.867
	c-2.367-3.706-32.4,21.86-36,25.486c-12.176,12.265-22.941,28.103-25.197,45.605c-1.848,14.321,3.086,27.91,15.895,35.379
	c6.848,3.994,14.496,5.482,22.285,6.313c4.068,0.435,8.172,0.97,12.268,1.052c3.035,0.062,3.012-2.021,4.303-2.152
	c-11.736,1.183-24.404-3.355-35.406-6.799c-12.191-3.816-23.096-22.881-16.219-35.096c1.297-2.304-0.26-5.046,0.842-7.834
	c1.613-4.08,3.65-7.968,5.535-11.923c3.396-7.14,8.836-13.164,13.906-19.202C438.838,106.882,452.168,98.005,465.868,88.867
	C465.698,88.601,464.942,89.484,465.868,88.867z"/>
<path stroke="#000000" stroke-width="2" stroke-miterlimit="10" d="M243.241,196.181c-7.36,0.511-14.511-1.193-21.696-0.836
	c-9.329,0.464-7.07,5.604-6.608,13.102c1.039,16.872-3.209,30.924-21.042,33.549c-17.151,2.525-35.325,2.527-52.628,2.957
	c-12.682,0.31-29.974-0.748-32.63-15.563c-1.52-8.49,1.745-16.544,0.408-24.981c-0.433-2.728-17.501-0.088-20.403-0.445
	c-7.5-0.926-15.307,0.119-22.87-0.299c-7.333-0.406-7.738-9.517-8.896-14.973c-5.52-26.041-6.738-78.808,30.109-80.454
	c8.295-0.37,12.512,0.064,11.802-8.597c-0.647-7.898-0.634-17.876,3.078-25.108c6.128-11.941,22.604-14.588,34.513-15.379
	c15.412-1.023,33.176-4.833,48.233,0.134c16.115,5.314,16.409,19.185,17.49,33.798c0.321,4.341-1.912,11.807,4.216,10.754
	c7.082-1.216,13.356-0.595,20.474-0.523c17.916,0.181,23.826,10.153,24.911,27.058c1.037,16.163-0.507,32.938,1.966,48.967
	c0.528,3.426,2.163,11.188-0.196,13.932C252.412,194.503,243.168,196.554,243.241,196.181
	C240.468,196.373,243.027,197.28,243.241,196.181z M100.148,111.751c-5.421,1.874-9.853,0.192-15.488,0.429
	c-7.901,0.333-10.989,2.792-16.704,8.276c-8.391,8.051-10.409,20.371-10.806,31.668c-0.45,12.795-1.058,27.629,3.181,39.92
	c1.591,4.613,1.178,9.097,7.318,9.154c6.816,0.063,13.696,0.647,20.463-0.193c5.752-0.713,11.482,0.647,17.576-0.412
	c6.471-1.123,3.114-8.686,3.478-13.641c1.229-16.736,13.228-24.304,27.981-28.304c14.813-4.017,33.13,2.062,47.438-3.821
	c11.62-4.779,15.883-26.849,15.882-37.842c-0.002-18.126,4.646-49.457-17.858-55.783c-12.886-3.623-30.295-1.661-43.391,0.095
	c-12.209,1.64-29.691,2.648-35.603,15.689c-1.721,3.796-4.997,30.331-0.586,29.984c13.207-1.029,26.159-1.514,39.254-3.651
	c2.057-0.336,12.388,1.267,10.7,3.804c-1.787,2.687-17.625,0.137-21.157,0.64c-6.909,0.982-13.356,0.269-20.239,1.229
	c-7.757,1.083-6.182,1.881-11.156,6.172C99.532,114.122,99.437,112.983,100.148,111.751
	C98.716,112.246,99.88,112.835,100.148,111.751z M208.9,198.988c-3.173-4.971-23.737-0.902-28.879-0.404
	c-5.843,0.562-13.519,0.082-19.011,1.924c-0.972,0.328-4.318-1.651-3.396-2.094c8.333-3.933,23.792-2.564,33.066-3.418
	c13.44-1.231,26.69-2.771,40.063-0.67c5.188,0.815,11.03-1.015,16.217-1.455c7.199-0.613,4.439-13.301,4.236-17.951
	c-0.62-14.203-0.722-28.524-1.644-42.699c-0.692-10.654-1.834-22.76-13.86-25.323c-10.616-2.262-22.178-1.694-32.84-0.487
	c-1.46,22.054-0.735,51.753-29.925,52.914c-23.811,0.947-61.977-1.207-61.379,32.282c0.062,3.546,1.458,4.774,1.168,8.959
	c-0.376,5.447-0.996,10.763-1.472,16.248c-0.583,6.726-1.857,18.317,5.293,21.315c19.53,8.189,47.221,3.99,67.934,2.035
	c12.698-1.199,23.619-1.393,27-15.74C212.361,220.65,215.733,196.362,208.9,198.988C208.082,197.707,209.522,198.75,208.9,198.988z"
	/>
<path stroke="#000000" stroke-width="2" stroke-miterlimit="10" d="M429.329,228.298c-0.559-1.192-26.994-1.985-31.047-3.901
	c-10.074-4.763-20.951-9.194-26.207-20.212c-9.65-20.229-9.139-47.268-3.484-68.624c6.377-24.114,23.305-41.172,41.465-57.613
	c8.904-8.063,18.553-13.627,29.768-17.739c10.557-3.871,24.273-2.934,34.168-7.906c8.619-4.332,23.697-3.179,33.227-3.455
	c11.096-0.322,21.859,5.208,32.633,6.808c22.846,3.391,56.6,12.471,68.857,33.647c4.939,8.534,12.354,19.038,12.369,29.271
	c0.008,5.336,2.807,10.256,2.521,15.941c-0.373,7.463-2.771,14.681-4.162,21.986c-4.746,24.899-21.809,47.16-42.973,60.488
	c-0.543-0.878-1.084-1.755-1.627-2.632c2.881-2.767,6.938-4.856,10.086-7.347c5.309-4.198,10.535-8.271,15.191-13.188
	c7.936-8.379,17.516-27.211,17.125-38.816c-0.215-6.469,4.18-13.245,4.357-19.824c0.176-6.439-2.604-12.517-2.516-18.849
	c0.143-10.268-12.777-26.467-18.178-34.966c-5.348-8.419-22.969-12.599-32.277-15.945c-14.369-5.166-30.654-9.69-45.75-11.953
	c-25.508-3.823-49.881,0.038-75.174,6.35c-28.127,7.02-55.224,30.959-69.414,56c-8.886,15.678-9.676,31.025-11.399,48.561
	c-1.468,14.934,2.993,35.593,13.452,46.807c7.681,8.236,23.836,15.23,35.416,14.266c7.691-0.643,15.24-1.853,23.01-2.215
	c5.172-0.24,10.344-0.472,15.516-0.693c5.516-0.238,5.963,2,6.238-4.797c1.311-32.377,1.385-65.004,1.385-97.36
	c1.854-1.028,4.199,20.54,3.596,22.903c-3.096,12.211-2.086,24.866-1.9,37.318c0.316,21.413,0.936,44.202-3.312,65.287
	c5.109,0,38.773,1.498,38.945-4.944c0.18-6.84-2.277-38.643,3.902-40.42c0.553,5.223,11.57,2.752,16.199,2.752
	c0.396-5.348-15.938-3.396-18.848-1.779c-2.727-11.2,21.875-2.959,25.225,4.396c2.957,6.492,3.268,14.45,4.998,21.327
	c0.508,2.019,10.266,20.022,7.955,20.873c-3.967,1.46-10.83-21.117-12.152-23.628c-5.807,2.123-26.514-0.448-25.143,8.568
	c1.162,7.642,3.711,13.574-4.672,14.201c-13.049,0.982-26.203,2.836-39.309,2.225c0.832-7.483,2.43-13.689,2.43-21.395
	c-8.031,1.488-16.209,0.506-24.311,0.696 M522.645,206.606c-4.133-3.993-14.463,3.271-19.322-1.821
	c-0.598,1.807-0.15,21.172-1.871,21.775c7.598-2.659,15.348-1.477,22.996-3.771C528.213,221.658,524.752,208.628,522.645,206.606
	C522.5,206.466,524.762,208.639,522.645,206.606z"/>
<path stroke="#000000" stroke-width="2" stroke-miterlimit="10" d="M463.608,119.371c-3.842,0.99,6.318-6.64,9.826-7.43
	c10.787-2.428,22.066,0.114,32.945-1.774c10.432-1.811,19.793-3.396,30.453-3.216c11.408,0.192,23.133-2.589,34.109,1.809
	c19.523,7.823,24.166,27.968,23.521,47.117c-0.746,22.152-19.793,28.949-38.117,32.613c7.121,6.615,17.326,20.162,20.402,29.367
	c3.652,10.926,11.029,20.202,14.859,30.736c-1.359-3.745-37.854,0.615-40.85,0.688c-2.686,0.065-6.947,1.16-9.607,0.521
	c-2.986-0.717-1.779-4.139,0.336-4.859c8.066-2.754,22.047,0.189,30.646-0.177c5.816-0.248,16.484,1.419,10.549-6.651
	c-5.053-6.873-6.754-15.044-10.654-22.568c-3.627-6.996-8.396-13.799-12.953-20.236c-1.086-1.534-16.23-9.775-6.969-9.691
	c17.838,0.159,33.732-7.957,38.758-25.231c4.057-13.941-0.408-37.747-13.834-45.613c-17.252-10.108-37.254-4.334-55.865-3.857
	c-4.703,4.431-20.482,3.7-26.5,3.38C483.483,113.701,474.229,116.639,463.608,119.371C463.11,119.5,467.981,118.247,463.608,119.371
	z"/>
<path stroke="#000000" stroke-width="2" stroke-miterlimit="10" d="M505.928,144.767c-7.398-5.201,13.938-3.318,14.697-3.272
	c8.084,0.486,23.598-3.474,27.871,6.064c11.443,25.548-34.316,27.058-47.428,21.94c2.373-5.418-1.781-22.69,4.842-24.701
	c-0.146,6.055-1.08,12.056-1.25,18.109c-0.193,6.896,6.299,5.87,12.227,5.108c8.23-1.058,16.479,2.688,24.166-2.332
	c7.514-4.908,8.346-19.027-2.029-20.318C530.924,144.359,512.588,149.441,505.928,144.767
	C504.792,143.966,506.198,144.955,505.928,144.767z"/>
<path stroke="#000000" stroke-width="2" stroke-miterlimit="10" d="M569.049,206.173c14.051-12.019,31.842-23.928,37.285-42.963
	c4.793-16.759-0.145-42.245-12.564-54.904c-13.305-13.563-30.961-19.466-50.602-22.419c-12.754-1.918-26.43-3.41-39.318-4.03
	c-12.885-0.62-24.93,7.946-37.287,6.306c24.828-8.626,47.09-9.14,72.863-4.758c18.416,3.131,39.594,6.331,53.352,20.244
	c13.916,14.075,19.189,37.656,15.67,56.756c-2.096,11.368-9.498,21.007-17.121,29.322c-4.088,4.461-8.314,8.853-13.086,12.594
	c-2.568,2.013-5.258,3.847-8.066,5.505C569.848,207.242,569.473,206.691,569.049,206.173"/>
<path stroke="#000000" stroke-width="2" stroke-miterlimit="10" d="M467.372,88.7c-12.859,8.58-25.752,15.539-36.301,27.514
	c-5.254,5.962-12.455,12.921-15.791,20.186c-1.602,3.485-3.311,6.918-4.912,10.403c-1.676,3.642-1.008,9.074-2.574,11.855
	c-6.877,12.215,4.027,31.277,16.219,35.094c6.027,1.888,12.584,4.283,18.846,5.221c1.932,0.29,18.408,3.129,18.221,3.309
	c-7.373,7.036-39.029-4.632-45.848-9.852c-16.611-12.717-11.574-36.719-3.533-52.576c8.004-15.788,20.574-29.049,34.639-39.61
	C449.454,97.902,464.846,84.748,467.372,88.7C466.446,89.318,467.202,88.434,467.372,88.7z"/>
<path fill="#FFFFFF" stroke="#000000" stroke-width="2" stroke-miterlimit="10" d="M100.148,111.751
	c1.142-4.618,27.662-3.415,31.679-3.986c3.533-0.502,19.37,2.047,21.157-0.64c1.688-2.537-8.643-4.14-10.7-3.804
	c-11.716,1.912-23.161,2.176-34.929,3.272c-7.997,0.745-6.097-3.891-6.645-10.93c-0.437-5.613,0.551-13.48,2.906-18.676
	c4.968-10.958,19.348-13.958,30.138-15.082c14.405-1.5,31.352-4.074,45.653-1.414c25.69,4.777,21.059,36.768,21.061,56.494
	c0.001,12.54-4.693,26.208-12.74,35.543c-4.344,5.04-15.372,3.765-21.196,4.149c-8.396,0.555-16.851,0.656-25.231,1.3
	c-14.586,1.122-27.788,9.528-31.384,24.11c-0.795,3.225,1.265,16.506-1.659,17.847c-6.776,3.106-13.502,0.245-20.144,1.067
	c-6.839,0.852-25.632,3.939-26.907-5.698c-1.796-13.552-5.143-26.025-4.24-39.979c0.626-9.681,0.72-23.934,7.639-31.458
	c3.862-4.2,9.021-10.692,15.097-11.33C86.645,111.81,93.596,114.017,100.148,111.751C99.88,112.835,98.716,112.246,100.148,111.751z
	 M128.012,80.072c-2.652-10.93-16.718-10.98-14.914,2.116C114.738,94.113,128.093,90.471,128.012,80.072
	C127.619,78.45,128.054,85.417,128.012,80.072z"/>
<path fill="#FFFFFF" stroke="#000000" stroke-width="2" stroke-miterlimit="10" d="M522.901,206.333
	c1.365,5.483,7.057,15.828-1.393,17.485c-5.641,1.104-14.441,2.702-19.945,2.431c-0.244-7.408,1.068-14.744,1.646-22.105
	C509.188,207.539,516.346,206.333,522.901,206.333C523.887,210.294,520.973,206.333,522.901,206.333z"/>
<path stroke="#000000" stroke-width="2" stroke-miterlimit="10" d="M128.012,80.072c0.081,10.399-13.274,14.042-14.914,2.116
	C111.294,69.091,125.36,69.142,128.012,80.072C128.054,85.417,127.619,78.45,128.012,80.072z M121.1,79.314
	c-0.358-1.381-0.788-2.74-1.289-4.077c-4.464,2.018-7.344,13.698-0.251,12.102c4.995-1.125,8.184-8.219,3.398-11.375
	C122.339,77.081,121.72,78.197,121.1,79.314C120.759,78.124,121.95,77.782,121.1,79.314z"/>
<path stroke="#000000" stroke-width="2" stroke-miterlimit="10" d="M192.581,227.16c1.558-3.285,2.825-9.933,7.281-10.31
	c4.112-0.347,8.402,3.702,8.043,7.907c-0.4,4.682-6.192,6.996-10.153,7.424C192.438,232.753,195.344,228.435,192.581,227.16
	C194.083,223.992,192.784,227.253,192.581,227.16z M196.129,225.442c-1.341,8.963,10.526,2.058,8.15-4.899
	c-4.106,7.822-0.661,0.002-5.194-1.633C197.788,220.682,193.323,224.014,196.129,225.442
	C195.956,226.601,195.999,225.376,196.129,225.442z"/>
<path fill="#FFFFFF" stroke="#000000" stroke-width="2" stroke-miterlimit="10" d="M122.958,75.964
	c5.882,3.879-1.342,14.521-6.052,10.868c-2.021-1.568-2.375-6.341-1.342-8.472C117.567,74.225,122.217,77.3,122.958,75.964
	C125.561,77.681,122.459,76.863,122.958,75.964z"/>
<path fill="#FFFFFF" stroke="#000000" stroke-width="2" stroke-miterlimit="10" d="M196.129,225.442
	c-6.991-3.562,9.194-6.889,8.15-4.899C206.655,227.5,194.788,234.405,196.129,225.442
	C195.999,225.376,195.956,226.601,196.129,225.442z"/>
</svg>
