<?xml version="1.0" encoding="utf-8"?>
<!-- Generator: Adobe Illustrator 16.0.4, SVG Export Plug-In . SVG Version: 6.00 Build 0)  -->
<!DOCTYPE svg PUBLIC "-//W3C//DTD SVG 1.1//EN" "http://www.w3.org/Graphics/SVG/1.1/DTD/svg11.dtd">
<svg version="1.1" id="Layer_1" xmlns="http://www.w3.org/2000/svg" xmlns:xlink="http://www.w3.org/1999/xlink" x="0px" y="0px"
	 width="277.064px" height="378.899px" viewBox="0 0 277.064 378.899" enable-background="new 0 0 277.064 378.899"
	 xml:space="preserve">
<path stroke="#000000" stroke-miterlimit="10" d="M97.641,335.297c3.707-7.551-1.275-18.98,2.72-26.502
	c2.522-4.746,21.365-5.758,26.907-5.268c1.971,0.176,16.106-1.84,16.166-0.421c0.347,7.958,1.562,25.917-2.669,31.905
	c-0.104-0.955-0.514-1.732-1.229-2.334c-1.843,0.611-5.328,8.662-6.926,7.73c-0.485-0.939-0.226-1.742,0.782-2.416
	c-2.263-0.209-2.474,1.609-1.711,3.389c-11.733,0.301-23.803,0.865-35.498,1.855c-0.188-0.676,3.25-5.09,3.66-5.682
	c1.689,0.91,0.951,2.404-2.215,4.482c0.223,0.021,5.519-0.645,3.729-1.656c-0.77-0.434-1.687,0.893-2.098-0.094
	c1.299-0.525,2.507-1.207,3.623-2.047c-0.916-0.135-1.58-0.607-1.99-1.422c2.047,0.646,3.283-0.225,3.712-2.613
	C102.308,334.635,99.896,334.948,97.641,335.297z M109.441,334.897c0-2.473-5.405-1.078-4.839,1.57
	c3.438,0.164,2.708,0.43,4.853-1.588c-1.911,5.953,4.232,0.002,5.039-1.441C112.044,333.131,111.085,332.971,109.441,334.897
	C109.441,334.602,109.844,334.424,109.441,334.897z M117.237,337.293c0.683,1.562,4.253,1.09,3.647-1.072
	c-0.002-0.01,5.139-0.418,6.153-2.795c-1.603-0.193-2.995,0.268-4.178,1.381c0.718-2.701-8.479-2.012-9.186,2.074
	c2.409-0.197,4.576-0.098,6.954-0.332c-0.212,1.1-7.138,1.314-8.296,1.744C114.082,338.465,115.717,338.133,117.237,337.293
	C117.353,337.557,116.56,337.569,117.237,337.293z M102.722,308.973c-2.504,7.279-0.48,15.965-1.385,23.484
	c0.099-0.809,19.927-0.023,22.094-0.275c2.145-0.252,16.196-0.707,16.095-2.164c-0.506-7.225-1.006-16.789,1.895-23.508
	C138.745,301.594,107.794,311.463,102.722,308.973C102.548,309.479,104.4,309.797,102.722,308.973z M106.337,340.143
	c-3.232-0.562,2.296-1.293,0.834-2.783c-2.555-2.627-4.998,2.992-4.985,4.412C103.646,341.772,106.375,342.522,106.337,340.143
	C106.18,340.116,106.359,341.532,106.337,340.143z M116.304,338.719c-4.679,0.305-3.988-0.59-5.789,3.059
	C115.649,341.579,114.37,342.758,116.304,338.719C114.751,338.821,115.794,339.784,116.304,338.719z M120.472,338.7
	c-1.979,0-5.034-0.291-4.459,2.734C116.43,343.54,120.241,339.262,120.472,338.7C119.306,338.7,120.388,338.905,120.472,338.7z
	 M106.797,341.461c3.904,0.441,3.054,1.225,4.159-2.451C110.561,340.301,107.465,339.026,106.797,341.461
	C107.85,341.581,107.269,339.743,106.797,341.461z M120.448,340.692c1.553,0.74,2.725,0.342,3.514-1.195
	C124.156,337.321,120.625,338.93,120.448,340.692C121.18,340.788,120.622,338.967,120.448,340.692z M130.495,332.917
	c-2.129-0.545-3.872,0.781-3.708,2.855C128.676,335.727,129.913,334.786,130.495,332.917z M137.395,332.762
	c-2.425-0.668-3.883,0.213-4.375,2.639C135.521,336.165,135.303,332.538,137.395,332.762
	C135.128,331.965,136.268,332.641,137.395,332.762z M133.074,333.088c-1.537-0.74-2.316-0.133-2.795,2.18
	C131.692,335.659,132.513,335.02,133.074,333.088z M111.938,337.62c-2.127-1.006-3.46-0.707-4.001,0.895
	C107.777,339.202,111.362,338.877,111.938,337.62C110.676,337.112,111.832,337.852,111.938,337.62z M130.724,338.559
	c-2.036-0.174-3.071,0.564-2.874,1.994C129.53,340.709,130.75,339.868,130.724,338.559z M124.47,340.592
	c1.979,0.078,2.854,0.129,2.69-1.791C124.781,338.852,124.531,339.018,124.47,340.592z M128.392,336.309
	c-1.393-0.09-2.366,0.439-2.921,1.588C126.714,338.004,128.354,338.221,128.392,336.309
	C127.566,336.522,128.367,337.575,128.392,336.309z M125.002,337.618c0.015-0.895-2.25-1.373-2.723-0.896
	C121.84,338.374,122.748,338.672,125.002,337.618C125.004,337.456,124.079,337.672,125.002,337.618z M131.488,336.266
	c-1.598-0.32-2.44,0.207-2.525,1.59C130.426,338.071,131.268,337.542,131.488,336.266
	C130.736,336.42,131.299,337.438,131.488,336.266z M132.999,335.993c-0.966,0.537-0.918,0.977,0.146,1.32
	C134.482,336.928,134.434,336.489,132.999,335.993C132.73,336.274,133.471,336.317,132.999,335.993z"/>
<path stroke="#000000" stroke-miterlimit="10" d="M141.4,221.42c-14.561,1.461-29.209,0.186-43.802,0.24
	c-5.363,0.024-2.073-30.041-2.107-36.15c-0.091-16.385,1.313-19.879,18.881-18.249c7.003,0.652,28.873-7.775,33.687-3.895
	c1.137,0.915-4.013,29.062-3.572,34.172c0.612,7.107,0.459,14.223,1.073,21.336C145.704,220.54,141.548,222.734,141.4,221.42
	C138.69,221.691,141.406,221.473,141.4,221.42z M111.785,177.516c-3.746-0.301-10.995,1.142-14.261-0.578
	c7.268-6.177,14.429,4.946,14.429-8.042c-16.684,1.149-15.103,4.123-14.921,20.805c0.105,9.575,0.984,20.018-1.199,29.244
	c-0.441,1.873,13.287,0.921,8.788,0.759c9.999,0.354,7.991-0.248,8.051-9.787C112.74,199.165,111.785,188.294,111.785,177.516
	C110.006,177.373,111.785,178.734,111.785,177.516z M131.835,220.293c-0.888-10.678-1.978-21.293-3.178-31.938
	c-1.47-13.002-1.769-12.395-14.518-10.972c-2.752,0.306-0.572,25.774-0.483,28.713C114.151,222.413,116.31,220.293,131.835,220.293
	C131.546,216.812,129.688,220.293,131.835,220.293z M142.845,219.475c3.949-3.037,0.647-36.859,0.647-42.702
	c-16.433,3.418-15.048-3.04-12.713,16.694c0.832,7.027,1.255,14.097,2.113,21.115C134.158,224.922,136.864,217.338,142.845,219.475
	C143.854,218.7,142.273,219.271,142.845,219.475z M145.559,165.755c-4.156-0.284-25.271-1.115-16.239,9.269
	c2.229,2.562,7.984-0.83,10.76,0.081C145.182,176.776,144.901,168.832,145.559,165.755
	C144.87,165.708,144.938,168.662,145.559,165.755z M127.367,167.538c-4.749,0.526-9.498,1.053-14.246,1.581
	c0.188,3.119-0.986,6.771,3.095,6.505C125.234,175.039,127.367,176.847,127.367,167.538
	C122.802,168.044,127.367,169.27,127.367,167.538z"/>
<path stroke="#000000" stroke-miterlimit="10" d="M40.129,247.202c1.336,2.338,0.849,5.045,1.987,7.309
	c3.731,7.404,20.1,5.585,27.456,4.851c12.667-1.265,38.885-5.075,47.253,4.843c9.021-10.521,26.948-10.152,41.19-10.131
	c7.087,0.012,14.405,0.307,21.476,0.686c11.922,0.642,5.254-4.418,9.887-6.609c2.363-1.119,1.597,5.346-0.02,6.564
	c-3.439,2.595-10.341,1.16-14.267,1.035c-10.54-0.332-20.937-0.224-31.46,0.27c-8.396,0.395-16.5,1.295-23.091,6.098
	c-4.36,3.194-1.107,18.289-0.554,22.375c0.352-0.764,1.881-5.966,3.513-5.621c-1.206,9.66-10.008,10.244-10.463,1.234
	c2.335,0.312,3.51,2.15,5.396,3.289c-0.898-6.889,1.116-17.689-6.645-22.08c-5.612-3.189-19.285-1.495-25.585-1.316
	c-9.589,0.271-19.354,1.808-28.932,1.205c-4.475-0.283-11.065-0.205-14.604-3.021C41.172,256.987,37.344,247.314,40.129,247.202
	C40.698,248.195,39.362,247.232,40.129,247.202z"/>
<path stroke="#000000" stroke-miterlimit="10" d="M122.955,106.35c-0.346,1.553-1.429,3.156-3.185,3.718
	c0.461-1.771,1.387-8.623,4.025-8.83c2.597-0.204,3.984,6.139,4.54,7.756c-2.333,0.71-3.1-2.781-3.644-4.074
	c1.891,6.142-1.702,13.196,2.081,18.645c2.971,4.28,8.795,5.606,14.042,6.44c6.217,0.988,12.553,1.413,18.851,1.757
	c6.337,0.347,13.104,0.298,19.123,2.295c5.88,1.95,9.308,6.076,12.076,10.849c0.087,0.151,0.996,1.807,1.018,1.799
	c0.089-0.03-7.112-8.101-8.968-9.301c-3.396-2.195-11.981-2.334-16.098-2.904c-15.696-2.174-35.522,1.542-43.665-13.409
	c-6.293,4.883-10.482,9.407-19.123,10.904c-9.716,1.684-19.372,2.44-29.258,3.065c-6.848,0.433-12.262,0.783-18.227,4.195
	c-2.028,1.161-12.633,13.335-11.13,13.746c-4.373-1.187,8.166-13.243,9.291-13.965c9.169-5.894,19.536-5.38,30.39-6.042
	c10.102-0.619,19.14-1.693,27.968-5.796c3.767-1.75,13.52-14.97,9.923-20.809c0.024,0.015-0.468,0.41-0.229,0.233
	C122.793,106.513,122.858,106.421,122.955,106.35z"/>
<path stroke="#000000" stroke-miterlimit="10" d="M166.081,168.612c-11.07,8.535-2.983,23.581-4.711,35.537
	c-0.623,4.324,4.748,2.223,4.692,0.743c-0.169-4.64-2.342-14.144,0.082-18.059c3.204,0.495,1.141,27.231,1.141,30.486
	c7.257-1.059,25.023-2.936,27.423,2.444c-4.891,1.103-11.227-2.562-16.657-1.708c-11.795,1.854-12.086,2.761-12.086-9.635
	c-7.035-2.32-5.592,4.992-5.628-6.264c-0.03-11.48-0.527-2.217-5.229-6.539c-1.365-1.255-1.025-17.646-0.955-19.84
	c0.436-13.434,9.99-27.402,25.939-20.179c-2.335,3.316-0.895,7.619-1.3,11.499c3.246,0.334,5.836-0.345,9.025-0.792
	c-0.244,3.352-0.49,6.703-0.735,10.054c2.421-0.125,4.839-0.248,7.26-0.373c0.28,6.463,6.36,43,1.974,46.195
	c-2.974-14.221-0.501-29.364-3.705-43.493c-4.614-0.88-10.004-1.665-14.699-1.559c-11.718,0.261-6.097,7.932-14.564,10.065
	c3.406-6.188,2.992-10.779,10.438-11.291c9.976-0.686,11.741,3.617,11.741-7.725c-6.288,1.214-13.094,0.662-19.463,0.446
	c1.196-3.155,9.384-1.321,11.714-1.321c0-11.825-0.429-11.567-11.614-9.977c-10.475,1.489-10.751,12.788-10.509,21.267
	c0.057,2.063,3.133,22.434,4.177,12.819c0.502-4.592-2.806-12.611-0.559-16.701C158.315,176.453,165.675,163.481,166.081,168.612
	C165.417,169.124,166.051,168.227,166.081,168.612z"/>
<path stroke="#000000" stroke-miterlimit="10" d="M78.122,215.395c-0.021-0.006,3.666-38.75,4.119-44.062
	c-7.596,0-15.226-0.35-22.817,0.028c-4.557,0.227-16.355,3.967-19.879,1.811c5.428-6.449,40.872-6.62,47.112-3.751
	c0.087,1.562-2.801,2.528-3.161,6.271c-0.515,5.356-1.089,10.709-1.532,16.072c-0.724,8.757-2.537,19.746-1.104,28.438
	c0.473,2.883-40.863,0.811-40.801,1.485c-0.605-6.66,36.246,0.88,38.625-1.612C78.856,218.487,78.668,216.928,78.122,215.395
	C78.505,215.481,78.352,216.618,78.122,215.395z"/>
<path stroke="#000000" stroke-miterlimit="10" d="M86.153,354.104c3.695-5.094,12.2,2.277,15.958-5.572
	c1.632-3.41,16.378-3.719,16.511-1.838c-0.061-0.867-2.462,5.186-1.979,3.76c-0.722,2.133,9.659,0.16,10.805,0.029
	c4.435-0.508,9.51-17.221,13.083-15.352c-3.629,4.742-6.091,10.371-10.576,14.443c0.12,0.275,1.373,0.545,1.798,0.9
	C127.989,354.485,91.585,354.75,86.153,354.104C86.637,353.438,86.802,354.182,86.153,354.104z M116.6,347.563
	c-7.996,0-12.139-3.51-15.065,4.811C107.709,352.374,114.068,353.778,116.6,347.563C115.81,347.563,116.441,347.952,116.6,347.563z"
	/>
<path stroke="#000000" stroke-miterlimit="10" d="M119.25,46.813C120.451,45.253,119.122,47.037,119.25,46.813
	c6.115-7.94-3.959-3.771-3.161-10.751c0.743-6.501,4.774-12.619,11.979-10.147c-3.707-2.58-6.063-1.332-7.771,2.351
	c-1.06,2.287-3.064,7.22-2.796,9.754c0.83,7.812,7.966,1.472,10.432-1.116c6.129-6.479-1.803-6.308,0.049-11.002
	c6.068,2.887,1.647,11.523-1.854,14.693c-4.586,4.151-4.041-0.942-4.534,5.646c-2.794,0,12.178,10.974,12.348,12.839
	c-5.55,1.027-8.385-6.271-12.484-8.239c-0.552,2.478,1.468,14.698-2.172,15.311C119.527,60.343,117.635,49.643,119.25,46.813z"/>
<path stroke="#000000" stroke-miterlimit="10" d="M231.899,116.996c-0.911-0.184-1.823-0.368-2.734-0.552
	c0.045-2.088,3.307-0.636,4.089-3.018c1.714-5.224,2.892-12.664,5.74-17.289c3.176,2.21,1.819,31.9,2.461,32.027
	c-9.646-1.943,6.76-12.543-7.435-11.382c-2.826,0.234-2.267,8.641-4.912,10.383C228.788,123.695,231.126,120.36,231.899,116.996
	C230.882,116.791,231.819,117.345,231.899,116.996z M239.372,99.621c-1.008-0.1-4.855,12.597-5.165,14.663
	c-0.247,1.672,4.781,1.607,5.556,0.906C241.827,113.319,239.715,102.278,239.372,99.621
	C239.235,99.607,239.55,100.997,239.372,99.621z"/>
<path stroke="#000000" stroke-miterlimit="10" d="M229.441,293.124C230.588,292.518,231.129,294.399,229.441,293.124
	c4.044-2.14,14.882-10.088,11.476-16.158c-2.735-4.879-10.619,1.736-9.541,5.979c-3.689-2.889-2.09-4.427,1.08-6.298
	c2.688-1.587,6.355-4.078,9.028-1.081c3.763,4.222-2.522,10.067-3.858,14.12c6.742,2.125,9.066,11.711,3.689,16.574
	c-2.618,2.367-16.774,5.143-11.56-0.705c3.812,3.049,10.118,3.709,12.628-3.809C247.642,286.006,232.675,295.567,229.441,293.124z"
	/>
<path stroke="#000000" stroke-miterlimit="10" d="M41.925,175.06c0,7.464,4.344,37.771-0.932,42.674
	C37.742,214.084,37.85,176.304,41.925,175.06C41.925,181.452,41.588,175.163,41.925,175.06z"/>
<path stroke="#000000" stroke-miterlimit="10" d="M118.821,68.669c-5.141-1.192-7.84,13.918-12.915,14.922
	c-0.156-2.503,12.087-18.427,13.292-16.418c1.105,1.847,10.417,15.129,9.047,15.415C125.989,83.058,119.155,70.802,118.821,68.669
	C117.447,68.35,119.248,71.396,118.821,68.669z"/>
<path stroke="#000000" stroke-miterlimit="10" d="M48.25,179.665c3.037-3.622,24.89-1.309,28.431,0.5
	C74.412,181.883,49.791,182.034,48.25,179.665C48.553,179.303,48.354,179.826,48.25,179.665z"/>
<path stroke="#000000" stroke-miterlimit="10" d="M45.429,203.823c-1.76-4.004,22.013-2.779,25.445-4.396
	C72.108,200.899,50.208,203.165,45.429,203.823C44.681,202.12,46.148,203.724,45.429,203.823z"/>
<path stroke="#000000" stroke-miterlimit="10" d="M72.006,213.937c-2.271-0.181-23,2.817-23.266-1.179
	C48.844,214.271,70.149,208.76,72.006,213.937C69.824,213.763,71.731,213.168,72.006,213.937z"/>
<path stroke="#000000" stroke-miterlimit="10" d="M228.114,280.799c2.095,3.441,1.372,28.1-2.032,31.145
	C225.92,310.971,226.867,290.575,228.114,280.799z"/>
<path stroke="#000000" stroke-miterlimit="10" d="M97.625,335.284c0.771,3.668-9.029,15.994-12.26,17.744
	C84.418,352.049,96.248,337.116,97.625,335.284z"/>
<path stroke="#000000" stroke-miterlimit="10" d="M46.584,190.245c-0.582-3.504,22.062-2.481,24.345-1.411
	C65.422,192.059,53.253,189.662,46.584,190.245C46.358,188.885,49.256,190.01,46.584,190.245z"/>
<path stroke="#000000" stroke-miterlimit="10" d="M185.181,182.762c0.442,0.114-0.056,0.136-0.002,0.001
	c0.213-0.527,1.674,1.381,1.637,1.956c-0.066,1.063-1.529,2.085-2.3,2.608c-2.792,1.892-5.367,1.324-8.351,0.24
	c-2.765-1.004-3.343,1.014-5.048,3.527c-1.234-4.721,2.412-5.244,5.92-5.226c1.586,0.009,3.239,0.203,4.787-0.268
	C182.276,185.464,185.679,182.891,185.181,182.762z"/>
<path stroke="#000000" stroke-miterlimit="10" d="M172.856,200.678C173.251,199.461,173.582,200.417,172.856,200.678
	c0.589-1.82,1.38-5.602,3.888-5.301c1.956,0.233,2.759,3.322,5.096,2.942c1.705-0.276,2.951-3.104,4.583-3.882
	c-1.225,0.583-0.895,4.23-3.104,5.053c-2.261,0.842-4.684-1.013-6.287-2.367C175.361,195.708,174.464,200.103,172.856,200.678z"/>
<path stroke="#000000" stroke-miterlimit="10" d="M175.19,211.922c-0.926-0.16,0.106-0.404,0.001-0.002
	c-0.075,0.281-0.891-1.16-0.882-1.496c0.016-0.771,0.935-1.653,1.548-2.004c1.22-0.698,2.366-0.396,3.556,0.131
	c2.585,1.148,4.146,2.921,6.727,0.75C187.117,217.209,176.894,205.725,175.19,211.922z"/>
<path stroke="#000000" stroke-miterlimit="10" d="M119.25,46.813c-1.397,2.451-9.049,8.531-11.859,9.096
	C108.201,51.747,115.632,48.451,119.25,46.813C119.122,47.037,118.383,47.205,119.25,46.813z"/>
<path fill="#FFFFFF" stroke="#000000" stroke-miterlimit="10" d="M102.722,308.973c5.071,2.49,36.021-7.379,38.697-2.463
	c-2.58,5.977-2.076,13.836-2.177,20.271c-0.11,7.141-6.481,4.145-12.764,5c-8.056,1.094-16.2,0.26-24.344,1.33
	C100.534,333.325,101.894,311.383,102.722,308.973C104.4,309.797,102.548,309.479,102.722,308.973z"/>
<path fill="#FFFFFF" stroke="#000000" stroke-miterlimit="10" d="M117.25,337.307c1.342,0.496,2.468,0.244,3.378-0.758
	c-2.377,0.234-4.544,0.135-6.954,0.332c0.708-4.086,9.903-4.775,9.186-2.074c1.183-1.113,2.575-1.574,4.178-1.381
	c-1.015,2.377-6.155,2.785-6.153,2.795C121.71,339.167,118.063,337.649,117.25,337.307z"/>
<path fill="#FFFFFF" stroke="#000000" stroke-miterlimit="10" d="M106.337,340.143c0.039,2.381-2.69,1.629-4.151,1.629
	c-0.013-1.42,2.431-7.039,4.985-4.412C108.633,338.85,103.104,339.581,106.337,340.143
	C106.359,341.532,106.18,340.116,106.337,340.143z"/>
<path fill="#FFFFFF" stroke="#000000" stroke-miterlimit="10" d="M109.441,334.897c1.643-1.928,2.604-1.766,5.053-1.459
	c-2.35,4.207-0.946,3.383-5.661,3.383C109.697,335.01,109.9,334.368,109.441,334.897z"/>
<path fill="#FFFFFF" stroke="#000000" stroke-miterlimit="10" d="M116.304,338.719c-1.935,4.039-0.654,2.859-5.789,3.059
	C112.316,338.129,111.625,339.022,116.304,338.719C115.794,339.784,114.751,338.821,116.304,338.719z"/>
<path fill="#FFFFFF" stroke="#000000" stroke-miterlimit="10" d="M109.455,334.881c-2.146,2.016-1.416,1.75-4.853,1.586
	C103.83,332.856,108.643,334.012,109.455,334.881z"/>
<path fill="#FFFFFF" stroke="#000000" stroke-miterlimit="10" d="M120.472,338.7c-0.23,0.562-4.042,4.84-4.459,2.734
	C115.438,338.409,118.493,338.7,120.472,338.7C120.388,338.905,119.306,338.7,120.472,338.7z"/>
<path fill="#FFFFFF" stroke="#000000" stroke-miterlimit="10" d="M106.797,341.461c0.668-2.436,3.765-1.16,4.159-2.451
	C109.85,342.686,110.701,341.903,106.797,341.461C107.269,339.743,107.85,341.581,106.797,341.461z"/>
<path fill="#FFFFFF" stroke="#000000" stroke-miterlimit="10" d="M120.448,340.692c0.177-1.762,3.708-3.371,3.514-1.195
	C123.173,341.034,122.001,341.432,120.448,340.692C120.622,338.967,121.18,340.788,120.448,340.692z"/>
<path fill="#FFFFFF" stroke="#000000" stroke-miterlimit="10" d="M130.495,332.917c-0.582,1.869-1.819,2.811-3.708,2.855
	C126.623,333.698,128.366,332.372,130.495,332.917z"/>
<path fill="#FFFFFF" stroke="#000000" stroke-miterlimit="10" d="M137.395,332.762c-2.092-0.225-1.873,3.402-4.375,2.639
	C133.511,332.975,134.97,332.094,137.395,332.762C136.268,332.641,135.128,331.965,137.395,332.762z"/>
<path fill="#FFFFFF" stroke="#000000" stroke-miterlimit="10" d="M133.074,333.088c-0.561,1.932-1.382,2.57-2.795,2.18
	C130.758,332.956,131.537,332.348,133.074,333.088z"/>
<path fill="#FFFFFF" stroke="#000000" stroke-miterlimit="10" d="M111.938,337.62c-0.577,1.258-4.162,1.582-4.001,0.895
	C108.478,336.913,109.812,336.614,111.938,337.62C111.832,337.852,110.676,337.112,111.938,337.62z"/>
<path fill="#FFFFFF" stroke="#000000" stroke-miterlimit="10" d="M130.724,338.559c0.026,1.311-1.194,2.15-2.874,1.994
	C127.652,339.124,128.688,338.385,130.724,338.559z"/>
<path fill="#FFFFFF" stroke="#000000" stroke-miterlimit="10" d="M124.47,340.592c0.062-1.574,0.312-1.74,2.69-1.791
	C127.325,340.721,126.449,340.67,124.47,340.592z"/>
<path fill="#FFFFFF" stroke="#000000" stroke-miterlimit="10" d="M128.392,336.309c-0.039,1.912-1.679,1.695-2.921,1.588
	C126.026,336.749,127,336.219,128.392,336.309C128.367,337.575,127.566,336.522,128.392,336.309z"/>
<path fill="#FFFFFF" stroke="#000000" stroke-miterlimit="10" d="M117.237,337.293c-1.521,0.84-3.156,1.172-4.905,1
	C116.544,336.731,112.82,337.766,117.237,337.293z"/>
<path fill="#FFFFFF" stroke="#000000" stroke-miterlimit="10" d="M125.002,337.618c-2.254,1.055-3.162,0.756-2.723-0.896
	C122.751,336.245,125.016,336.725,125.002,337.618C124.079,337.672,125.004,337.456,125.002,337.618z"/>
<path fill="#FFFFFF" stroke="#000000" stroke-miterlimit="10" d="M131.488,336.266c-0.221,1.275-1.062,1.807-2.525,1.59
	C129.048,336.473,129.89,335.944,131.488,336.266C131.299,337.438,130.736,336.42,131.488,336.266z"/>
<path fill="#FFFFFF" stroke="#000000" stroke-miterlimit="10" d="M132.999,335.993c1.437,0.496,1.484,0.936,0.146,1.32
	C132.08,336.969,132.032,336.53,132.999,335.993C133.471,336.317,132.73,336.274,132.999,335.993z"/>
<path fill="#FFFFFF" stroke="#000000" stroke-miterlimit="10" d="M111.785,177.516c0,10.779,0.955,21.648,0.887,32.398
	c-0.005,0.836,0.61,10.354-1.083,10.262c-0.874-0.045-16.057,0.048-15.755-1.232c2.184-9.225,1.305-19.669,1.199-29.244
	c-0.182-16.682-1.763-19.656,14.921-20.805c0,12.988-7.161,1.866-14.429,8.042C100.79,178.657,108.039,177.215,111.785,177.516
	C111.785,178.734,110.006,177.373,111.785,177.516z"/>
<path fill="#FFFFFF" stroke="#000000" stroke-miterlimit="10" d="M131.835,220.293c-9.876,0-17.196,3.4-17.805-7.631
	c-0.604-11.008-2.467-23.606-0.678-34.522c0.286-1.751,8.205-1.49,9.348-1.558c6.665-0.394,4.797,1.291,5.472,8.047
	C129.364,196.532,130.844,208.364,131.835,220.293C129.688,220.293,131.546,216.812,131.835,220.293z"/>
<path fill="#FFFFFF" stroke="#000000" stroke-miterlimit="10" d="M142.845,219.475c-5.981-2.137-8.688,5.447-9.952-4.895
	c-0.858-7.018-1.281-14.088-2.113-21.113c-2.335-19.735-3.72-13.277,12.713-16.695C143.493,182.615,146.795,216.438,142.845,219.475
	C142.273,219.271,143.854,218.7,142.845,219.475z"/>
<path fill="#FFFFFF" stroke="#000000" stroke-miterlimit="10" d="M145.559,165.755c-2.495,11.665-4.244,8.958-14.838,9.704
	c-2.844,0.2-3.518-6.879-2.198-8.315C130.222,165.293,142.881,165.572,145.559,165.755
	C144.938,168.662,144.87,165.708,145.559,165.755z"/>
<path fill="#FFFFFF" stroke="#000000" stroke-miterlimit="10" d="M127.367,167.538c0,9.309-2.133,7.501-11.151,8.086
	c-2.348,0.611-3.306-0.277-2.875-2.665C113.223,165.763,121.35,168.205,127.367,167.538
	C127.367,169.27,122.802,168.044,127.367,167.538z"/>
<path fill="#FFFFFF" stroke="#000000" stroke-miterlimit="10" d="M166.081,168.612c-0.214-2.705-2.504-0.274-3.17,0.893
	c-4.684,8.208-2.739,10.813-3.275,20.195c-0.448,7.823-3.155,2.63-3.61-4.238c-0.38-5.745-2.945-25.37,6.246-27.436
	c12.65-2.851,15.506-3.708,15.506,9.282C173.241,167.308,169.971,166.66,166.081,168.612z"/>
<path fill="#FFFFFF" stroke="#000000" stroke-miterlimit="10" d="M116.6,347.563c-2.532,6.215-8.892,4.811-15.065,4.811
	C104.462,344.053,108.604,347.563,116.6,347.563C116.441,347.952,115.81,347.563,116.6,347.563z"/>
<path fill="#FFFFFF" stroke="#000000" stroke-miterlimit="10" d="M239.372,99.621c0.933,7.223,4.09,15.356-4.281,15.637
	C233.43,115.312,238.238,99.509,239.372,99.621C239.55,100.997,239.235,99.607,239.372,99.621z"/>
<path stroke="#000000" stroke-miterlimit="10" d="M143.577,59.74C144.778,58.18,143.449,59.963,143.577,59.74
	c6.115-7.94-3.959-3.771-3.161-10.751c0.743-6.501,4.774-12.619,11.979-10.147c-3.707-2.58-6.063-1.332-7.771,2.351
	c-1.06,2.287-3.064,7.22-2.796,9.754c0.83,7.812,7.966,1.472,10.431-1.116c6.13-6.479-1.803-6.308,0.05-11.002
	c6.068,2.887,1.647,11.523-1.854,14.693c-4.586,4.151-4.041-0.942-4.534,5.646c-2.794,0,12.178,10.973,12.348,12.838
	c-5.552,1.027-8.386-6.27-12.484-8.239c-0.552,2.478,1.469,14.698-2.172,15.311C143.854,73.27,141.962,62.57,143.577,59.74z"/>
<path stroke="#000000" stroke-miterlimit="10" d="M143.148,81.596c-5.142-1.192-7.84,13.918-12.915,14.922
	c-0.156-2.503,12.087-18.428,13.292-16.418c1.104,1.846,10.417,15.129,9.047,15.414C150.316,95.984,143.482,83.729,143.148,81.596
	C141.774,81.277,143.575,84.323,143.148,81.596z"/>
<path stroke="#000000" stroke-miterlimit="10" d="M143.577,59.74c-1.397,2.451-9.049,8.531-11.86,9.096
	C132.528,64.673,139.959,61.377,143.577,59.74C143.449,59.963,142.71,60.132,143.577,59.74z"/>
<path stroke="#000000" stroke-miterlimit="10" d="M85.584,57.03C86.786,55.47,85.457,57.253,85.584,57.03
	c6.115-7.94-3.959-3.771-3.161-10.751c0.743-6.501,4.774-12.619,11.979-10.147c-3.707-2.58-6.063-1.332-7.771,2.351
	c-1.06,2.287-3.064,7.22-2.796,9.754c0.83,7.812,7.966,1.472,10.432-1.116c6.129-6.479-1.804-6.308,0.049-11.002
	c6.068,2.887,1.647,11.523-1.854,14.693c-4.586,4.151-4.041-0.942-4.534,5.646c-2.794,0,12.178,10.973,12.348,12.838
	c-5.551,1.027-8.385-6.27-12.484-8.239c-0.552,2.478,1.469,14.698-2.172,15.311C85.862,70.56,83.97,59.86,85.584,57.03z"/>
<path stroke="#000000" stroke-miterlimit="10" d="M85.156,78.886c-5.141-1.192-7.84,13.918-12.915,14.922
	C72.084,91.305,84.328,75.38,85.532,77.39c1.105,1.846,10.417,15.129,9.047,15.414C92.324,93.274,85.49,81.019,85.156,78.886
	C83.782,78.567,85.583,81.613,85.156,78.886z"/>
<path stroke="#000000" stroke-miterlimit="10" d="M85.584,57.03c-1.397,2.451-9.049,8.531-11.859,9.096
	C74.536,61.963,81.967,58.667,85.584,57.03C85.457,57.253,84.718,57.422,85.584,57.03z"/>
</svg>
