<?xml version="1.0" encoding="utf-8"?>
<!-- Generator: Adobe Illustrator 16.0.4, SVG Export Plug-In . SVG Version: 6.00 Build 0)  -->
<!DOCTYPE svg PUBLIC "-//W3C//DTD SVG 1.1//EN" "http://www.w3.org/Graphics/SVG/1.1/DTD/svg11.dtd">
<svg version="1.1" id="Layer_1" xmlns="http://www.w3.org/2000/svg" xmlns:xlink="http://www.w3.org/1999/xlink" x="0px" y="0px"
	 width="963.387px" height="293.985px" viewBox="0 0 963.387 293.985" enable-background="new 0 0 963.387 293.985"
	 xml:space="preserve">
<path fill-rule="evenodd" clip-rule="evenodd" d="M915.329,114.45c-0.007-8.23-0.382-16.461-0.522-24.692
	c-0.039-2.352,0.311-4.709,0.275-7.061c-0.06-3.86-0.756-7.77-0.342-11.566c0.665-6.086,2.229-12.072,2.989-18.153
	c0.354-2.827-0.282-5.777-0.476-8.671c-0.068-1.02-0.476-2.146-0.178-3.039c1.274-3.829,0.676-5.158-3.411-5.399
	c-5.103-0.302-10.242-0.012-15.35-0.27c-3.224-0.164-6.425-1.275-9.627-1.239c-7.535,0.085-15.065,0.585-22.597,0.953
	c-11.945,0.583-23.896,1.077-35.83,1.833c-8.695,0.55-17.368,1.449-26.049,2.215c-7.123,0.628-14.243,1.283-21.363,1.938
	c-5.165,0.474-10.355,0.796-15.49,1.503c-3.555,0.49-7.002,1.96-10.555,2.218c-7.952,0.578-15.94,0.639-23.912,0.978
	c-5.908,0.251-11.808,0.749-17.716,0.887c-8.098,0.188-16.202,0.067-24.302,0.214c-6.541,0.119-13.105,0.153-19.609,0.752
	c-5.972,0.551-11.895,1.72-17.811,2.775c-4.599,0.82-8.822,4.471-5.978,9.765c1.353,2.517,1.649,5.838,1.645,8.794
	c-0.01,5.191-0.542,10.388-0.991,15.571c-1.153,13.388-2.26,26.782-3.62,40.151c-1.188,11.694-2.922,23.335-3.998,35.039
	c-0.997,10.837-1.459,21.725-2.127,32.593c-0.422,6.892-0.895,13.784-1.155,20.684c-0.289,7.622-0.385,15.251-0.516,22.88
	c-0.08,4.587,0.122,9.187-0.151,13.759c-0.235,3.9,3.644,7.945,7.571,7.469c1.546-0.188,3.1-0.313,4.684-0.469
	c0.36-0.689,0.771-1.473,1.185-2.257c-0.008,0.001-0.017,0.003-0.024,0.004l0.046-0.045c-0.007,0.014-0.015,0.027-0.021,0.041
	c1.469-0.251,2.937-0.503,4.406-0.754l-0.038,0.037c5.262-0.507,10.515-1.335,15.785-1.454c11.824-0.266,23.658-0.287,35.486-0.198
	c7.492,0.058,14.997,0.257,22.465,0.812c10.924,0.812,21.822,2.001,32.73,3.028l-0.038-0.038c1.72,0.241,3.438,0.484,5.16,0.726
	c0,0-0.046,0.044-0.047,0.044c17.681,1.678,34.915,1.891,52.474,1.339c3.722-0.117,7.459-0.269,11.218-0.447
	c15.735-0.75,30.96-1.192,46.61-3.324c6.196-0.844,12.218-1.253,18.324,0.335c3.684,0.958,7.71,3.125,11.247,0.67
	c4.675-3.245,5.757-11.562,6.472-16.652c1.079-7.693,0.842-15.446,0.359-23.174l-0.896-38.486 M915.472,142.824 M799.302,252.012
	c-0.364,0.146-0.73,0.236-1.083,0.231c-5.409-0.077-10.814-0.356-16.222-0.566c0-0.243,0-0.484,0-0.729
	c0.336-2.506,0.858-5.017,1.062-7.539c0.345-4.276-0.177-9.215-0.068-13.608c0.102-4.11,2.303-7.521,2.333-11.497
	c0.052-7.067,1.297-13.704,2.009-20.855c0.754-7.575,1.929-15.073,2.584-22.721c1.419-16.555,4.995-32.95,4.031-49.658l20.373-1.461
	c2.968,0.314,12.083,2.871,14.832,1.658c-0.669-0.128-1.278-0.376-1.767-0.864c0.488,0.488,1.098,0.736,1.767,0.864
	c0.056-0.025,0.126-0.042,0.177-0.069c-0.052,0.028-0.087,0.052-0.134,0.079c1.485,0.271,3.26-0.036,4.699,0.327
	c0.054-0.222,0.106-0.444,0.159-0.666c2,0.669,3.999,1.338,5.997,2.007c0.093,0.009,0.185,0.017,0.276,0.026
	c0.006,0.017,0.015,0.031,0.021,0.048c5.26-0.371,10.519-0.784,15.78-1.058c0.663-0.035,1.9,0.593,1.962,1.04
	c0.37,2.693,0.474,5.425,0.668,8.144c-0.08,0.004-0.168,0.016-0.254,0.025c1.647,10.235-0.897,20.471-2.833,30.706
	c0.221-0.29,0.441-0.58,0.663-0.869c-0.003-0.027-0.006-0.055-0.009-0.082c0.021-0.041,0.04-0.081,0.059-0.12
	c0.041-0.407,0.025-0.252,0.002-0.004c0.022-0.046,0.039-0.081,0.055-0.111c0.061-0.127,0.084-0.176,0,0
	c-0.017,0.033-0.035,0.07-0.055,0.112c0-0.001,0-0.001,0-0.001c0,0.001-0.001,0.001-0.001,0.002c-0.005,0.05-0.01,0.103-0.015,0.156
	c-0.012,0.016-0.024,0.031-0.036,0.048c1.212,10.311,1.404,20.565-0.359,30.89c-0.633,3.704,0.644,7.692,0.573,11.541
	c-0.191,10.614-0.66,21.224-0.967,31.837c-0.095,3.207-0.015,6.418-0.015,10.208c-10.862,0.63-21.351,1.239-31.977,1.855
	 M785.081,206.227c-0.002-0.029,0.156-0.073,0.238-0.111c0.041,0.186,0.082,0.373,0.122,0.561c-0.084,0.039-0.166,0.078-0.251,0.116
	C785.151,206.604,785.098,206.418,785.081,206.227z M904.362,137.786 M906.055,236.327c-0.112,0.596,1.796,7.216-2.334,7.741
	c-7.871,1.001-2.862,1.064-10.953,1.869c-8.687,0.863-17.378,1.671-26.068,2.487c-0.693,0.065-1.399,0.009-2.479,0.009
	c0.152-2.891,0.29-5.529,0.431-8.168c0.057-1.082,0.48-2.312,0.113-3.224c-2.055-5.098-0.278-9.749,1.021-14.624
	c0.607-2.283-0.238-5.026-0.706-7.509c-0.993-5.286,0.343-10.693-1.473-16.051c-0.8-2.368,0.915-5.588,1.487-8.42
	c-0.015-0.018-0.03-0.035-0.045-0.054c0.002,0.03,0.004,0.06,0.006,0.089c-0.065-0.104-0.129-0.208-0.194-0.311
	c0.063,0.074,0.126,0.148,0.188,0.222c-0.077-1.365-0.26-2.736-0.194-4.096c0.312-6.42,1.076-12.849,0.846-19.244
	c-0.079-2.213-0.288-4.588-0.567-6.689c-0.419-3.141,0.055-5.594,1.155-8.296c0.39-0.957,0.242-2.159,0.235-3.248
	c-0.037-5.46-0.189-10.92-0.14-16.379c0.03-3.235,0.134-6.501,0.615-9.69c0.447-2.958-1.22-3.399-3.332-3.331
	c-3.267,0.105-6.533,0.72-9.783,0.617c-6.454-0.207-12.898-0.748-19.344-1.167c-3.962-0.257-7.928-0.475-11.88-0.832
	c-5.846-0.527-11.674-1.236-17.522-1.728c-4.439-0.374-8.915-0.878-13.343-0.671c-8.998,0.42-5.146,24.716-5.399,30.79
	c-0.666,15.971-3.767,31.548-5.6,47.388c-2.21,19.093-4.946,38.245-4.946,57.482c-7.488-0.564-14.566-1.114-21.647-1.625
	c-14.741-1.062-29.47-2.518-44.23-3.028c-12.716-0.44-25.488-0.18-38.199,0.495c-9.498,0.505-18.935,2.164-28.401,3.291
	c-0.695,0.083-1.41,0.01-2.764,0.01c-0.225-4.579-0.73-9.142-0.61-13.686c0.203-7.634,0.839-15.254,1.23-22.884
	c0.903-17.646,1.45-35.32,2.757-52.938c0.945-12.731,2.941-25.382,4.354-38.082c0.844-7.563,1.647-15.139,2.149-22.73
	c0.74-11.183,1.192-22.384,1.777-33.577c0.05-0.963,0.136-1.93,0.291-2.88c0.482-2.927,1.004-5.846,1.511-8.769
	c-0.343-0.269-0.687-0.537-1.028-0.805c1.343-0.175,2.685-0.354,4.027-0.525c4.761-0.604,9.509-1.388,14.289-1.752
	c4.453-0.339,8.939-0.267,13.412-0.305c3.266-0.026,6.536,0.139,9.802,0.086c9.309-0.148,18.62-0.283,27.924-0.579
	c8.478-0.271,16.946-1,25.42-1.05c6.372-0.038,12.407-1.54,18.589-2.645c7.241-1.296,14.681-1.516,22.043-2.113
	c15.817-1.286,31.64-2.514,47.462-3.761c0.846-0.066,1.692-0.113,2.542-0.134c12.08-0.306,24.159-0.708,36.24-0.859
	c4.949-0.062,9.904,0.428,14.857,0.652c4.356,0.196,8.72,0.311,13.072,0.579c3.082,0.19,6.152,0.577,9.227,0.876
	c0.022,0.31,0.043,0.62,0.065,0.931l-6.339,87.1 M905.055,202.869 M903.046,171.402"/>
<path fill-rule="evenodd" clip-rule="evenodd" d="M838.132,131.845c-0.02,0.001-0.039,0.003-0.059,0.004
	c-0.075-0.025-0.15-0.05-0.227-0.076c-2.031-0.19-4.062-0.381-6.094-0.572c0.058-0.239,0.114-0.479,0.171-0.718
	c-1.385-0.35-3.092-0.054-4.521-0.315c-0.564,0.327-0.845,0.575-1.131,0.601c-7.63,0.67-13.196,5.37-18.222,10.299
	c-5.46,5.354-7.592,12.621-8.533,20.158c-0.914,7.32,0.33,14.139,5.935,19.251c2.468,2.255,5.908,3.483,8.993,5.006
	c1.208,0.594,2.64,0.734,3.973,1.075c-0.001-0.011-0.003-0.021-0.004-0.031l0.04,0.039c-0.012-0.003-0.024-0.006-0.036-0.008
	c0.117,1.305,0.678,2.799,0.222,3.857c-0.688,1.593-1.838,3.268-3.251,4.227c-6.45,4.374-13.101,8.456-19.578,12.793
	c-0.949,0.638-1.358,2.084-2.017,3.158c1.283,0.254,2.668,0.94,3.825,0.668c1.85-0.439,3.61-1.405,5.299-2.348
	c3.287-1.837,6.523-3.777,9.728-5.755c1-0.615,1.836-1.49,3.107-2.547c0.788,0.048,2.223,0.136,3.942,0.241
	c-0.091,1.95-0.104,3.899-0.289,5.834c-0.812,8.475-1.335,16.997-4.223,25.135c-0.816,2.298-1.588,4.686-1.839,7.091
	c-0.385,3.656-2.754,5.366-5.543,7.048c-2.573,1.55-4.924,3.469-7.428,5.142c-0.528,0.353-1.128,0.749-1.73,0.99
	c7.558,2.304,16.254,3.51,23.158-1.057c-2.579-4.97-0.882-9.802,0.123-14.703c1.287-6.276,2.248-12.62,3.412-18.922
	c0.391-2.114,0.969-4.194,1.604-6.899c3.986,3.606,7.706,6.55,10.893,9.983c2.521,2.718,5.199,1.82,7.635,0.875
	c2.349-0.913,0.853-2.697-0.175-3.919c-1.633-1.941-3.389-3.776-5.096-5.656c-4.432-3.148-7.367-7.185-9.092-12.498
	c-0.746-2.301-3.772-3.861-5.812-5.805c0.491-1.521,1.032-3.195,1.573-4.87l-0.034,0.034c-1.005-2.563,1.142-1.429,2.045-1.74
	c4.478-1.536,8.957-3.064,13.435-4.596l-0.037,0.037c1.432-1.204,3.128-2.208,4.236-3.659c1.821-2.381,3.266-5.052,4.87-7.6
	l0.035,0.036c0.485-0.637,0.97-1.272,1.456-1.908c1.862-9.848,5.477-18.127,2.726-29.541c-1.035,0.11-5.688-4.98-6.046-5.42
	 M826.201,209.052l-0.167,0.208l-0.105-0.247L826.201,209.052z M853.346,160.332l0.192,0.163l-0.234,0.092L853.346,160.332z
	 M816.326,199.188l0.035-0.034L816.326,199.188z M812.129,252.473c-0.066-0.224-0.135-0.447-0.199-0.672
	c0.655-0.096,1.309-0.191,1.965-0.288c0.036,0.188,0.073,0.377,0.11,0.564C813.379,252.21,812.755,252.342,812.129,252.473z
	 M846.721,142.966c4.041,1.316,3.151,6.617,2.006,10.635c-1.452,5.089-3.232,10.086-4.907,15.111
	c-2.278,6.83-9.928,12.812-17.851,11.703c-2.05-0.287-4.223,0.232-6.255-0.111c-1.527-0.259-2.939-1.275-4.367-2.02
	c-0.505-0.263-0.863-0.953-1.364-1.048c-6.812-1.28-7.999-6.427-7.957-12.04c0.039-5.311,0.908-10.602,3.472-15.353
	c0.954-1.765,2.66-3.125,4.03-4.666c-0.002,0.002-0.003,0.002-0.006,0.004l0.034-0.033c-0.009,0.01-0.019,0.02-0.028,0.029
	c2.719-0.885,3.591-3.159,4.22-5.616c0-0.241-0.001-0.48-0.001-0.721c0.236,0.005,0.472,0.009,0.707,0.015
	c1.883-0.761,3.878-1.327,5.628-2.323c3.719-2.118,6.889-0.53,9.706,1.536"/>
<path fill-rule="evenodd" clip-rule="evenodd" d="M856.441,164.689C856.525,164.514,856.502,164.562,856.441,164.689
	L856.441,164.689z"/>
<path fill-rule="evenodd" clip-rule="evenodd" d="M856.441,164.689c-0.016,0.03-0.032,0.065-0.055,0.111c0,0,0,0,0,0.001
	C856.406,164.76,856.425,164.723,856.441,164.689z"/>
<path fill-rule="evenodd" clip-rule="evenodd" d="M856.387,164.802c0.023-0.249,0.039-0.405-0.002,0.003
	C856.386,164.804,856.386,164.803,856.387,164.802z"/>
<path fill-rule="evenodd" clip-rule="evenodd" d="M649.979,254.609c0.008-0.001,0.017-0.003,0.024-0.004
	c0.007-0.014,0.015-0.027,0.021-0.041L649.979,254.609z"/>
<path fill-rule="evenodd" clip-rule="evenodd" d="M814.767,140.882c0.003-0.001,0.004-0.002,0.007-0.003
	c0.01-0.011,0.02-0.021,0.029-0.031L814.767,140.882z"/>
<path fill-rule="evenodd" clip-rule="evenodd" d="M819.853,183.859c0.001,0.011,0.003,0.021,0.004,0.032
	c0.013,0.003,0.025,0.006,0.038,0.009L819.853,183.859z"/>
<path fill-rule="evenodd" clip-rule="evenodd" d="M865.055,190.474c-0.002-0.029-0.004-0.059-0.006-0.089
	c-0.062-0.073-0.125-0.147-0.188-0.222C864.926,190.266,864.989,190.37,865.055,190.474z"/>
<path fill-rule="evenodd" clip-rule="evenodd" d="M842.467,210.092c0.01,0.011,0.02,0.021,0.029,0.032
	c0.004,0.003,0.008,0.006,0.012,0.009L842.467,210.092z"/>
<path fill-rule="evenodd" clip-rule="evenodd" d="M840.052,126.945c0.079,0.026,0.157,0.052,0.235,0.079
	c0.021-0.001,0.041-0.003,0.062-0.004c-0.006-0.017-0.015-0.031-0.021-0.048C840.236,126.962,840.145,126.954,840.052,126.945z"/>
<path fill-rule="evenodd" clip-rule="evenodd" d="M856.385,164.805c-0.019,0.039-0.038,0.079-0.059,0.12
	c0.003,0.027,0.006,0.055,0.009,0.082c0.012-0.017,0.024-0.032,0.036-0.048c0.005-0.054,0.01-0.106,0.015-0.156
	C856.386,164.804,856.386,164.805,856.385,164.805L856.385,164.805z"/>
<polygon fill-rule="evenodd" clip-rule="evenodd" points="856.385,164.806 856.386,164.804 856.385,164.805 "/>
<polygon fill-rule="evenodd" clip-rule="evenodd" points="856.386,164.803 856.386,164.804 856.387,164.802 "/>
<path fill-rule="evenodd" clip-rule="evenodd" d="M856.387,164.802c0.02-0.042,0.038-0.079,0.055-0.112
	C856.426,164.721,856.408,164.756,856.387,164.802C856.387,164.803,856.387,164.802,856.387,164.802z"/>
<path fill-rule="evenodd" clip-rule="evenodd" d="M439.501,52.223c11.398-0.184,22.242,2.37,32.39,7.326
	c4.704,2.296,9.375,5.243,13.076,8.894c10.812,10.667,19.35,23.014,24.71,37.355c5.003,13.385,10.164,26.719,14.781,40.237
	c3.569,10.457,2.612,21.022-2.605,30.689c-2.354,4.36-6.482,7.771-9.843,11.58c-2.323,2.633-4.895,5.065-7.032,7.836
	c-10.109,13.106-20.526,26.249-35.176,34.513c-13.271,7.486-28.903,11.539-44.138,11.405c-8.252-0.073-17.371-1.022-25.306-3.396
	c-10.626-3.18-20.809-8.163-29.866-14.562c-16.931-11.963-31.721-23.009-39.243-43.264c-6.459-17.392-10.173-38.252-4.229-56.283
	c5.011-15.203,15.522-28.281,27.709-38.408c9.761-8.111,20.314-15.795,32.017-20.858c12.729-5.507,26.336-9.083,39.734-12.887
	C430.513,51.254,435.145,52.223,439.501,52.223z M435.822,141.298c0.105-0.123,4.501-1.017,5.171-1.345
	c1.947-0.953,3.8-2.173,5.678-3.255c4.795-2.764,9.572-5.56,14.355-8.346c7.085-4.127,14.152-8.28,21.24-12.402
	c6.689-3.891,13.438-7.684,20.039-11.719c0.824-0.503,1.604-2.593,1.22-3.317c-2.608-4.904-5.503-9.659-8.378-14.419
	c-3.075-5.092-13.446,7.079-15.761,9.357c-5.714,5.621-11.142,11.528-16.836,17.167
	C453.362,122.115,444.163,131.482,435.822,141.298z M327.829,131.083c-0.714,1.871-1.252,3.774-1.434,5.697
	c-0.269,2.844,0.917,3.588,1.948,5.99c2.588,6.027,0.666,14.311,1.479,20.828c0.757,6.062,2.919,12.226,5.246,17.86
	c1.095,2.653,2.775,3.547,4.63,5.546c1.989,2.145,2.424,4.569,3.708,7.118c1.672,3.321,4.545,5.652,6.732,8.604
	c4.161,5.618,7.837,9.143,13.323,13.428c1.201,0.937,2.987,1.126,4.506,1.659c0.489,0,0.979,0,1.469,0.001
	c1.112,0.688,2.292,1.293,3.324,2.085c2.979,2.291,5.815,4.777,8.891,6.924c0.934,0.654,2.503,0.325,3.709,0.686
	c1.425,0.426,2.817,1.023,4.14,1.707c1.793,0.929,3.469,2.088,5.277,2.981c0.688,0.34,1.657,0.07,2.411,0.329
	c5.379,1.843,10.62,4.222,16.119,5.541c12.781,3.062,24.742-2.445,37.066-4.216l-0.032,0.032c8.822-2,16.497-3.936,23.574-9.881
	c6.358-5.342,11.345-12.073,17.361-17.768c5.263-4.98,9.626-10.154,14.317-15.652c4.503-5.277,10.785-9.225,14.047-15.475
	c6.921-13.261,1.91-26.367-1.973-39.56c-2.627-8.926-6.6-17.457-10.012-26.149c-0.425-1.081-1.046-2.085-1.649-3.271
	c-3.374,1.865-6.468,3.461-9.45,5.245c-5.481,3.279-10.85,6.752-16.355,9.991c-8.329,4.898-16.737,9.664-25.111,14.489
	c-1.99,1.146-3.979,2.298-5.969,3.447c-5.747,3.316-11.632,6.42-17.203,10.015c-8.931,5.763,4.529,8.815,8.44,12.393
	c5.267,4.819,10.255,9.906,15.746,14.544c4.792,4.048,11.442,6.233,15.458,10.743c4.309,4.84,9.576,7.626,14.344,11.812
	c0.643,0.565-1.828,2.638-2.341,2.748c-1.351,0.289-2.429-0.789-3.344-1.619c-2.946-2.674-5.968-5.28-9.089-7.747
	c-6.63-5.239-13.346-10.373-20.029-15.546c-8.812-6.819-17.656-13.599-26.403-20.498c-1.113-0.878-2.506-2.409-2.463-3.59
	c0.339-9.205,0.933-18.403,1.58-27.595c0.426-6.048,1.117-12.077,1.604-18.121c0.664-8.21,0.725-16.509,2.015-24.617
	c1.265-7.952,0.532-15.688,0.963-23.654c5.42-0.753,2.139,14.329,1.912,17.143c-0.644,7.976-1.345,15.948-1.693,23.944
	c-0.336,7.713-1.495,15.36-2.233,23.04c-0.309,3.216-3.833,25.423,3.797,19.384c3.021-2.391,5.349-6.114,8.195-8.789
	c3.122-2.933,6.15-5.862,8.972-9.092c1.915-2.192,3.816-4.313,5.864-6.373c11.344-11.406,23.361-22.124,35.122-33.093
	c1.915-1.786,3.557-3.159,1.205-5.947c-6.901-8.175-14.383-15.106-25.105-18.396c-15.512-4.759-30.94-6.969-46.814-2.46
	c-14.966,4.25-29.933,8.755-42.879,17.665c-9.581,6.593-18.592,14.04-27.609,21.41c-2.837,2.319-5.473,5.31-7.154,8.538
	c-2.816,5.405-5.383,10.935-7.932,16.47C330.715,124.904,329.025,127.948,327.829,131.083z"/>
<path fill-rule="evenodd" clip-rule="evenodd" d="M213.122,251.941c-2.342-2.4-4.667-2.718-7.92-2.243
	c-4.771,0.695-9.687,0.317-14.526,0.631c-3.232,0.209-6.497,0.575-9.641,1.32c-10.449,2.477-6.823-17.05-7.015-22.535
	c-0.45-12.853-0.67-25.622,0.456-38.461c1.572-17.909,2.76-35.798,1.667-53.775c-0.315-5.192-0.618-10.372-0.617-15.578
	c0-4.544-1.532-10.63,1.451-14.526c0.446,0.692,1.377,2.205,1.201,3.086c-2.25,11.237-0.491,22.45-0.1,33.69
	c0.357,10.238,0.261,20.513-0.142,30.752c-0.275,6.974-1.954,13.904-2.072,20.87c-0.274,16.319-0.155,32.65,0.175,48.969
	c0.102,4.997,1.073,5.118,5.932,3.643c2.513-0.763,5.199-1.06,7.83-1.299c6.377-0.579,12.764-1.127,19.158-1.43
	c2.797-0.132,3.108-1.637,3.049-3.805c-0.359-13.336-0.779-26.673-1.01-40.012c-0.168-9.693-0.002-19.392-0.125-29.086
	c-0.111-8.732-0.606-17.463-0.581-26.192c0.029-10.303,0.274-20.612,0.771-30.902c0.154-3.206-1.019-4.135-3.835-4.774
	c-7.274-1.651-14.459-0.642-21.682,0.147c-1.291,0.14-2.61,0.02-4.654,0.02c1.52,0,5.116-2.385,6.958-2.814
	c2.98-0.695,6.034-1.089,9.091-1.24c5.801-0.287,12.371,0.095,17.558,2.978c-1.451,8.218-2.098,15.636-2.143,24.098
	c-0.046,8.657-0.024,17.316,0.042,25.975c0.129,16.742,0.799,33.372,0.641,50.139c-0.061,6.406-0.029,12.813,0.046,19.221
	c0.037,3.154-0.512,6.312-0.266,9.469C213.172,242.824,218.201,248.235,213.122,251.941z"/>
<path fill-rule="evenodd" clip-rule="evenodd" d="M98.186,181.16c-1.854-4.075-0.892-9.946-0.859-14.368
	c0.078-10.542,0.292-21.086,0.66-31.622c0.619-17.677,1.164-35.364,2.247-53.015c0.389-6.357,2.36-12.604,3.384-18.938
	c0.675-4.173,1.062-8.404,1.296-12.626c0.042-0.762-1.141-2.049-2.005-2.327c-3.54-1.138-33.051,1.404-37.188,0.311
	c1.112-0.397,2.101-1.106,3.002-1.01c3.841,0.411,33.573-2.488,37.333-1.637c0.847,0.192,2.023,2.062,1.886,2.985
	c-1.372,9.21-2.669,18.452-4.612,27.552c-2.781,13.033-3.011,26.22-3.258,39.427c-0.224,11.978-0.153,23.975-0.441,35.957
	c-0.125,5.191-0.648,10.437-0.434,15.624C99.366,171.586,101.085,177.725,98.186,181.16z"/>
<path fill-rule="evenodd" clip-rule="evenodd" d="M63.61,239.916c-8.733-15.085-3.105-125.683-4.096-142.525
	c-0.787-13.376-7.562-43.322,5.4-49.324c-4.575,2.119-5.133,6.013-4.906,10.691c0.86,17.754,1.632,35.515,2.746,53.253
	c0.735,11.716,2.094,23.392,2.948,35.108C65.866,149.369,64.782,238.062,63.61,239.916z"/>
<path fill-rule="evenodd" clip-rule="evenodd" d="M124.974,152.779c1.107-0.595,2.718-1.142,4.067-1.086
	c7.616,0.316,15.232,0.703,22.836,1.23c3.873,0.27,3.938,1.323,3.557,5.137c-0.562,5.622-0.269,11.336-0.281,17.009
	c-0.022,9.708-0.014,19.417-0.033,29.125c-0.004,2.307,0.126,4.66-0.02,6.963c-0.087,1.296-0.704,2.821-1.347,3.851
	c-2.832-6.614-0.246-16.159-0.298-23.204c-0.061-8.196-1.133-16.275-0.647-24.486c0.41-6.936,1.211-12.034-7.127-12.308
	C138.939,154.789,131.189,156.054,124.974,152.779z"/>
<path fill-rule="evenodd" clip-rule="evenodd" d="M121.581,151.811c1.702,14.138-0.095,28.881-0.146,43.084
	c-0.027,7.436,0.382,14.867,0.245,22.304c-0.032,1.73-2.525,20.026-2.644,19.949c-2.183-1.43-0.769-8.146-0.38-10.536
	c0.621-3.826,0.052-6.381-0.361-10.181c-0.731-6.734,0.939-13.372,1.659-20.028c0.742-6.856,0.554-13.978,0.393-20.867
	c-0.109-4.633-0.957-9.217-1.136-13.847c-0.086-2.221-0.262-4.752,0.313-6.926c0.303-1.143,1.223-2.369,2.046-3.049
	C121.573,151.746,121.577,151.778,121.581,151.811z"/>
<path fill-rule="evenodd" clip-rule="evenodd" d="M63.61,239.916c4.176-0.958,8.31-2.311,12.542-2.772
	c4.549-0.497,9.192-0.099,13.792-0.206c4.446-0.102,5.559-1.056,5.679-5.677c0.104-4.511-1.575-11.061,0.022-15.25
	c1.233,2.023,1.064,23.991,0.733,24.007c-11.349,0.545-23.17-0.551-34.821,2.414c-0.843-2.156-0.843-2.156,2.094-2.554
	C63.65,239.877,63.61,239.916,63.61,239.916z"/>
<path fill-rule="evenodd" clip-rule="evenodd" d="M123.373,240.516c-0.191-0.589,0.413-1.158,2.167-1.474
	c1.77-0.318,3.67-0.585,5.409-0.274c7.637,1.363,15.007-0.221,22.344-1.896c0.917-0.209,2.121-2.064,2.062-3.095
	c-0.168-3.006-0.966-5.97-1.406-8.968c-0.291-1.979-0.52-4.222-0.08-6.123c1.537,7.881,5.629,17.546,0.141,24.806
	c-2.415-4.278-10.164-1.852-14.145-1.784c-3.141,0.053-6.285,0.079-9.426,0.089c-1.599,0.005-4.102,0.561-5.571-0.075
	C124.051,241.367,123.509,240.937,123.373,240.516z"/>
<path fill-rule="evenodd" clip-rule="evenodd" d="M97.899,183.045c-0.631,9.837-1.263,19.674-1.928,30.042
	c-0.458-0.725-0.874-1.073-0.858-1.4c0.434-8.902,0.882-17.804,1.438-26.698c0.042-0.663,0.906-1.275,1.387-1.912
	C97.937,183.076,97.899,183.045,97.899,183.045z"/>
<path fill-rule="evenodd" clip-rule="evenodd" d="M61.066,219.875c0,1.238,0,2.476,0,3.715c-0.226-0.003-0.452-0.006-0.676-0.01
	c0-1.24,0-2.48,0-3.723C60.614,219.863,60.84,219.87,61.066,219.875z"/>
<path fill-rule="evenodd" clip-rule="evenodd" d="M920.064,327.711c-0.124-0.13-0.246-0.261-0.366-0.391
	c0.087-0.065,0.227-0.199,0.253-0.182c0.141,0.105,0.254,0.247,0.376,0.377C920.24,327.58,920.153,327.646,920.064,327.711z"/>
<path fill-rule="evenodd" clip-rule="evenodd" d="M921.198,291.765c-0.219,0.22-0.438,0.438-0.658,0.655
	c-0.087-0.179-0.174-0.357-0.262-0.535c0.319-0.029,0.636-0.058,0.954-0.085L921.198,291.765z"/>
<path fill-rule="evenodd" clip-rule="evenodd" d="M818.381,259.003c0.312,0.036,0.624,0.071,0.152,0.018
	c0.43,0.206,0.155,0.074-0.121-0.057L818.381,259.003z"/>
<path fill-rule="evenodd" clip-rule="evenodd" d="M921.232,291.8l-0.034-0.035L921.232,291.8z"/>
<path fill-rule="evenodd" clip-rule="evenodd" d="M649.979,254.609l0.046-0.045L649.979,254.609z"/>
<path fill-rule="evenodd" clip-rule="evenodd" d="M97.895,182.302c0,0.247,0.001,0.494,0.003,0.742c0,0.001,0.039,0.032,0.039,0.032
	c0-0.27,0-0.538-0.001-0.807C97.937,182.269,97.895,182.302,97.895,182.302z"/>
<path fill-rule="evenodd" clip-rule="evenodd" fill="#FFFFFF" d="M819.853,183.859c0.001,0.011,0.003,0.021,0.004,0.032
	c0.013,0.003,0.025,0.006,0.038,0.009L819.853,183.859z"/>
<path fill-rule="evenodd" clip-rule="evenodd" fill="#FFFFFF" d="M829.33,125.197l-0.491-0.005c0.118,0.031,0.235,0.062,0.357,0.084
	C829.243,125.25,829.278,125.226,829.33,125.197z"/>
<path fill-rule="evenodd" clip-rule="evenodd" fill="#FFFFFF" d="M808.051,141.068c5.025-4.93,10.592-9.629,18.222-10.299
	c0.286-0.026,0.566-0.274,1.131-0.601c-0.117-0.021-0.23-0.052-0.344-0.081l-33.799-0.36c-1.645,7.486,0.045,14.927-0.291,22.475
	c-0.674,15.18-4.083,30.253-5.601,45.365c-1.024,10.22-3.103,20.301-4.127,30.52c-0.479,4.782-0.797,9.635-0.553,14.442
	c0.135,2.645,1.406,7.133-0.731,9.278c-0.003,0.003,0.038-0.037,0.038-0.037c5.201,0.202,10.401,0.471,15.605,0.545
	c0.924,0.014,1.938-0.654,2.772-1.213c2.504-1.673,4.854-3.592,7.428-5.142c2.789-1.682,5.158-3.392,5.543-7.048
	c0.251-2.405,1.022-4.793,1.839-7.091c2.888-8.138,3.41-16.66,4.223-25.135c0.186-1.935,0.198-3.884,0.289-5.834
	c-1.72-0.105-3.154-0.193-3.942-0.241c-1.271,1.057-2.107,1.932-3.107,2.547c-3.204,1.978-6.44,3.918-9.728,5.755
	c-1.688,0.942-3.449,1.908-5.299,2.348c-1.157,0.272-2.542-0.414-3.825-0.668c0.658-1.074,1.067-2.521,2.017-3.158
	c6.478-4.337,13.128-8.419,19.578-12.793c1.413-0.959,2.563-2.634,3.251-4.227c0.456-1.059-0.104-2.553-0.222-3.857
	c-1.333-0.341-2.765-0.481-3.973-1.075c-3.085-1.522-6.525-2.751-8.993-5.006c-5.604-5.112-6.849-11.931-5.935-19.251
	C800.459,153.689,802.591,146.423,808.051,141.068z"/>
<path fill-rule="evenodd" clip-rule="evenodd" fill="#FFFFFF" d="M856.328,164.925c0.003,0.026,0.005,0.053,0.009,0.079
	c0.011-0.015,0.022-0.029,0.034-0.045L856.328,164.925z"/>
<path fill-rule="evenodd" clip-rule="evenodd" fill="#FFFFFF" d="M842.467,210.092c0.011,0.012,0.021,0.023,0.032,0.035
	c0.003,0.002,0.005,0.004,0.008,0.006L842.467,210.092z"/>
<path fill-rule="evenodd" clip-rule="evenodd" fill="#FFFFFF" d="M848.727,153.601c-1.452,5.089-3.232,10.086-4.907,15.111
	c-2.278,6.83-9.928,12.812-17.851,11.703c-2.05-0.287-4.223,0.232-6.255-0.111c-1.527-0.259-2.939-1.275-4.367-2.02
	c-0.505-0.263-0.863-0.953-1.364-1.048c-6.812-1.28-7.999-6.427-7.957-12.04c0.039-5.311,0.908-10.602,3.472-15.353
	c0.96-1.776,2.684-3.143,4.059-4.695l-0.034,0.033c2.724-0.885,3.596-3.16,4.226-5.62l-0.024,0.02c0.25-0.251,0.501-0.5,0.75-0.752
	l-0.019,0.025c1.882-0.761,3.877-1.327,5.627-2.322c3.719-2.118,6.889-0.53,9.706,1.536"/>
<path fill-rule="evenodd" clip-rule="evenodd" fill="#FFFFFF" d="M840.289,127.023c0.02-0.001,0.04-0.003,0.06-0.004
	c-0.006-0.017-0.015-0.031-0.021-0.048L840.289,127.023z"/>
<path fill-rule="evenodd" clip-rule="evenodd" fill="#FFFFFF" d="M858.091,127.001c-0.062-0.446-1.299-1.075-1.962-1.04
	c-5.263,0.274-10.521,0.687-15.78,1.058c1.385,3.907,4.565,5.969,8.294,5.896c2.875-0.056,5.037-0.027,6.963,2.335
	c0.371,0.458,1.824,0.034,2.899-0.081c-0.041-0.256-0.071-0.512-0.118-0.768c0.047,0.256,0.077,0.512,0.118,0.768
	c0.086-0.009,0.174-0.021,0.254-0.025C858.564,132.426,858.461,129.694,858.091,127.001z"/>
<path fill-rule="evenodd" clip-rule="evenodd" fill="#FFFFFF" d="M833.896,125.604c0.56,0.141,1.071,0.379,1.491,0.799
	C834.967,125.982,834.455,125.745,833.896,125.604c-0.059,0.249-0.118,0.498-0.178,0.747c2.111,0.199,4.223,0.397,6.334,0.595
	c-1.998-0.669-3.997-1.338-5.997-2.007C834.002,125.16,833.949,125.382,833.896,125.604z"/>
<path fill-rule="evenodd" clip-rule="evenodd" fill="#FFFFFF" d="M840.328,126.971c-0.092-0.009-0.184-0.017-0.276-0.026
	c0.079,0.026,0.157,0.052,0.235,0.079C840.289,127.023,840.328,126.971,840.328,126.971z"/>
<path fill-rule="evenodd" clip-rule="evenodd" fill="#FFFFFF" d="M813.112,251.708c0.681-0.099,1.36-0.198,2.042-0.299
	c0.038,0.195,0.076,0.392,0.115,0.587c-0.65,0.138-1.3,0.274-1.95,0.411C813.25,252.175,813.18,251.941,813.112,251.708z"/>
<path fill-rule="evenodd" clip-rule="evenodd" fill="#FFFFFF" d="M785.441,206.676c-0.084,0.039-0.166,0.078-0.251,0.116
	c-0.039-0.188-0.093-0.374-0.109-0.565c-0.002-0.029,0.156-0.073,0.238-0.111C785.36,206.301,785.401,206.488,785.441,206.676z"/>
<polygon fill-rule="evenodd" clip-rule="evenodd" fill="#FFFFFF" points="856.162,156.631 856.119,156.896 856.362,156.8 "/>
<path fill-rule="evenodd" clip-rule="evenodd" fill="#FFFFFF" d="M856.385,164.805c0.001-0.001,0.001-0.002,0.002-0.003
	C856.41,164.553,856.426,164.396,856.385,164.805z"/>
<path fill-rule="evenodd" clip-rule="evenodd" fill="#FFFFFF" d="M856.385,164.805c-0.019,0.039-0.038,0.079-0.059,0.12
	c0.002,0,0.045,0.034,0.045,0.034c0.005-0.054,0.01-0.106,0.015-0.156C856.386,164.804,856.386,164.805,856.385,164.805
	L856.385,164.805z"/>
<rect x="856.385" y="164.802" fill-rule="evenodd" clip-rule="evenodd" fill="#FFFFFF" width="0.001" height="0.003"/>
<path fill-rule="evenodd" clip-rule="evenodd" fill="#FFFFFF" d="M856.387,164.802C856.387,164.802,856.387,164.803,856.387,164.802
	c0.021-0.046,0.039-0.081,0.055-0.112C856.425,164.723,856.406,164.76,856.387,164.802z"/>
<path fill-rule="evenodd" clip-rule="evenodd" fill="#FFFFFF" d="M856.441,164.689C856.502,164.562,856.525,164.514,856.441,164.689
	L856.441,164.689z"/>
<polygon fill-rule="evenodd" clip-rule="evenodd" fill="#FFFFFF" points="827.947,207.272 827.773,207.489 827.664,207.232 "/>
<path fill-rule="evenodd" clip-rule="evenodd" fill="#FFFFFF" d="M798.045,258.937c-0.158-0.057-0.316-0.115-0.318-0.116
	c-0.001-0.002,0.139,0.082,0.28,0.165L798.045,258.937z"/>
<path fill-rule="evenodd" clip-rule="evenodd" fill="#FFFFFF" d="M781.997,251.677c0-0.243,0-0.484,0-0.729l-0.042-0.043
	c0,0.272,0,0.543,0,0.813L781.997,251.677z"/>
<path fill-rule="evenodd" clip-rule="evenodd" fill="#FFFFFF" d="M865.094,190.438c-0.076-0.092-0.154-0.184-0.233-0.275
	c0.065,0.103,0.129,0.207,0.194,0.311C865.053,190.474,865.094,190.438,865.094,190.438z"/>
<path fill-rule="evenodd" clip-rule="evenodd" fill="#FFFFFF" d="M781.938,236.327c-0.054,0.152-0.105,0.305-0.109,0.317
	c0.004-0.007,0.08-0.144,0.154-0.28L781.938,236.327z"/>
<path fill-rule="evenodd" clip-rule="evenodd" fill="#FFFFFF" d="M819.158,134.291c0.245,0.005,0.49,0.01,0.735,0.016
	c0.001,0,0.02-0.026,0.02-0.026c-0.261-0.002-0.523-0.004-0.785-0.006L819.158,134.291z"/>
<path fill-rule="evenodd" clip-rule="evenodd" fill="#FFFFFF" d="M819.159,135.041c0-0.25-0.001-0.5-0.001-0.75l-0.03-0.017
	c0.003,0.262,0.005,0.524,0.006,0.788L819.159,135.041z"/>
<path fill-rule="evenodd" clip-rule="evenodd" fill="#FFFFFF" d="M765.96,256.765c0,0-0.046,0.044-0.047,0.044L765.96,256.765z"/>
<path fill-rule="evenodd" clip-rule="evenodd" fill="#FFFFFF" d="M760.838,256.077l-0.038-0.038
	C760.8,256.038,760.838,256.077,760.838,256.077z"/>
<path fill-rule="evenodd" clip-rule="evenodd" fill="#FFFFFF" d="M654.409,253.852l-0.038,0.037L654.409,253.852z"/>
<path fill-rule="evenodd" clip-rule="evenodd" fill="#FFFFFF" d="M819.895,183.9l-0.042-0.041L819.895,183.9z"/>
<path fill-rule="evenodd" clip-rule="evenodd" fill="#FFFFFF" d="M844.695,179.486l-0.039,0.039L844.695,179.486z"/>
<path fill-rule="evenodd" clip-rule="evenodd" fill="#FFFFFF" d="M842.467,210.092l0.041,0.041
	C842.507,210.133,842.467,210.092,842.467,210.092z"/>
<path fill-rule="evenodd" clip-rule="evenodd" fill="#FFFFFF" d="M814.803,140.848l-0.036,0.034L814.803,140.848z"/>
<path fill-rule="evenodd" clip-rule="evenodd" fill="#FFFFFF" d="M817.683,197.02l0.036-0.036L817.683,197.02z"/>
<path fill-rule="evenodd" clip-rule="evenodd" fill="#FFFFFF" d="M817.719,196.983l-0.036,0.036L817.719,196.983z"/>
<path fill-rule="evenodd" clip-rule="evenodd" fill="#FFFFFF" d="M787.099,195.525c0,0-0.038,0.039-0.038,0.038L787.099,195.525z"/>
<path fill-rule="evenodd" clip-rule="evenodd" fill="#FFFFFF" d="M432.521,156.404c-2.745-4.899,0.724-8.821,7.111-12.531
	c11.188-6.499,23.114-11.642,34.116-18.475c10.603-6.585,21.161-13.267,32.204-19.102c5.385,7.083,7.849,18.159,10.858,26.454
	c5.533,15.249,10.624,34.278-0.839,48.179c-8.264,10.021-18.412,19.131-27.482,28.448c-5.592,5.743-10.862,11.901-17.315,16.716
	c-2.894,2.158-5.897,3.813-9.332,4.974c-2.531,0.854-9.775,1.064-11.502,2.817l0.032-0.032c-12.325,1.771-24.286,7.278-37.066,4.216
	c-5.5-1.319-10.74-3.698-16.119-5.541c-0.754-0.259-1.723,0.011-2.411-0.329c-1.808-0.894-3.483-2.053-5.277-2.981
	c-4.278-2.211-8.764-2.971-12.634-6.042c-2.814-2.233-5.59-4.247-8.655-6.117c-0.184,0.295-0.178,0.545-0.339,0.771
	c-17.777-10.329-31.869-29.466-36.634-49.547c-2.603-10.969-4.936-23.333-3.184-34.6c1.967-12.652,9.172-25.048,17.451-34.61
	c10.354-11.958,23.75-21.574,37.878-28.496c14.508-7.108,30.425-13.786,46.712-14.882c8.773-0.59,18.905,0.039,27.388,2.519
	c9.824,2.872,37.974,12.808,29.744,27.581c-4.369,7.842-13.901,13.056-20.594,18.688c-7.149,6.016-13.106,12.906-19.094,20.036
	c-6.344,7.554-13.413,14.049-21.069,20.249c0.009-0.007-0.647-10.557-0.54-11.69c0.411-4.347,0.899-8.684,1.255-13.036
	c0.769-9.419,1.283-18.856,1.888-28.287c0.556-8.658,1.971-17.324,2.344-25.979c0.108-2.509,0.549-6.751-2.785-7.294
	c-1.385,5.283-0.396,11.966-0.73,17.43c-0.375,6.133-0.945,12.252-1.643,18.356c-1.38,12.078-1.25,24.251-2.69,36.319
	c-1.136,9.52-2.842,19.65,3.662,27.675c5.36,6.614,13.255,10.815,20.203,15.494c8.643,5.82,15.181,13.141,23.088,19.724
	c4.081,3.398,9.789,7.845,15.394,5.324c-7.919-5.787-15.378-12.047-22.961-18.255c-8.649-7.08-18.548-12.718-26.934-20.073
	C434.387,159.041,433.241,157.689,432.521,156.404z M516.706,178.481c0,0-0.036-0.039-0.038-0.039L516.706,178.481z
	 M331.834,162.404c0.438,0.354,0.734,0.736,0.891,0.687c0.271-0.087,0.579-0.418,0.636-0.693c0.047-0.233-0.241-0.534-0.381-0.803
	C332.652,161.824,332.325,162.057,331.834,162.404z"/>
<path fill-rule="evenodd" clip-rule="evenodd" fill="#FFFFFF" d="M435.788,141.203c1.852,0.53,15.92-17.246,17.958-19.333
	c7.689-7.879,15.608-15.536,23.5-23.217c4.417-4.299,9.002-8.426,13.461-12.682c1.765-1.684,3.241-1.452,4.428,0.504
	c2.484,4.091,10.88,13.465,7.199,18.168c-2.863,3.659-9.924,5.448-13.886,7.733c-5.953,3.432-11.889,6.894-17.819,10.364
	c-5.922,3.467-11.851,6.924-17.779,10.379C448.832,135.462,440.488,142.538,435.788,141.203z"/>
<path fill-rule="evenodd" clip-rule="evenodd" fill="#FFFFFF" d="M369.436,217.815c-0.489-0.001-0.979-0.001-1.47-0.001l-0.015,0.03
	c0.502-0.001,1.004-0.003,1.506-0.003L369.436,217.815z"/>
<path fill-rule="evenodd" clip-rule="evenodd" fill="#FFFFFF" d="M327.893,131.053c0,0-0.039,0.04-0.04,0.04
	C327.853,131.091,327.893,131.053,327.893,131.053z"/>
<path fill-rule="evenodd" clip-rule="evenodd" fill="#FFFFFF" d="M435.756,141.25c0,0,0.027,0.026,0.025,0.026L435.756,141.25z"/>
<path fill-rule="evenodd" clip-rule="evenodd" fill="#FFFFFF" d="M63.61,239.916c0,0,0.04-0.039,0.04-0.038L63.61,239.916z"/>
<path fill-rule="evenodd" clip-rule="evenodd" d="M742.629,221.04c-16.688,1.09-33.141-3.076-49.71-5.021
	c-18.683-2.199-9.347-36.496-8.115-49.786c2.171-23.402,3.609-46.797,6.571-70.123c1.618-12.651,47.667-3.416,57.098-2.745
	c-4.438,37.432-3.729,75.725-5.063,113.228c0.074-0.717-0.205-1.025-0.84-0.925c0,4.572-0.528,8.177-0.137,5.629
	C741.545,217.068,744.678,218.957,742.629,221.04z M694.468,108.754c-0.478,3.647-0.955,7.294-1.435,10.942c0,0.499,0.479-3.648,0,0
	c0,5.108-0.491,10.271-0.777,15.371c0-0.535,0-1.069,0-1.604c-0.196,0.031-0.395,0.062-0.591,0.093
	c8.373,19.538-12.896,50.621-5.944,71.452c-3.87,12.715,41.973,11.114,50.664,12.061c7.48,0.815,2.776-40.013,3.086-45.8
	c1.232-23.063,3.591-48.13,4.602-71.201c0.369-8.342-45.97-12.333-48.876,2.852"/>
<path fill-rule="evenodd" clip-rule="evenodd" d="M746.225,138.681l0.028-0.028L746.225,138.681z"/>
<path fill-rule="evenodd" clip-rule="evenodd" d="M742.569,210.111C744.41,211.974,742.71,210.247,742.569,210.111
	C742.821,210.366,742.569,210.111,742.569,210.111z"/>
<path fill-rule="evenodd" clip-rule="evenodd" d="M817.92,189.36"/>
<path fill-rule="evenodd" clip-rule="evenodd" d="M790.019,173.705c0.021-0.111,0.044-0.224,0.066-0.335
	c-0.035,0.102-0.069,0.202-0.104,0.304L790.019,173.705z"/>
<path fill-rule="evenodd" clip-rule="evenodd" d="M781.955,251.719c0-0.271,0-0.541,0-0.813
	C781.955,251.177,781.955,251.448,781.955,251.719z"/>
<path fill-rule="evenodd" clip-rule="evenodd" d="M787.082,205.036l-0.029-0.028C787.054,205.008,787.082,205.036,787.082,205.036z"
	/>
<path fill-rule="evenodd" clip-rule="evenodd" d="M828.604,186.072l0.036-0.035L828.604,186.072z"/>
<path fill-rule="evenodd" clip-rule="evenodd" d="M854.158,167.859l-0.037-0.037C854.122,167.822,854.158,167.859,854.158,167.859z"
	/>
<path fill-rule="evenodd" clip-rule="evenodd" d="M819.134,135.062c-0.001-0.263-0.003-0.525-0.006-0.788
	c0.262,0.002,0.524,0.004,0.785,0.006C819.654,134.542,819.394,134.801,819.134,135.062z"/>
<path fill-rule="evenodd" clip-rule="evenodd" d="M331.834,162.404c0.491-0.348,0.818-0.58,1.146-0.81
	c0.14,0.269,0.428,0.569,0.381,0.803c-0.057,0.275-0.366,0.606-0.636,0.693C332.568,163.141,332.272,162.758,331.834,162.404z"/>
<path fill-rule="evenodd" clip-rule="evenodd" d="M369.457,217.842c-0.502,0-1.004,0.002-1.506,0.003
	c0.053-0.317,0.106-0.634,0.159-0.951C368.559,217.21,369.007,217.526,369.457,217.842z"/>
<path fill-rule="evenodd" clip-rule="evenodd" d="M450.373,233.853l-0.032,0.032L450.373,233.853z"/>
<path fill-rule="evenodd" clip-rule="evenodd" d="M432.138,156.609l-0.041-0.039L432.138,156.609z"/>
<path fill-rule="evenodd" clip-rule="evenodd" d="M516.67,178.442l0.036,0.039L516.67,178.442z"/>
<path fill-rule="evenodd" clip-rule="evenodd" d="M516.706,178.481l-0.038-0.039C516.67,178.442,516.706,178.481,516.706,178.481z"
	/>
<path fill-rule="evenodd" clip-rule="evenodd" fill="#FFFFFF" d="M691.317,151.091c1.057-16.899-5.668-44.213,15.005-52.191
	c46.026-17.76,34.356,34.336,32.696,58.774c-1.654,24.334,9.687,63.754-29.04,56.443c-11.466-2.164-19.039-1.245-21.402-12.082
	C684.876,185.044,690.303,168.028,691.317,151.091C691.324,150.981,690.302,168.042,691.317,151.091z M733.863,125.575
	c0.926-8.748,3.03-15.332-5.884-19.74c0.1-0.057,0.197-0.116,0.296-0.173c-11.182,8.945-33.394,13.019-14.938,32.477
	c-4.067,4.87-9.801,8.395-11.354,14.725c5.645-0.872,7.19-4.232,11.48-8.375c-0.4,0.398,0.096,0.416,1.488,0.055
	c-1.5,6.961-1.764,17.317-4.399,23.764c-4.106,10.042-16.937,17.345-18.123,28.06c2.873-0.868,3.946-0.774,5.673-3.005
	c4.304-5.699,8.401-11.381,12.636-17.247c1.775,2.649,23.909,25.089,20.184,17.257c-3.489-7.334-13.441-14.282-15.327-21.854
	c2.735-7.817,2.322-17.944,4.392-26.259c3.145,1.369,11.23,10.9,15.128,8.804c4.12-2.206-10.982-15.221-12.774-17.157
	C726.54,133.387,730.342,129.168,733.863,125.575z"/>
<path fill-rule="evenodd" clip-rule="evenodd" fill="#FFFFFF" d="M742.6,210.078c0.253,0.255,0.503,0.508,0.756,0.762
	c-0.309,0.152-0.615,0.305-0.923,0.457C742.488,210.891,742.545,210.485,742.6,210.078
	C742.853,210.333,742.545,210.485,742.6,210.078z"/>
<path fill-rule="evenodd" clip-rule="evenodd" fill="#FFFFFF" d="M692.299,135.035c-0.211-0.493-0.423-0.986-0.634-1.479
	c0.196-0.031,0.395-0.062,0.591-0.093c0,0.535,0,1.069,0,1.604C692.256,135.068,692.299,135.035,692.299,135.035z"/>
<path fill-rule="evenodd" clip-rule="evenodd" fill="#FFFFFF" d="M744.071,187.477c0,0.515,0,1.03,0.001,1.545
	C744.071,188.507,744.071,187.991,744.071,187.477z"/>
<path fill-rule="evenodd" clip-rule="evenodd" fill="#FFFFFF" d="M693.033,121.193c0.369-0.675,0.36-1.182-0.026-1.521
	C692.618,121.048,692.627,121.555,693.033,121.193z"/>
<path fill-rule="evenodd" clip-rule="evenodd" fill="#FFFFFF" d="M715.65,219.583l-0.037,0.039L715.65,219.583z"/>
<path fill-rule="evenodd" clip-rule="evenodd" fill="#FFFFFF" d="M695.196,102.92c0,0,0.038,0.039,0.037,0.039L695.196,102.92z"/>
<path fill-rule="evenodd" clip-rule="evenodd" fill="#FFFFFF" d="M694.468,108.754l0.035,0.036L694.468,108.754z"/>
<path fill-rule="evenodd" clip-rule="evenodd" d="M702.529,187.504c-4.691,5.648-6.155,7.59-4.394,5.824
	c-1.437,1.824-3.339,2.837-5.706,3.038c0.939-8.48,10.397-16.032,15.226-22.954c5.169-7.41,6.709-21.014,7.336-30.131
	c-0.155,0.021-0.312,0.042-0.467,0.063c0.144,0.4,0.286,0.8,0.428,1.198c-5.294-0.04-7.091,7.412-12.969,8.32
	c1.554-6.33,18.915-13.839,13.667-17.406c-14.596-9.921-6.412-29.842,12.329-29.623c7.14,3.534,6.496,5.387,6.626,13.165
	c-0.046,1.512,0.562,8.025-2.974,8.019c-3.123,5.05-9.247,15.56-9.292,9.887c0.048,6.061,6.236,8.896,4.048,8.353
	c4.561,1.132,13.608,6.189,8.727,8.804c-3.897,2.097-11.983-7.435-15.128-8.804c-2.015,8.094-3.526,15.544-3.647,24.059
	c0.603-0.58,0.354,0.153-0.743,2.2c-0.065-0.103-0.131-0.206-0.196-0.31c3.396,4.083,15.566,16.992,15.548,22.187
	c-6.1-2.92-16.268-11.397-20.209-17.279c-3.044,4.217-5.649,7.825-8.254,11.434L702.529,187.504z M727.966,108.79
	c-2.007-1.606-9.299,1.384-11.591,4.309c-1.891,1.121-8.697,11.971-6.32,13.925c12.374,10.172,24.901-3.955,20.894-13.122"/>
<path fill-rule="evenodd" clip-rule="evenodd" d="M688.682,202.061c-0.21-0.34-0.222-0.33-0.034,0.028
	C688.646,202.089,688.682,202.061,688.682,202.061z"/>
<path fill-rule="evenodd" clip-rule="evenodd" d="M693.008,121.215c0-0.514-0.001-1.028-0.001-1.543
	C693.008,120.186,693.008,120.701,693.008,121.215z"/>
<path fill-rule="evenodd" clip-rule="evenodd" d="M728.012,105.873c0.088-0.07,0.176-0.14,0.264-0.21
	C727.989,105.699,727.901,105.769,728.012,105.873z"/>
<path fill-rule="evenodd" clip-rule="evenodd" d="M732.41,126.991C730.35,127.003,732.567,126.987,732.41,126.991
	C732.161,126.992,732.41,126.991,732.41,126.991z"/>
<path fill-rule="evenodd" clip-rule="evenodd" d="M733.863,125.575l-0.039-0.039L733.863,125.575z"/>
<path fill-rule="evenodd" clip-rule="evenodd" d="M690.808,151.078l0.039-0.038C690.848,151.04,690.808,151.078,690.808,151.078z"/>
<path fill-rule="evenodd" clip-rule="evenodd" d="M688.684,202.869c0-0.269-0.002-0.539-0.002-0.809
	C688.501,202.272,688.505,202.656,688.684,202.869z"/>
<path fill-rule="evenodd" clip-rule="evenodd" d="M698.103,193.361l0.033-0.033L698.103,193.361z"/>
<path fill-rule="evenodd" clip-rule="evenodd" d="M730.921,192.603C730.921,194.732,730.918,192.441,730.921,192.603
	C730.921,192.858,730.921,192.603,730.921,192.603z"/>
<path fill-rule="evenodd" clip-rule="evenodd" fill="#FFFFFF" d="M719.262,113.902c2.292-2.925,4.441-3.585,6.448-1.979
	c-1.115,1.771-6,5.169-4.156,7.66c2.051,2.769,5.789-0.69,7.638-1.701c4.008,9.167-14.762,21.83-17.427,6.035
	C711.195,120.544,717.371,115.023,719.262,113.902z"/>
<path fill-rule="evenodd" clip-rule="evenodd" fill="#FFFFFF" d="M714.952,144.543c-0.142-0.398-0.284-0.798-0.428-1.198
	c0.154-0.021,0.312-0.042,0.467-0.063C714.574,143.92,714.562,144.34,714.952,144.543z"/>
<path fill-rule="evenodd" clip-rule="evenodd" fill="#FFFFFF" d="M715.632,171.486c-0.079-0.094-0.155-0.187-0.232-0.279
	C715.445,171.505,715.522,171.599,715.632,171.486z"/>
<path fill-rule="evenodd" clip-rule="evenodd" fill="#FFFFFF" d="M728.047,143.738C728.039,141.962,728.051,143.816,728.047,143.738
	C728.046,143.514,728.047,143.738,728.047,143.738z"/>
<path fill-rule="evenodd" clip-rule="evenodd" fill="#FFFFFF" d="M727.999,143.777C728.47,144.499,727.942,143.703,727.999,143.777
	C728.091,143.918,727.999,143.777,727.999,143.777z"/>
<path fill-rule="evenodd" clip-rule="evenodd" fill="#FFFFFF" d="M732.438,127.021c-0.268,0-0.537-0.002-0.806-0.003
	C731.9,127.019,732.168,127.021,732.438,127.021z"/>
<path fill-rule="evenodd" clip-rule="evenodd" fill="#FFFFFF" d="M719.291,113.872l-0.029,0.03L719.291,113.872z"/>
<path fill-rule="evenodd" clip-rule="evenodd" fill="#FFFFFF" d="M734.565,118.958l0.04,0.042L734.565,118.958z"/>
<path fill-rule="evenodd" clip-rule="evenodd" fill="#FFFFFF" d="M702.529,187.504l-0.045,0.044L702.529,187.504z"/>
<path fill-rule="evenodd" clip-rule="evenodd" fill="#FFFFFF" d="M716.375,169.282l-0.036,0.034L716.375,169.282z"/>
<path fill-rule="evenodd" clip-rule="evenodd" fill="#FFFFFF" d="M713.464,144.488l-0.042,0.044L713.464,144.488z"/>
<path fill-rule="evenodd" clip-rule="evenodd" fill="#FFFFFF" d="M720.025,145.221l-0.039,0.037L720.025,145.221z"/>
<path fill-rule="evenodd" clip-rule="evenodd" fill="#FFFFFF" d="M730.948,192.578c0,0.272,0,0.545,0,0.815
	C730.948,193.123,730.948,192.851,730.948,192.578z"/>
</svg>
