<?xml version="1.0" encoding="utf-8"?>
<!-- Generator: Adobe Illustrator 16.0.4, SVG Export Plug-In . SVG Version: 6.00 Build 0)  -->
<!DOCTYPE svg PUBLIC "-//W3C//DTD SVG 1.1//EN" "http://www.w3.org/Graphics/SVG/1.1/DTD/svg11.dtd">
<svg version="1.1" id="Layer_1" xmlns="http://www.w3.org/2000/svg" xmlns:xlink="http://www.w3.org/1999/xlink" x="0px" y="0px"
	 width="963.387px" height="293.984px" viewBox="0 0 963.387 293.984" enable-background="new 0 0 963.387 293.984"
	 xml:space="preserve">
<path d="M915.329,114.45c-0.007-8.23-0.382-16.461-0.522-24.692c-0.039-2.352,0.312-4.709,0.275-7.062
	c-0.06-3.859-0.756-7.77-0.342-11.565c0.665-6.086,2.229-12.072,2.989-18.153c0.354-2.827-0.282-5.776-0.477-8.671
	c-0.067-1.02-0.476-2.146-0.178-3.039c1.273-3.829,0.676-5.158-3.411-5.398c-5.104-0.303-10.242-0.013-15.35-0.271
	c-3.225-0.164-6.426-1.274-9.627-1.239c-7.535,0.085-15.065,0.585-22.598,0.953c-11.944,0.583-23.896,1.077-35.83,1.833
	c-8.694,0.55-17.367,1.449-26.049,2.215c-7.123,0.629-14.243,1.283-21.363,1.938c-5.164,0.474-10.354,0.796-15.489,1.503
	c-3.556,0.49-7.002,1.96-10.556,2.218c-7.951,0.578-15.939,0.64-23.912,0.979c-5.907,0.251-11.808,0.749-17.716,0.887
	c-8.098,0.188-16.202,0.067-24.302,0.214c-6.541,0.119-13.104,0.153-19.609,0.752c-5.972,0.551-11.895,1.72-17.811,2.775
	c-4.599,0.819-8.822,4.471-5.979,9.765c1.354,2.518,1.649,5.838,1.646,8.794c-0.01,5.191-0.542,10.389-0.991,15.571
	c-1.152,13.388-2.26,26.782-3.62,40.151c-1.188,11.693-2.922,23.335-3.998,35.038c-0.997,10.838-1.459,21.726-2.127,32.594
	c-0.422,6.892-0.895,13.784-1.154,20.684c-0.289,7.622-0.386,15.251-0.517,22.88c-0.08,4.587,0.122,9.188-0.15,13.759
	c-0.235,3.9,3.644,7.945,7.57,7.47c1.546-0.188,3.101-0.313,4.685-0.47c0.359-0.688,0.771-1.473,1.185-2.257
	c-0.008,0.001-0.017,0.003-0.023,0.004l0.046-0.045c-0.007,0.015-0.016,0.027-0.021,0.041c1.469-0.251,2.938-0.503,4.406-0.754
	l-0.038,0.037c5.262-0.507,10.515-1.335,15.785-1.454c11.824-0.266,23.658-0.287,35.486-0.198
	c7.491,0.059,14.996,0.258,22.465,0.812c10.924,0.812,21.821,2.001,32.729,3.028l-0.038-0.038c1.721,0.241,3.438,0.483,5.16,0.726
	c0,0-0.046,0.044-0.047,0.044c17.681,1.679,34.915,1.892,52.474,1.339c3.723-0.116,7.459-0.269,11.219-0.446
	c15.734-0.75,30.96-1.192,46.609-3.324c6.196-0.844,12.218-1.253,18.324,0.335c3.684,0.958,7.71,3.125,11.247,0.67
	c4.675-3.245,5.757-11.562,6.472-16.652c1.079-7.692,0.842-15.445,0.359-23.174l-0.896-38.486 M799.302,252.012
	c-0.364,0.146-0.729,0.236-1.083,0.231c-5.409-0.077-10.813-0.356-16.222-0.566c0-0.243,0-0.484,0-0.729
	c0.336-2.507,0.858-5.018,1.062-7.539c0.346-4.276-0.177-9.216-0.067-13.608c0.102-4.11,2.303-7.521,2.333-11.497
	c0.052-7.067,1.297-13.704,2.009-20.854c0.754-7.575,1.929-15.073,2.584-22.722c1.419-16.555,4.995-32.95,4.031-49.658l20.373-1.461
	c2.968,0.314,12.083,2.871,14.832,1.658c-0.669-0.128-1.278-0.376-1.768-0.864c0.488,0.488,1.099,0.736,1.768,0.864
	c0.056-0.024,0.126-0.042,0.177-0.068c-0.052,0.027-0.087,0.052-0.134,0.078c1.484,0.271,3.26-0.035,4.698,0.327
	c0.055-0.222,0.106-0.443,0.159-0.666c2,0.669,3.999,1.338,5.997,2.007c0.093,0.01,0.186,0.018,0.276,0.026
	c0.006,0.017,0.015,0.031,0.021,0.048c5.261-0.371,10.52-0.784,15.78-1.058c0.663-0.035,1.9,0.593,1.962,1.04
	c0.37,2.692,0.475,5.425,0.668,8.144c-0.08,0.004-0.168,0.017-0.254,0.025c1.647,10.234-0.896,20.471-2.833,30.706
	c0.221-0.29,0.441-0.58,0.663-0.869c-0.003-0.027-0.006-0.055-0.009-0.082c0.021-0.041,0.04-0.081,0.059-0.12
	c0.041-0.407,0.025-0.252,0.002-0.004c0.022-0.046,0.039-0.081,0.056-0.111c0.061-0.127,0.084-0.176,0,0
	c-0.018,0.033-0.035,0.07-0.056,0.112c0-0.001,0-0.001,0-0.001c0,0.001-0.001,0.001-0.001,0.002c-0.005,0.05-0.01,0.103-0.015,0.156
	c-0.012,0.016-0.024,0.031-0.036,0.048c1.212,10.311,1.404,20.564-0.359,30.89c-0.633,3.704,0.645,7.692,0.573,11.541
	c-0.19,10.614-0.66,21.225-0.967,31.837c-0.095,3.207-0.015,6.418-0.015,10.208c-10.862,0.63-21.352,1.239-31.978,1.855
	 M785.081,206.227c-0.002-0.028,0.156-0.073,0.238-0.11c0.041,0.186,0.082,0.373,0.122,0.561c-0.084,0.039-0.166,0.078-0.251,0.116
	C785.151,206.604,785.098,206.418,785.081,206.227z M906.055,236.327c-0.111,0.596,1.796,7.216-2.334,7.74
	c-7.871,1.001-2.861,1.064-10.953,1.869c-8.687,0.863-17.378,1.671-26.067,2.487c-0.693,0.065-1.399,0.009-2.479,0.009
	c0.152-2.891,0.29-5.529,0.432-8.168c0.057-1.082,0.479-2.312,0.112-3.224c-2.055-5.099-0.277-9.749,1.021-14.624
	c0.606-2.283-0.238-5.026-0.706-7.509c-0.993-5.286,0.343-10.693-1.473-16.052c-0.801-2.367,0.914-5.588,1.486-8.42
	c-0.015-0.018-0.029-0.035-0.045-0.054c0.002,0.03,0.004,0.06,0.006,0.089c-0.064-0.104-0.129-0.208-0.193-0.311
	c0.062,0.073,0.126,0.147,0.188,0.222c-0.077-1.365-0.26-2.736-0.193-4.096c0.312-6.42,1.075-12.85,0.846-19.244
	c-0.079-2.213-0.288-4.588-0.567-6.689c-0.419-3.141,0.056-5.594,1.155-8.296c0.39-0.957,0.242-2.159,0.235-3.248
	c-0.037-5.46-0.189-10.92-0.141-16.379c0.03-3.235,0.134-6.501,0.615-9.689c0.447-2.958-1.22-3.399-3.332-3.331
	c-3.267,0.104-6.533,0.72-9.783,0.616c-6.454-0.207-12.897-0.748-19.344-1.167c-3.962-0.257-7.928-0.475-11.88-0.832
	c-5.846-0.526-11.674-1.235-17.522-1.728c-4.438-0.374-8.915-0.878-13.343-0.671c-8.998,0.42-5.146,24.716-5.398,30.79
	c-0.666,15.971-3.768,31.548-5.601,47.388c-2.21,19.093-4.946,38.245-4.946,57.482c-7.487-0.564-14.565-1.114-21.646-1.625
	c-14.741-1.062-29.47-2.519-44.23-3.028c-12.716-0.44-25.487-0.18-38.198,0.495c-9.498,0.505-18.936,2.164-28.401,3.291
	c-0.695,0.083-1.41,0.01-2.764,0.01c-0.226-4.579-0.73-9.142-0.61-13.686c0.203-7.635,0.839-15.254,1.23-22.885
	c0.902-17.646,1.45-35.319,2.757-52.938c0.945-12.731,2.94-25.382,4.354-38.082c0.845-7.563,1.647-15.139,2.149-22.73
	c0.74-11.183,1.192-22.384,1.777-33.576c0.05-0.964,0.136-1.931,0.291-2.881c0.481-2.927,1.004-5.846,1.511-8.769
	c-0.343-0.269-0.688-0.537-1.028-0.805c1.343-0.176,2.686-0.354,4.027-0.525c4.761-0.604,9.509-1.388,14.289-1.752
	c4.453-0.339,8.938-0.267,13.412-0.305c3.266-0.026,6.535,0.139,9.802,0.086c9.309-0.148,18.62-0.283,27.924-0.579
	c8.479-0.271,16.946-1,25.42-1.05c6.372-0.038,12.407-1.54,18.589-2.646c7.241-1.296,14.681-1.516,22.043-2.112
	c15.817-1.286,31.641-2.515,47.462-3.762c0.847-0.065,1.692-0.112,2.542-0.134c12.08-0.306,24.159-0.708,36.24-0.859
	c4.949-0.062,9.904,0.429,14.857,0.652c4.355,0.196,8.72,0.312,13.071,0.579c3.082,0.19,6.152,0.577,9.228,0.876
	c0.021,0.31,0.043,0.62,0.064,0.931l-6.339,87.101"/>
<path d="M838.132,131.845c-0.02,0.001-0.039,0.003-0.059,0.004c-0.075-0.024-0.15-0.05-0.228-0.076
	c-2.03-0.189-4.062-0.381-6.094-0.571c0.058-0.239,0.114-0.479,0.171-0.719c-1.385-0.35-3.092-0.054-4.521-0.314
	c-0.564,0.327-0.846,0.575-1.131,0.601c-7.631,0.67-13.196,5.37-18.223,10.299c-5.46,5.354-7.592,12.621-8.533,20.158
	c-0.914,7.32,0.33,14.14,5.936,19.251c2.468,2.255,5.908,3.483,8.993,5.006c1.208,0.595,2.64,0.734,3.973,1.075
	c-0.001-0.011-0.003-0.021-0.004-0.031l0.04,0.039c-0.012-0.003-0.024-0.006-0.036-0.008c0.117,1.305,0.678,2.799,0.222,3.857
	c-0.688,1.593-1.838,3.268-3.251,4.227c-6.45,4.374-13.101,8.456-19.578,12.793c-0.948,0.639-1.357,2.084-2.017,3.158
	c1.283,0.254,2.668,0.94,3.825,0.668c1.85-0.439,3.609-1.405,5.299-2.348c3.287-1.837,6.523-3.777,9.728-5.755
	c1-0.615,1.837-1.49,3.107-2.548c0.788,0.049,2.223,0.137,3.942,0.241c-0.091,1.95-0.104,3.899-0.289,5.834
	c-0.812,8.476-1.335,16.997-4.224,25.135c-0.815,2.299-1.588,4.687-1.839,7.092c-0.385,3.655-2.754,5.365-5.543,7.048
	c-2.573,1.55-4.924,3.469-7.428,5.142c-0.528,0.354-1.128,0.749-1.73,0.99c7.559,2.304,16.255,3.51,23.158-1.057
	c-2.579-4.971-0.882-9.803,0.123-14.703c1.287-6.276,2.248-12.62,3.412-18.922c0.391-2.114,0.969-4.194,1.604-6.899
	c3.985,3.606,7.705,6.55,10.893,9.983c2.521,2.718,5.199,1.819,7.635,0.875c2.35-0.913,0.854-2.697-0.175-3.919
	c-1.633-1.941-3.389-3.776-5.096-5.656c-4.433-3.148-7.367-7.186-9.092-12.498c-0.746-2.301-3.772-3.861-5.812-5.805
	c0.491-1.521,1.032-3.195,1.573-4.87l-0.034,0.033c-1.005-2.562,1.142-1.429,2.045-1.739c4.479-1.536,8.957-3.064,13.435-4.597
	l-0.036,0.037c1.432-1.204,3.128-2.208,4.235-3.659c1.821-2.381,3.267-5.052,4.87-7.6l0.035,0.036
	c0.485-0.637,0.97-1.272,1.456-1.908c1.862-9.848,5.477-18.127,2.726-29.541c-1.034,0.11-5.688-4.979-6.046-5.42 M826.201,209.052
	l-0.167,0.208l-0.105-0.247L826.201,209.052z M853.346,160.332l0.192,0.163l-0.234,0.092L853.346,160.332z M816.326,199.188
	l0.035-0.034L816.326,199.188z M812.129,252.473c-0.065-0.224-0.135-0.447-0.199-0.672c0.655-0.096,1.31-0.191,1.966-0.288
	c0.035,0.188,0.072,0.377,0.109,0.564C813.379,252.21,812.755,252.342,812.129,252.473z M846.721,142.966
	c4.041,1.316,3.151,6.617,2.006,10.635c-1.451,5.089-3.231,10.086-4.906,15.111c-2.278,6.83-9.929,12.812-17.852,11.703
	c-2.05-0.287-4.223,0.231-6.255-0.111c-1.526-0.259-2.938-1.275-4.367-2.02c-0.505-0.264-0.862-0.953-1.363-1.049
	c-6.812-1.279-7.999-6.427-7.957-12.04c0.039-5.311,0.907-10.602,3.472-15.353c0.954-1.765,2.66-3.125,4.03-4.666
	c-0.002,0.002-0.003,0.002-0.006,0.004l0.033-0.033c-0.009,0.011-0.019,0.021-0.027,0.029c2.719-0.885,3.591-3.159,4.22-5.616
	c0-0.241-0.001-0.479-0.001-0.721c0.236,0.005,0.472,0.009,0.707,0.015c1.883-0.761,3.878-1.327,5.628-2.322
	c3.719-2.118,6.889-0.53,9.706,1.535"/>
<path d="M856.441,164.689C856.525,164.514,856.502,164.562,856.441,164.689L856.441,164.689z"/>
<path d="M856.441,164.689c-0.017,0.03-0.032,0.065-0.056,0.111c0,0,0,0,0,0.001C856.406,164.76,856.425,164.723,856.441,164.689z"/>
<path d="M856.387,164.802c0.023-0.249,0.039-0.405-0.002,0.003C856.386,164.804,856.386,164.803,856.387,164.802z"/>
<path d="M649.979,254.609c0.009-0.001,0.018-0.003,0.024-0.004c0.007-0.014,0.015-0.026,0.021-0.041L649.979,254.609z"/>
<path d="M814.767,140.882c0.003-0.001,0.005-0.002,0.008-0.003c0.01-0.011,0.02-0.021,0.028-0.031L814.767,140.882z"/>
<path d="M819.854,183.859c0,0.012,0.003,0.021,0.004,0.032c0.013,0.003,0.024,0.006,0.038,0.009L819.854,183.859z"/>
<path d="M865.055,190.474c-0.002-0.029-0.004-0.059-0.006-0.089c-0.062-0.073-0.125-0.147-0.188-0.222
	C864.926,190.266,864.989,190.37,865.055,190.474z"/>
<path d="M842.467,210.092c0.01,0.011,0.021,0.021,0.029,0.032c0.004,0.003,0.008,0.006,0.012,0.009L842.467,210.092z"/>
<path d="M840.052,126.945c0.079,0.026,0.157,0.053,0.235,0.079c0.021-0.001,0.041-0.003,0.062-0.004
	c-0.006-0.017-0.015-0.03-0.021-0.048C840.236,126.962,840.145,126.954,840.052,126.945z"/>
<path d="M856.385,164.805c-0.019,0.039-0.038,0.079-0.059,0.12c0.003,0.027,0.006,0.055,0.009,0.082
	c0.012-0.017,0.024-0.032,0.036-0.048c0.005-0.055,0.01-0.106,0.015-0.156C856.386,164.804,856.386,164.805,856.385,164.805
	L856.385,164.805z"/>
<polygon points="856.385,164.806 856.386,164.804 856.385,164.805 "/>
<polygon points="856.386,164.803 856.386,164.804 856.387,164.802 "/>
<path d="M856.387,164.802c0.021-0.042,0.038-0.079,0.056-0.112C856.426,164.721,856.408,164.756,856.387,164.802
	C856.387,164.803,856.387,164.802,856.387,164.802z"/>
<path d="M439.501,52.223c11.398-0.184,22.242,2.37,32.39,7.326c4.704,2.296,9.375,5.243,13.076,8.894
	c10.812,10.667,19.351,23.015,24.71,37.355c5.003,13.385,10.164,26.719,14.781,40.237c3.569,10.457,2.612,21.021-2.605,30.688
	c-2.354,4.36-6.481,7.771-9.843,11.58c-2.323,2.633-4.895,5.065-7.032,7.836c-10.108,13.106-20.525,26.249-35.176,34.513
	c-13.271,7.486-28.903,11.539-44.138,11.405c-8.252-0.073-17.371-1.021-25.306-3.396c-10.626-3.181-20.81-8.163-29.866-14.562
	c-16.931-11.963-31.721-23.009-39.243-43.264c-6.459-17.393-10.173-38.252-4.229-56.283c5.011-15.203,15.522-28.281,27.709-38.408
	c9.761-8.11,20.314-15.795,32.017-20.857c12.729-5.508,26.336-9.083,39.734-12.888C430.513,51.254,435.145,52.223,439.501,52.223z
	 M435.822,141.298c0.104-0.123,4.501-1.017,5.171-1.345c1.946-0.953,3.8-2.174,5.678-3.255c4.795-2.765,9.572-5.561,14.355-8.347
	c7.085-4.127,14.151-8.279,21.239-12.401c6.689-3.892,13.438-7.685,20.039-11.72c0.824-0.503,1.604-2.593,1.221-3.316
	c-2.608-4.904-5.504-9.659-8.379-14.419c-3.074-5.093-13.445,7.079-15.761,9.356c-5.714,5.621-11.142,11.528-16.836,17.167
	C453.362,122.115,444.163,131.482,435.822,141.298z M327.829,131.083c-0.714,1.871-1.252,3.773-1.434,5.696
	c-0.269,2.845,0.917,3.589,1.948,5.99c2.588,6.027,0.666,14.312,1.479,20.828c0.757,6.062,2.919,12.227,5.246,17.86
	c1.095,2.652,2.775,3.547,4.63,5.546c1.989,2.145,2.424,4.569,3.708,7.118c1.672,3.32,4.545,5.651,6.732,8.604
	c4.161,5.618,7.837,9.144,13.323,13.428c1.201,0.938,2.987,1.127,4.506,1.659c0.489,0,0.979,0,1.469,0.001
	c1.112,0.688,2.292,1.293,3.324,2.085c2.979,2.291,5.815,4.777,8.891,6.925c0.934,0.653,2.503,0.324,3.709,0.686
	c1.425,0.426,2.817,1.023,4.14,1.707c1.793,0.929,3.469,2.088,5.277,2.981c0.688,0.34,1.657,0.069,2.412,0.328
	c5.379,1.844,10.619,4.223,16.118,5.541c12.781,3.062,24.742-2.444,37.066-4.216l-0.032,0.032c8.822-2,16.497-3.936,23.574-9.881
	c6.358-5.342,11.345-12.073,17.361-17.769c5.263-4.979,9.626-10.153,14.316-15.651c4.503-5.277,10.785-9.226,14.047-15.476
	c6.922-13.261,1.91-26.366-1.973-39.56c-2.627-8.926-6.6-17.457-10.012-26.149c-0.425-1.081-1.046-2.085-1.649-3.271
	c-3.374,1.865-6.468,3.461-9.45,5.245c-5.48,3.278-10.85,6.752-16.354,9.99c-8.329,4.898-16.737,9.664-25.111,14.489
	c-1.99,1.146-3.979,2.298-5.969,3.447c-5.747,3.316-11.632,6.42-17.203,10.015c-8.931,5.764,4.529,8.815,8.44,12.394
	c5.267,4.818,10.255,9.906,15.746,14.544c4.792,4.048,11.441,6.232,15.458,10.743c4.309,4.84,9.575,7.626,14.344,11.812
	c0.643,0.565-1.828,2.638-2.341,2.748c-1.352,0.289-2.43-0.789-3.345-1.619c-2.945-2.674-5.968-5.279-9.089-7.747
	c-6.63-5.238-13.346-10.373-20.028-15.546c-8.812-6.818-17.656-13.599-26.403-20.498c-1.113-0.878-2.506-2.409-2.463-3.59
	c0.339-9.205,0.933-18.403,1.58-27.595c0.426-6.048,1.116-12.077,1.604-18.121c0.664-8.21,0.726-16.509,2.015-24.617
	c1.266-7.952,0.532-15.688,0.964-23.654c5.42-0.753,2.139,14.329,1.911,17.144c-0.644,7.976-1.345,15.948-1.692,23.943
	c-0.336,7.714-1.495,15.36-2.233,23.04c-0.309,3.217-3.833,25.424,3.797,19.385c3.021-2.392,5.35-6.114,8.195-8.789
	c3.122-2.934,6.15-5.862,8.972-9.093c1.915-2.191,3.816-4.312,5.864-6.372c11.344-11.406,23.361-22.124,35.122-33.094
	c1.915-1.786,3.558-3.158,1.205-5.946c-6.901-8.176-14.383-15.106-25.104-18.396c-15.513-4.759-30.94-6.969-46.814-2.46
	c-14.966,4.25-29.933,8.755-42.879,17.665c-9.581,6.593-18.592,14.04-27.609,21.41c-2.837,2.319-5.473,5.31-7.154,8.538
	c-2.816,5.404-5.383,10.935-7.932,16.47C330.715,124.904,329.025,127.948,327.829,131.083z"/>
<path d="M213.122,251.941c-2.342-2.399-4.667-2.718-7.92-2.242c-4.771,0.694-9.687,0.316-14.526,0.631
	c-3.232,0.209-6.497,0.574-9.641,1.319c-10.449,2.478-6.823-17.05-7.015-22.534c-0.45-12.854-0.67-25.622,0.456-38.462
	c1.572-17.908,2.76-35.798,1.667-53.774c-0.315-5.192-0.618-10.372-0.617-15.578c0-4.544-1.532-10.63,1.451-14.526
	c0.446,0.692,1.377,2.205,1.201,3.086c-2.25,11.237-0.491,22.45-0.1,33.69c0.357,10.238,0.261,20.513-0.142,30.752
	c-0.275,6.974-1.954,13.904-2.072,20.87c-0.274,16.319-0.155,32.649,0.175,48.969c0.102,4.997,1.073,5.118,5.932,3.644
	c2.513-0.764,5.199-1.061,7.83-1.3c6.377-0.578,12.764-1.127,19.158-1.43c2.797-0.132,3.108-1.637,3.049-3.805
	c-0.359-13.336-0.779-26.673-1.01-40.013c-0.168-9.692-0.002-19.392-0.125-29.086c-0.111-8.731-0.606-17.463-0.581-26.191
	c0.029-10.303,0.274-20.612,0.771-30.902c0.154-3.206-1.019-4.135-3.835-4.773c-7.274-1.651-14.459-0.643-21.682,0.146
	c-1.291,0.14-2.61,0.021-4.654,0.021c1.52,0,5.116-2.386,6.958-2.814c2.98-0.695,6.034-1.089,9.091-1.24
	c5.801-0.287,12.371,0.096,17.558,2.979c-1.451,8.218-2.098,15.636-2.143,24.098c-0.046,8.657-0.024,17.316,0.042,25.976
	c0.129,16.741,0.799,33.371,0.641,50.139c-0.061,6.406-0.029,12.812,0.046,19.221c0.037,3.154-0.512,6.312-0.266,9.469
	C213.172,242.824,218.201,248.235,213.122,251.941z"/>
<path d="M98.186,181.16c-1.854-4.075-0.892-9.946-0.859-14.368c0.078-10.542,0.292-21.086,0.66-31.622
	c0.619-17.677,1.164-35.364,2.247-53.015c0.389-6.357,2.36-12.604,3.384-18.938c0.675-4.173,1.062-8.404,1.296-12.626
	c0.042-0.762-1.141-2.049-2.005-2.327c-3.54-1.138-33.051,1.404-37.188,0.312c1.112-0.397,2.101-1.106,3.002-1.011
	c3.841,0.411,33.573-2.487,37.333-1.637c0.847,0.192,2.023,2.062,1.886,2.985c-1.372,9.21-2.669,18.452-4.612,27.552
	c-2.781,13.033-3.011,26.22-3.258,39.427c-0.224,11.979-0.153,23.976-0.441,35.957c-0.125,5.191-0.648,10.438-0.434,15.624
	C99.366,171.586,101.085,177.725,98.186,181.16z"/>
<path d="M63.61,239.916c-8.733-15.085-3.105-125.684-4.096-142.525c-0.787-13.376-7.562-43.322,5.4-49.324
	c-4.575,2.119-5.133,6.014-4.906,10.691c0.86,17.754,1.632,35.515,2.746,53.253c0.735,11.716,2.094,23.392,2.948,35.108
	C65.866,149.369,64.782,238.062,63.61,239.916z"/>
<path d="M124.974,152.779c1.107-0.595,2.718-1.142,4.067-1.086c7.616,0.316,15.232,0.703,22.836,1.23
	c3.873,0.27,3.938,1.323,3.557,5.137c-0.562,5.622-0.269,11.336-0.281,17.009c-0.022,9.708-0.014,19.417-0.033,29.125
	c-0.004,2.308,0.126,4.66-0.02,6.964c-0.087,1.296-0.704,2.82-1.347,3.851c-2.832-6.614-0.246-16.159-0.298-23.204
	c-0.061-8.196-1.133-16.275-0.647-24.486c0.41-6.936,1.211-12.033-7.127-12.308C138.939,154.789,131.189,156.054,124.974,152.779z"
	/>
<path d="M121.581,151.811c1.702,14.139-0.095,28.881-0.146,43.084c-0.027,7.437,0.382,14.867,0.245,22.305
	c-0.032,1.729-2.525,20.025-2.644,19.948c-2.183-1.43-0.769-8.146-0.38-10.536c0.621-3.825,0.052-6.381-0.361-10.181
	c-0.731-6.733,0.939-13.372,1.659-20.028c0.742-6.855,0.554-13.978,0.393-20.866c-0.109-4.634-0.957-9.218-1.136-13.848
	c-0.086-2.221-0.262-4.752,0.313-6.926c0.303-1.143,1.223-2.369,2.046-3.049C121.573,151.746,121.577,151.778,121.581,151.811z"/>
<path d="M63.61,239.916c4.176-0.958,8.31-2.312,12.542-2.772c4.549-0.497,9.192-0.099,13.792-0.206
	c4.446-0.102,5.559-1.056,5.679-5.677c0.104-4.511-1.575-11.061,0.022-15.25c1.233,2.023,1.064,23.991,0.733,24.007
	c-11.349,0.545-23.17-0.551-34.821,2.414c-0.843-2.156-0.843-2.156,2.094-2.554C63.65,239.877,63.61,239.916,63.61,239.916z"/>
<path d="M123.373,240.516c-0.191-0.589,0.413-1.158,2.167-1.474c1.77-0.318,3.67-0.585,5.409-0.274
	c7.637,1.363,15.007-0.221,22.344-1.896c0.917-0.209,2.121-2.064,2.062-3.096c-0.168-3.006-0.966-5.97-1.406-8.968
	c-0.291-1.979-0.52-4.222-0.08-6.123c1.537,7.881,5.629,17.546,0.141,24.807c-2.415-4.278-10.164-1.853-14.145-1.784
	c-3.141,0.053-6.285,0.079-9.426,0.089c-1.599,0.005-4.102,0.561-5.571-0.075C124.051,241.367,123.509,240.937,123.373,240.516z"/>
<path d="M97.899,183.045c-0.631,9.837-1.263,19.674-1.928,30.042c-0.458-0.726-0.874-1.073-0.858-1.4
	c0.434-8.901,0.882-17.804,1.438-26.697c0.042-0.663,0.906-1.275,1.387-1.912C97.937,183.076,97.899,183.045,97.899,183.045z"/>
<path d="M61.066,219.875c0,1.237,0,2.476,0,3.715c-0.226-0.003-0.452-0.006-0.676-0.01c0-1.24,0-2.48,0-3.724
	C60.614,219.863,60.84,219.87,61.066,219.875z"/>
<path d="M920.064,327.711c-0.124-0.13-0.246-0.261-0.366-0.391c0.087-0.065,0.227-0.199,0.253-0.183
	c0.141,0.105,0.254,0.247,0.376,0.377C920.24,327.58,920.153,327.647,920.064,327.711z"/>
<path d="M921.198,291.765c-0.22,0.22-0.438,0.438-0.658,0.655c-0.087-0.179-0.174-0.357-0.262-0.535
	c0.318-0.029,0.636-0.058,0.954-0.085L921.198,291.765z"/>
<path d="M818.381,259.003c0.312,0.036,0.624,0.071,0.152,0.018c0.43,0.206,0.154,0.074-0.121-0.057L818.381,259.003z"/>
<path d="M921.232,291.8l-0.034-0.035L921.232,291.8z"/>
<path d="M649.979,254.609l0.047-0.045L649.979,254.609z"/>
<path d="M97.895,182.302c0,0.247,0.001,0.494,0.003,0.742c0,0.001,0.039,0.032,0.039,0.032c0-0.271,0-0.538-0.001-0.808
	C97.937,182.269,97.895,182.302,97.895,182.302z"/>
<path fill="#FFFFFF" d="M819.854,183.859c0,0.012,0.003,0.021,0.004,0.032c0.013,0.003,0.024,0.006,0.038,0.009L819.854,183.859z"/>
<path fill="#FFFFFF" d="M829.33,125.197l-0.491-0.005c0.118,0.031,0.235,0.062,0.357,0.084
	C829.243,125.25,829.278,125.226,829.33,125.197z"/>
<path fill="#FFFFFF" d="M808.051,141.068c5.025-4.93,10.592-9.629,18.223-10.299c0.285-0.025,0.565-0.273,1.131-0.601
	c-0.117-0.021-0.23-0.052-0.345-0.081l-33.799-0.36c-1.645,7.486,0.045,14.927-0.291,22.476c-0.674,15.18-4.083,30.253-5.601,45.364
	c-1.024,10.221-3.104,20.302-4.127,30.521c-0.479,4.782-0.797,9.635-0.553,14.441c0.135,2.646,1.405,7.134-0.731,9.278
	c-0.003,0.003,0.038-0.037,0.038-0.037c5.201,0.202,10.4,0.472,15.604,0.545c0.925,0.015,1.938-0.653,2.772-1.213
	c2.504-1.673,4.854-3.592,7.428-5.142c2.789-1.683,5.158-3.393,5.543-7.048c0.251-2.405,1.022-4.793,1.839-7.092
	c2.889-8.138,3.41-16.659,4.224-25.135c0.186-1.935,0.197-3.884,0.289-5.834c-1.721-0.104-3.154-0.192-3.942-0.241
	c-1.271,1.058-2.107,1.933-3.107,2.548c-3.203,1.978-6.439,3.918-9.728,5.755c-1.688,0.941-3.449,1.908-5.299,2.348
	c-1.157,0.272-2.542-0.414-3.825-0.668c0.658-1.074,1.067-2.521,2.017-3.158c6.479-4.337,13.128-8.419,19.578-12.793
	c1.413-0.959,2.563-2.634,3.251-4.227c0.456-1.06-0.104-2.554-0.222-3.857c-1.333-0.341-2.765-0.48-3.973-1.075
	c-3.086-1.521-6.525-2.751-8.993-5.006c-5.604-5.111-6.85-11.931-5.936-19.251C800.459,153.689,802.591,146.423,808.051,141.068z"/>
<path fill="#FFFFFF" d="M856.328,164.925c0.003,0.026,0.005,0.053,0.009,0.079c0.011-0.015,0.022-0.029,0.034-0.045L856.328,164.925
	z"/>
<path fill="#FFFFFF" d="M842.467,210.092c0.011,0.012,0.021,0.023,0.032,0.035c0.003,0.002,0.005,0.004,0.008,0.006L842.467,210.092
	z"/>
<path fill="#FFFFFF" d="M848.727,153.601c-1.451,5.089-3.231,10.086-4.906,15.111c-2.278,6.83-9.929,12.812-17.852,11.703
	c-2.05-0.287-4.223,0.231-6.255-0.111c-1.526-0.259-2.938-1.275-4.367-2.02c-0.505-0.264-0.862-0.953-1.363-1.049
	c-6.812-1.279-7.999-6.427-7.957-12.04c0.039-5.311,0.907-10.602,3.472-15.353c0.96-1.776,2.684-3.143,4.059-4.695l-0.033,0.033
	c2.724-0.885,3.596-3.16,4.226-5.62l-0.024,0.021c0.25-0.251,0.501-0.5,0.75-0.752l-0.019,0.024
	c1.882-0.761,3.877-1.327,5.627-2.321c3.719-2.118,6.889-0.53,9.706,1.535"/>
<path fill="#FFFFFF" d="M840.289,127.023c0.02-0.001,0.04-0.003,0.06-0.004c-0.006-0.017-0.015-0.031-0.021-0.048L840.289,127.023z"
	/>
<path fill="#FFFFFF" d="M858.091,127.001c-0.062-0.446-1.299-1.075-1.962-1.04c-5.263,0.273-10.521,0.687-15.78,1.058
	c1.386,3.907,4.565,5.969,8.294,5.896c2.875-0.057,5.037-0.027,6.964,2.335c0.37,0.458,1.823,0.034,2.898-0.081
	c-0.041-0.256-0.071-0.512-0.118-0.769c0.047,0.257,0.077,0.513,0.118,0.769c0.086-0.009,0.174-0.021,0.254-0.025
	C858.564,132.426,858.461,129.694,858.091,127.001z"/>
<path fill="#FFFFFF" d="M833.896,125.604c0.56,0.142,1.07,0.379,1.49,0.799C834.967,125.982,834.455,125.745,833.896,125.604
	c-0.06,0.249-0.118,0.498-0.179,0.747c2.111,0.199,4.224,0.397,6.334,0.595c-1.998-0.669-3.997-1.338-5.997-2.007
	C834.002,125.16,833.949,125.382,833.896,125.604z"/>
<path fill="#FFFFFF" d="M840.328,126.971c-0.092-0.009-0.185-0.017-0.276-0.026c0.079,0.026,0.157,0.053,0.235,0.079
	C840.289,127.023,840.328,126.971,840.328,126.971z"/>
<path fill="#FFFFFF" d="M813.112,251.708c0.681-0.1,1.359-0.198,2.042-0.299c0.038,0.194,0.076,0.392,0.114,0.587
	c-0.649,0.138-1.3,0.273-1.949,0.411C813.25,252.175,813.18,251.941,813.112,251.708z"/>
<path fill="#FFFFFF" d="M785.441,206.676c-0.084,0.039-0.166,0.078-0.251,0.116c-0.039-0.188-0.094-0.374-0.109-0.565
	c-0.002-0.028,0.156-0.073,0.238-0.11C785.36,206.301,785.401,206.488,785.441,206.676z"/>
<polygon fill="#FFFFFF" points="856.162,156.631 856.119,156.896 856.362,156.8 "/>
<path fill="#FFFFFF" d="M856.385,164.805c0.001-0.001,0.001-0.002,0.002-0.003C856.41,164.553,856.426,164.396,856.385,164.805z"/>
<path fill="#FFFFFF" d="M856.385,164.805c-0.019,0.039-0.038,0.079-0.059,0.12c0.002,0,0.045,0.034,0.045,0.034
	c0.005-0.055,0.01-0.106,0.015-0.156C856.386,164.804,856.386,164.805,856.385,164.805L856.385,164.805z"/>
<rect x="856.385" y="164.802" fill="#FFFFFF" width="0.001" height="0.003"/>
<path fill="#FFFFFF" d="M856.387,164.802C856.387,164.802,856.387,164.803,856.387,164.802c0.021-0.046,0.039-0.081,0.056-0.112
	C856.425,164.723,856.406,164.76,856.387,164.802z"/>
<path fill="#FFFFFF" d="M856.441,164.689C856.502,164.562,856.525,164.514,856.441,164.689L856.441,164.689z"/>
<polygon fill="#FFFFFF" points="827.947,207.272 827.773,207.49 827.664,207.232 "/>
<path fill="#FFFFFF" d="M798.045,258.937c-0.158-0.057-0.316-0.114-0.318-0.116c-0.001-0.002,0.14,0.082,0.28,0.165L798.045,258.937
	z"/>
<path fill="#FFFFFF" d="M781.997,251.677c0-0.243,0-0.484,0-0.729l-0.042-0.044c0,0.272,0,0.544,0,0.813L781.997,251.677z"/>
<path fill="#FFFFFF" d="M865.094,190.438c-0.076-0.092-0.153-0.184-0.232-0.274c0.064,0.103,0.129,0.207,0.193,0.311
	C865.053,190.474,865.094,190.438,865.094,190.438z"/>
<path fill="#FFFFFF" d="M781.938,236.327c-0.054,0.151-0.104,0.305-0.108,0.316c0.004-0.007,0.08-0.144,0.154-0.279L781.938,236.327
	z"/>
<path fill="#FFFFFF" d="M819.158,134.291c0.245,0.005,0.49,0.01,0.734,0.016c0.001,0,0.021-0.025,0.021-0.025
	c-0.261-0.003-0.523-0.005-0.785-0.007L819.158,134.291z"/>
<path fill="#FFFFFF" d="M819.159,135.041c0-0.25-0.001-0.5-0.001-0.75l-0.03-0.018c0.003,0.263,0.005,0.524,0.006,0.788
	L819.159,135.041z"/>
<path fill="#FFFFFF" d="M765.96,256.765c0,0-0.046,0.044-0.047,0.044L765.96,256.765z"/>
<path fill="#FFFFFF" d="M760.838,256.077l-0.038-0.038C760.8,256.038,760.838,256.077,760.838,256.077z"/>
<path fill="#FFFFFF" d="M654.409,253.852l-0.038,0.037L654.409,253.852z"/>
<path fill="#FFFFFF" d="M819.895,183.9l-0.041-0.041L819.895,183.9z"/>
<path fill="#FFFFFF" d="M844.695,179.486l-0.039,0.039L844.695,179.486z"/>
<path fill="#FFFFFF" d="M842.467,210.092l0.041,0.041C842.507,210.133,842.467,210.092,842.467,210.092z"/>
<path fill="#FFFFFF" d="M814.803,140.848l-0.036,0.034L814.803,140.848z"/>
<path fill="#FFFFFF" d="M817.683,197.02l0.036-0.036L817.683,197.02z"/>
<path fill="#FFFFFF" d="M817.719,196.983l-0.036,0.036L817.719,196.983z"/>
<path fill="#FFFFFF" d="M787.099,195.525c0,0-0.038,0.039-0.038,0.038L787.099,195.525z"/>
<path fill="#FFFFFF" d="M432.521,156.404c-2.745-4.898,0.724-8.82,7.11-12.53c11.188-6.499,23.114-11.643,34.116-18.476
	c10.603-6.585,21.161-13.267,32.204-19.102c5.385,7.083,7.849,18.159,10.857,26.454c5.533,15.249,10.624,34.277-0.839,48.179
	c-8.264,10.021-18.412,19.131-27.481,28.448c-5.593,5.743-10.862,11.9-17.315,16.716c-2.894,2.158-5.896,3.813-9.332,4.974
	c-2.531,0.854-9.774,1.064-11.502,2.817l0.032-0.032c-12.325,1.771-24.286,7.278-37.066,4.216c-5.5-1.318-10.739-3.697-16.118-5.541
	c-0.755-0.259-1.724,0.012-2.412-0.328c-1.808-0.895-3.483-2.054-5.277-2.981c-4.278-2.211-8.764-2.971-12.634-6.042
	c-2.814-2.233-5.59-4.247-8.655-6.117c-0.184,0.295-0.178,0.545-0.339,0.771c-17.777-10.329-31.869-29.467-36.634-49.547
	c-2.603-10.97-4.936-23.333-3.184-34.601c1.967-12.652,9.172-25.048,17.451-34.609c10.354-11.958,23.75-21.574,37.878-28.496
	c14.508-7.108,30.425-13.786,46.712-14.883c8.773-0.59,18.905,0.039,27.389,2.52c9.823,2.872,37.974,12.808,29.743,27.581
	c-4.368,7.842-13.9,13.056-20.594,18.688c-7.148,6.017-13.105,12.906-19.094,20.036c-6.344,7.555-13.413,14.049-21.069,20.249
	c0.01-0.007-0.646-10.557-0.54-11.689c0.411-4.348,0.899-8.685,1.255-13.036c0.77-9.419,1.283-18.856,1.889-28.287
	c0.556-8.658,1.971-17.324,2.344-25.979c0.108-2.509,0.549-6.751-2.785-7.294c-1.385,5.283-0.396,11.966-0.729,17.431
	c-0.375,6.133-0.945,12.252-1.644,18.355c-1.38,12.078-1.25,24.251-2.689,36.319c-1.137,9.52-2.843,19.649,3.662,27.675
	c5.359,6.614,13.255,10.815,20.202,15.494c8.644,5.82,15.182,13.141,23.089,19.724c4.08,3.398,9.788,7.846,15.394,5.324
	c-7.919-5.787-15.378-12.047-22.961-18.255c-8.649-7.08-18.548-12.718-26.935-20.073
	C434.387,159.041,433.241,157.689,432.521,156.404z M516.706,178.481c0,0-0.036-0.039-0.038-0.039L516.706,178.481z
	 M331.834,162.404c0.438,0.354,0.734,0.736,0.891,0.688c0.271-0.087,0.579-0.418,0.636-0.693c0.047-0.232-0.241-0.533-0.381-0.803
	C332.652,161.824,332.325,162.057,331.834,162.404z"/>
<path fill="#FFFFFF" d="M435.788,141.203c1.852,0.529,15.92-17.246,17.958-19.333c7.688-7.879,15.607-15.536,23.5-23.218
	c4.417-4.299,9.002-8.426,13.461-12.682c1.765-1.684,3.241-1.452,4.428,0.504c2.484,4.091,10.88,13.465,7.199,18.168
	c-2.863,3.659-9.924,5.448-13.886,7.733c-5.953,3.432-11.89,6.894-17.819,10.364c-5.922,3.467-11.851,6.924-17.779,10.379
	C448.832,135.462,440.488,142.538,435.788,141.203z"/>
<path fill="#FFFFFF" d="M369.436,217.815c-0.489-0.001-0.979-0.001-1.47-0.001l-0.015,0.03c0.502-0.001,1.004-0.003,1.506-0.003
	L369.436,217.815z"/>
<path fill="#FFFFFF" d="M327.893,131.053c0,0-0.039,0.04-0.04,0.04C327.853,131.091,327.893,131.053,327.893,131.053z"/>
<path fill="#FFFFFF" d="M435.756,141.25c0,0,0.027,0.025,0.025,0.025L435.756,141.25z"/>
<path fill="#FFFFFF" d="M63.61,239.916c0,0,0.04-0.039,0.04-0.038L63.61,239.916z"/>
<path d="M742.629,221.04c-16.688,1.09-33.141-3.076-49.71-5.021c-18.683-2.199-9.347-36.496-8.115-49.786
	c2.171-23.401,3.609-46.797,6.571-70.123c1.618-12.65,47.667-3.416,57.098-2.744c-4.438,37.432-3.729,75.725-5.062,113.228
	c0.074-0.717-0.205-1.025-0.84-0.925c0,4.572-0.528,8.177-0.138,5.629C741.545,217.068,744.678,218.957,742.629,221.04z
	 M694.468,108.754c-0.478,3.646-0.955,7.294-1.435,10.941c0,0.499,0.479-3.647,0,0c0,5.108-0.491,10.271-0.777,15.371
	c0-0.534,0-1.068,0-1.604c-0.195,0.031-0.395,0.062-0.591,0.093c8.373,19.538-12.896,50.621-5.944,71.452
	c-3.869,12.715,41.974,11.114,50.664,12.061c7.48,0.815,2.776-40.013,3.086-45.8c1.232-23.062,3.592-48.13,4.603-71.201
	c0.369-8.342-45.97-12.333-48.876,2.853"/>
<path d="M746.225,138.681l0.028-0.028L746.225,138.681z"/>
<path d="M742.569,210.111C744.41,211.974,742.71,210.247,742.569,210.111C742.821,210.366,742.569,210.111,742.569,210.111z"/>
<path d="M817.92,189.36"/>
<path d="M790.019,173.705c0.021-0.111,0.044-0.225,0.066-0.335c-0.035,0.102-0.069,0.201-0.104,0.304L790.019,173.705z"/>
<path d="M781.955,251.719c0-0.271,0-0.541,0-0.812C781.955,251.177,781.955,251.448,781.955,251.719z"/>
<path d="M787.082,205.036l-0.029-0.028C787.054,205.008,787.082,205.036,787.082,205.036z"/>
<path d="M828.604,186.073l0.036-0.035L828.604,186.073z"/>
<path d="M854.158,167.859l-0.037-0.037C854.122,167.823,854.158,167.859,854.158,167.859z"/>
<path d="M819.134,135.062c-0.001-0.263-0.003-0.524-0.006-0.788c0.262,0.002,0.524,0.004,0.785,0.006
	C819.654,134.542,819.394,134.801,819.134,135.062z"/>
<path d="M331.834,162.404c0.491-0.348,0.818-0.579,1.146-0.81c0.14,0.269,0.428,0.569,0.381,0.803
	c-0.057,0.275-0.366,0.606-0.636,0.693C332.568,163.141,332.272,162.758,331.834,162.404z"/>
<path d="M369.457,217.842c-0.502,0-1.004,0.002-1.506,0.003c0.053-0.317,0.106-0.634,0.159-0.951
	C368.559,217.21,369.007,217.526,369.457,217.842z"/>
<path d="M450.373,233.853l-0.032,0.032L450.373,233.853z"/>
<path d="M432.138,156.609l-0.041-0.039L432.138,156.609z"/>
<path d="M516.67,178.442l0.036,0.039L516.67,178.442z"/>
<path d="M516.706,178.481l-0.038-0.039C516.67,178.442,516.706,178.481,516.706,178.481z"/>
<path fill="#FFFFFF" d="M691.317,151.091c1.057-16.899-5.668-44.213,15.005-52.191c46.025-17.76,34.355,34.336,32.695,58.774
	c-1.653,24.334,9.688,63.754-29.039,56.443c-11.467-2.164-19.039-1.245-21.402-12.082
	C684.876,185.044,690.303,168.028,691.317,151.091C691.324,150.981,690.302,168.042,691.317,151.091z M733.863,125.575
	c0.926-8.748,3.029-15.332-5.885-19.74c0.101-0.058,0.197-0.116,0.297-0.173c-11.183,8.944-33.395,13.019-14.938,32.477
	c-4.067,4.87-9.801,8.396-11.354,14.726c5.645-0.872,7.189-4.232,11.479-8.375c-0.4,0.397,0.096,0.416,1.488,0.055
	c-1.5,6.961-1.764,17.316-4.399,23.764c-4.105,10.042-16.937,17.345-18.123,28.061c2.873-0.868,3.946-0.774,5.673-3.006
	c4.305-5.698,8.401-11.381,12.637-17.246c1.774,2.648,23.908,25.089,20.184,17.257c-3.489-7.334-13.44-14.282-15.327-21.854
	c2.735-7.816,2.322-17.943,4.393-26.259c3.145,1.369,11.229,10.9,15.128,8.804c4.12-2.206-10.982-15.221-12.774-17.156
	C726.54,133.387,730.342,129.168,733.863,125.575z"/>
<path fill="#FFFFFF" d="M742.6,210.078c0.253,0.255,0.503,0.508,0.756,0.762c-0.309,0.152-0.614,0.305-0.923,0.457
	C742.488,210.891,742.545,210.485,742.6,210.078C742.854,210.333,742.545,210.485,742.6,210.078z"/>
<path fill="#FFFFFF" d="M692.299,135.035c-0.211-0.493-0.423-0.986-0.634-1.479c0.196-0.031,0.396-0.062,0.591-0.093
	c0,0.535,0,1.069,0,1.604C692.256,135.068,692.299,135.035,692.299,135.035z"/>
<path fill="#FFFFFF" d="M744.071,187.477c0,0.516,0,1.03,0.001,1.545C744.071,188.507,744.071,187.991,744.071,187.477z"/>
<path fill="#FFFFFF" d="M693.033,121.193c0.369-0.675,0.359-1.182-0.026-1.521C692.618,121.048,692.627,121.555,693.033,121.193z"/>
<path fill="#FFFFFF" d="M715.65,219.583l-0.037,0.039L715.65,219.583z"/>
<path fill="#FFFFFF" d="M695.196,102.92c0,0,0.038,0.039,0.037,0.039L695.196,102.92z"/>
<path fill="#FFFFFF" d="M694.468,108.754l0.035,0.036L694.468,108.754z"/>
<path d="M702.529,187.504c-4.691,5.647-6.155,7.59-4.395,5.824c-1.437,1.823-3.339,2.837-5.706,3.038
	c0.939-8.48,10.397-16.032,15.227-22.954c5.169-7.41,6.709-21.015,7.336-30.131c-0.155,0.021-0.312,0.042-0.467,0.062
	c0.144,0.4,0.286,0.8,0.428,1.198c-5.294-0.04-7.091,7.412-12.969,8.319c1.554-6.329,18.915-13.839,13.667-17.405
	c-14.597-9.921-6.412-29.842,12.328-29.623c7.141,3.534,6.496,5.387,6.627,13.165c-0.047,1.512,0.562,8.024-2.975,8.019
	c-3.123,5.05-9.247,15.561-9.292,9.887c0.048,6.062,6.236,8.896,4.048,8.354c4.562,1.132,13.608,6.188,8.728,8.804
	c-3.897,2.098-11.983-7.435-15.128-8.804c-2.016,8.094-3.526,15.544-3.647,24.059c0.604-0.58,0.354,0.153-0.743,2.2
	c-0.064-0.103-0.131-0.206-0.195-0.31c3.396,4.083,15.565,16.992,15.548,22.187c-6.101-2.92-16.269-11.396-20.209-17.279
	c-3.044,4.218-5.649,7.825-8.254,11.435L702.529,187.504z M727.966,108.79c-2.007-1.606-9.299,1.384-11.591,4.309
	c-1.891,1.121-8.697,11.971-6.32,13.925c12.374,10.172,24.901-3.955,20.895-13.122"/>
<path d="M688.682,202.061c-0.21-0.34-0.222-0.33-0.033,0.028C688.646,202.089,688.682,202.061,688.682,202.061z"/>
<path d="M693.008,121.215c0-0.514-0.001-1.028-0.001-1.543C693.008,120.186,693.008,120.701,693.008,121.215z"/>
<path d="M728.012,105.873c0.088-0.07,0.177-0.141,0.265-0.21C727.989,105.699,727.901,105.769,728.012,105.873z"/>
<path d="M732.41,126.991C730.35,127.003,732.567,126.987,732.41,126.991C732.161,126.992,732.41,126.991,732.41,126.991z"/>
<path d="M733.863,125.575l-0.039-0.039L733.863,125.575z"/>
<path d="M690.808,151.078l0.039-0.038C690.848,151.04,690.808,151.078,690.808,151.078z"/>
<path d="M688.684,202.869c0-0.27-0.002-0.539-0.002-0.81C688.501,202.272,688.505,202.656,688.684,202.869z"/>
<path d="M698.104,193.361l0.032-0.032L698.104,193.361z"/>
<path d="M730.921,192.603C730.921,194.732,730.918,192.441,730.921,192.603C730.921,192.858,730.921,192.603,730.921,192.603z"/>
<path fill="#FFFFFF" d="M719.262,113.902c2.292-2.925,4.441-3.585,6.448-1.979c-1.115,1.771-6,5.169-4.156,7.66
	c2.052,2.769,5.789-0.69,7.639-1.701c4.008,9.167-14.763,21.83-17.428,6.035C711.195,120.544,717.371,115.023,719.262,113.902z"/>
<path fill="#FFFFFF" d="M714.952,144.543c-0.143-0.398-0.284-0.798-0.428-1.198c0.153-0.021,0.312-0.042,0.467-0.062
	C714.574,143.92,714.562,144.34,714.952,144.543z"/>
<path fill="#FFFFFF" d="M715.632,171.486c-0.079-0.094-0.155-0.187-0.231-0.278C715.445,171.505,715.521,171.599,715.632,171.486z"
	/>
<path fill="#FFFFFF" d="M728.047,143.738C728.039,141.962,728.051,143.816,728.047,143.738
	C728.046,143.514,728.047,143.738,728.047,143.738z"/>
<path fill="#FFFFFF" d="M727.999,143.777C728.47,144.499,727.942,143.703,727.999,143.777
	C728.091,143.918,727.999,143.777,727.999,143.777z"/>
<path fill="#FFFFFF" d="M732.438,127.021c-0.268,0-0.536-0.002-0.806-0.003C731.9,127.019,732.168,127.021,732.438,127.021z"/>
<path fill="#FFFFFF" d="M719.291,113.872l-0.029,0.029L719.291,113.872z"/>
<path fill="#FFFFFF" d="M734.565,118.958l0.04,0.042L734.565,118.958z"/>
<path fill="#FFFFFF" d="M702.529,187.504l-0.045,0.044L702.529,187.504z"/>
<path fill="#FFFFFF" d="M716.375,169.282l-0.036,0.033L716.375,169.282z"/>
<path fill="#FFFFFF" d="M713.464,144.488l-0.042,0.045L713.464,144.488z"/>
<path fill="#FFFFFF" d="M720.025,145.221l-0.039,0.037L720.025,145.221z"/>
<path fill="#FFFFFF" d="M730.948,192.578c0,0.271,0,0.545,0,0.814C730.948,193.123,730.948,192.851,730.948,192.578z"/>
</svg>
