<?xml version="1.0" standalone="no"?>
<!DOCTYPE svg PUBLIC "-//W3C//DTD SVG 20010904//EN"
 "http://www.w3.org/TR/2001/REC-SVG-20010904/DTD/svg10.dtd">
<svg version="1.0" xmlns="http://www.w3.org/2000/svg"
 width="1000.000000pt" height="1000.000000pt" viewBox="0 0 1000.000000 1000.000000"
 preserveAspectRatio="xMidYMid meet">
<metadata>
Created by potrace 1.11, written by Peter Selinger 2001-2013
</metadata>
<g transform="translate(0.000000,1000.000000) scale(0.100000,-0.100000)"
fill="#000000" stroke="none">
<path d="M5566 7805 l-26 -26 0 -874 0 -874 -83 39 c-121 57 -279 107 -404
129 -132 24 -357 22 -472 -3 -192 -42 -389 -140 -535 -266 -192 -164 -359
-419 -457 -697 -45 -125 -62 -192 -94 -353 -3 -14 -8 -47 -11 -75 -3 -27 -7
-55 -9 -62 -2 -7 -7 -61 -11 -120 -15 -221 -6 -512 22 -713 3 -25 8 -56 9 -70
9 -69 41 -219 61 -290 146 -512 425 -826 833 -937 85 -23 116 -26 266 -27 205
-1 256 5 410 51 195 59 376 168 545 329 30 29 59 53 63 54 4 0 26 -26 48 -60
124 -185 334 -308 570 -335 l50 -6 60 61 c95 97 191 258 220 370 11 45 11 45
-30 90 -82 87 -135 238 -147 418 -3 53 -7 950 -8 1992 l-2 1895 -22 80 c-48
172 -128 250 -296 288 -50 11 -130 16 -297 17 l-227 1 -26 -26z m-409 -2309
c34 -9 97 -31 140 -50 75 -32 107 -49 201 -103 l42 -25 0 -825 0 -825 -97 -97
c-150 -149 -294 -222 -469 -237 -180 -15 -301 47 -411 209 -79 117 -140 312
-159 512 -4 39 -8 84 -10 100 -5 46 -4 380 1 465 5 67 9 101 31 240 14 90 59
233 99 316 88 181 202 289 347 329 65 17 199 13 285 -9z"/>
<path d="M1439 5405 c-2 -2 -30 -6 -62 -10 -163 -17 -344 -69 -478 -136 -68
-34 -77 -42 -91 -81 -26 -70 -49 -144 -54 -175 -2 -15 -9 -50 -14 -78 -23
-118 -33 -464 -17 -580 3 -22 9 -65 12 -95 8 -68 52 -241 75 -295 19 -44 63
-73 194 -125 112 -44 193 -63 376 -89 65 -9 447 -8 485 2 11 3 42 8 69 11 27
4 53 9 56 11 4 2 22 7 41 10 97 16 308 105 344 145 15 17 59 143 70 205 67
352 48 789 -46 1045 -20 53 -23 56 -91 88 -121 57 -289 109 -413 128 -16 3
-43 7 -60 10 -34 7 -391 15 -396 9z"/>
<path d="M8378 5405 c-2 -1 -32 -6 -68 -9 -156 -16 -349 -71 -479 -134 -63
-32 -76 -43 -91 -77 -108 -252 -127 -795 -39 -1114 40 -143 47 -152 140 -198
118 -58 243 -98 374 -119 22 -3 51 -8 65 -10 14 -3 111 -7 215 -9 205 -4 345
8 486 44 93 24 242 83 281 111 15 11 32 20 37 20 17 0 73 172 87 273 2 15 6
42 9 60 24 154 23 528 -1 662 -16 91 -37 184 -55 241 -23 74 -41 89 -169 141
-200 83 -409 122 -642 121 -81 0 -148 -2 -150 -3z"/>
</g>
</svg>
