<?xml version="1.0" encoding="utf-8"?>
<!-- Generator: Adobe Illustrator 16.0.4, SVG Export Plug-In . SVG Version: 6.00 Build 0)  -->
<!DOCTYPE svg PUBLIC "-//W3C//DTD SVG 1.1//EN" "http://www.w3.org/Graphics/SVG/1.1/DTD/svg11.dtd">
<svg version="1.1" id="Layer_1" xmlns="http://www.w3.org/2000/svg" xmlns:xlink="http://www.w3.org/1999/xlink" x="0px" y="0px"
	 width="1602px" height="245.594px" viewBox="0 0 1602 245.594" enable-background="new 0 0 1602 245.594" xml:space="preserve">
<rect x="355.5" display="none" fill="#FFFFFF" stroke="#000000" stroke-miterlimit="10" width="886" height="300"/>
<circle fill="#983353" cx="499" cy="46" r="32"/>
<circle fill="#629841" cx="449.5" cy="145.5" r="57.5"/>
<circle fill="#629841" cx="795.75" cy="25.75" r="48"/>
<circle fill="#629841" cx="1078" cy="186.25" r="18.5"/>
<circle fill="#90A43B" cx="1114.5" cy="14" r="22"/>
<circle fill="#6E266E" cx="622.5" cy="101.25" r="29.5"/>
<circle fill="#629841" cx="934.5" cy="186.25" r="18.5"/>
<circle fill="#983353" cx="891.25" cy="0" r="23.75"/>
<circle fill="#90A43B" cx="939.5" cy="110.25" r="18.5"/>
<circle fill="#90A43B" cx="728.75" cy="54.5" r="10.75"/>
<circle fill="#629841" cx="547" cy="108" r="10.75"/>
<circle fill="#983353" cx="661.5" cy="-22.25" r="79.5"/>
<circle fill="#6E266E" cx="998" cy="-33.5" r="63.5"/>
<circle fill="#6E266E" cx="565.5" cy="43.5" r="18.5"/>
<circle fill="#6E266E" cx="1213.5" cy="141.625" r="57.5"/>
<circle fill="#983353" cx="1072" cy="43.5" r="23.5"/>
<circle fill="#90A43B" cx="1089" cy="116" r="34"/>
<circle fill="#629841" cx="1202" cy="30" r="32"/>
<circle fill="#983353" cx="531" cy="181.75" r="16"/>
<circle fill="#983353" cx="1472.5" cy="134" r="23.75"/>
<circle fill="#90A43B" cx="1305" cy="110.25" r="18.5"/>
<circle fill="#90A43B" cx="181.5" cy="30" r="18.5"/>
<circle fill="#629841" cx="1431.5" cy="172.75" r="18.5"/>
<circle fill="#90A43B" cx="1468" cy="76.5" r="22"/>
<circle fill="#629841" cx="661.5" cy="203" r="18.5"/>
<circle fill="#90A43B" cx="1358.5" cy="212.5" r="18.5"/>
<circle fill="#6E266E" cx="76.343" cy="18.5" r="63.5"/>
<circle fill="#983353" cx="1364.5" cy="135.75" r="23.5"/>
<circle fill="#629841" cx="1332.5" cy="11.5" r="32"/>
<circle fill="#983353" cx="55" cy="196.125" r="32"/>
<circle fill="#90A43B" cx="1568" cy="85.5" r="34"/>
<circle fill="#629841" cx="1550.125" cy="186.25" r="48"/>
<circle fill="#983353" cx="1502.125" cy="4" r="32"/>
<circle fill="#90A43B" cx="704.75" cy="112.25" r="26.75"/>
<circle fill="#90A43B" cx="139.843" cy="88" r="10.75"/>
<circle fill="#629841" cx="273" cy="156.375" r="18.5"/>
<circle fill="#90A43B" cx="31.343" cy="115.875" r="18.5"/>
<circle fill="#629841" cx="139.843" cy="186.25" r="32"/>
<circle fill="#6E266E" cx="221.5" cy="54.5" r="18.5"/>
<circle fill="#6E266E" cx="200" cy="112.25" r="18.5"/>
<circle fill="#629841" cx="259.5" cy="-2" r="32"/>
<circle fill="#983353" cx="332.125" cy="75.125" r="46.125"/>
<circle fill="#90A43B" cx="412.25" cy="25.75" r="34"/>
<circle fill="#90A43B" cx="355.5" cy="191.25" r="34"/>
<g display="none">
	<path display="inline" fill="#FFFFFF" d="M1602-2v500H0V-2H1602 M1702-102h-100H0h-100V-2v500v100H0h1602h100V498V-2V-102L1702-102
		z"/>
</g>
<circle fill="#629841" cx="947.5" cy="50.5" r="18.5"/>
<circle fill="#6E266E" cx="806.426" cy="112.25" r="22.426"/>
<circle fill="#90A43B" cx="995" cy="87.5" r="18.5"/>
<circle fill="#983353" cx="861.5" cy="128.75" r="12.875"/>
<circle fill="#6E266E" cx="1005" cy="137.875" r="16.625"/>
<circle fill="#6E266E" cx="602" cy="181.75" r="22"/>
<circle fill="#6E266E" cx="739.5" cy="167.75" r="18.5"/>
<circle fill="#983353" cx="833" cy="191.25" r="32"/>
</svg>
